
<svg style="position:absolute; width:0; height:0; visibility:hidden" xmlns="http://www.w3.org/2000/svg" xmlns:xlink="http://www.w3.org/1999/xlink">
  <symbol id="cus-copy" width="16" height="16" viewBox="0 0 18 18">
    <svg xmlns="http://www.w3.org/2000/svg" width="18" height="18" viewBox="0 0 18 18">
    <g class="a">
    <rect class="b" width="18" height="18" fill="none"/>
    <rect class="c" width="18" height="18" fill="none"/>
    <path class="d" fill="currentColor" d="M11.423,13.5H.952A1.05,1.05,0,0,1,0,12.375V1.125A1.05,1.05,0,0,1,.952,0H11.423a1.05,1.05,0,0,1,.952,1.125v11.25A1.05,1.05,0,0,1,11.423,13.5ZM.952,1.125v11.25H11.423V1.125ZM8.091,6.75H2.38V5.625H8.091V6.749ZM10,3.938H2.38V2.813H10V3.936Z" transform="translate(1.688 3.375)"/>
    <path class="d" fill="currentColor" d="M14.893,13.646h-1V2.348H6.525v-1h7.867a.5.5,0,0,1,.5.5Z" transform="translate(1.605)"/></g></svg>
  </symbol>

  <symbol id="cus-install" width="18" height="18" viewBox="0 0 18 18">
   <svg xmlns="http://www.w3.org/2000/svg" xmlns:xlink="http://www.w3.org/1999/xlink" width="18" height="18" viewBox="0 0 18 18"><defs><style>.a{fill:#df3737;opacity:0.52;}.b{clip-path:url(#a);}.c{fill:var(--td-brand-color);}</style><clipPath id="a"><rect class="a" width="18" height="18" transform="translate(5969 -8509)"/></clipPath></defs><g class="b" transform="translate(-5969 8509)"><g transform="translate(5970.04 -8506.62)">
   <path class="c" fill="currentColor" d="M-.5-.5H16.123V8.768a1,1,0,0,1-1,1H.5a1,1,0,0,1-1-1ZM15.123.5H.5V8.768H15.123Z" transform="translate(0.153 3.972)"/>
   <path class="c" fill="currentColor" d="M.288,16.3l-.577-.817L3.224,13V2.926L-.291.406.291-.406,4.224,2.412V13.52Z" transform="translate(0 3.724) rotate(-90)"/></g>
   <path class="c" fill="currentColor" d="M.5,4.427h-1V0h1Z" transform="translate(5977.984 -8500.435)"/>
   <path class="c" fill="currentColor" d="M3.893,3.893H0v-1H2.893V0h1Z" transform="translate(5977.984 -8500.394) rotate(45)"/></g></svg>
  </symbol>

  <symbol id="cus-uninstall" width="18" height="18" viewBox="0 0 18 18">
    <svg xmlns="http://www.w3.org/2000/svg" width="18" height="18" viewBox="0 0 18 18"><defs>
    </defs><g transform="translate(-1878 -299.5)">
    <rect class="a" fill="none" width="18" height="18" transform="translate(1878 299.5)"/>
    <path class="b" fill="currentColor" d="M-3947.75,8737.749h-9a1.126,1.126,0,0,1-1.125-1.125v-11.249H-3959v-1.125h3.938V8722.9a.9.9,0,0,1,.9-.9h3.826a.9.9,0,0,1,.9.9v1.352h3.936v1.125h-1.125v11.249A1.127,1.127,0,0,1-3947.75,8737.749Zm-9-12.374v11.249h9v-11.249Zm2.813-2.25v1.125h3.375v-1.125Z" transform="translate(5839.25 -8421.375)"/>
    <path class="c" fill="currentColor" d="M.5-2h-1V4.428h1Z" transform="translate(1887 309.619)"/>
    <path class="c" fill="currentColor" d="M3.893,0H0V1H2.893V3.893h1Z" transform="translate(1884.247 309.253) rotate(-45)"/></g>
    </svg>
  </symbol>

   <symbol id="cus-upgrade" width="18" height="18" viewBox="0 0 18 18">
    <svg t="1673244932472" class="icon" viewBox="0 0 1024 1024" version="1.1" xmlns="http://www.w3.org/2000/svg" p-id="5141"
    width="18" height="18" xmlns:xlink="http://www.w3.org/1999/xlink">
    <path d="M728.368 829.28l36.096 52.848a446.832 446.832 0 0 1-91.536 48.096l-22.992-59.728a382.832 382.832 0 0 0 78.432-41.2z m111.36-117.056l54.592 33.424a449.76 449.76 0 0 1-63.76 81.344l-45.504-44.992a385.76 385.76 0 0 0 54.688-69.776z m53.36-152.72l63.52 7.84a445.344 445.344 0 0 1-24.464 100.48l-60-22.272a381.344 381.344 0 0 0 20.96-86.048z m47.488-178.352a446.608 446.608 0 0 1 18.496 101.76l-63.872 4.08a382.624 382.624 0 0 0-15.84-87.168l61.216-18.672zM847.856 215.52a448.992 448.992 0 0 1 59.072 84.832l-56.384 30.272a384.992 384.992 0 0 0-50.656-72.736l47.968-42.368z m-151.568-111.952a447.84 447.84 0 0 1 88.656 53.168l-39.024 50.72a383.84 383.84 0 0 0-76-45.568l26.368-58.32zM459.808 131.52l-8.928 1.312-7.072 1.2-7.312 1.392-6.96 1.44-2.96 0.672-4.96 1.168-4.928 1.216c-2.912 0.752-5.824 1.52-8.72 2.336l-8.704 2.56-2.08 0.64a382.208 382.208 0 0 0-84.992 38.56l-7.472 4.672-7.12 4.688-5.552 3.808-2.976 2.112-7.68 5.632-9.168 7.12-8.112 6.672-7.12 6.176-6.08 5.52-3.648 3.424 2.784-2.624a386.112 386.112 0 0 0-51.424 58.8l-2.56 3.648-6.112 9.12c-3.088 4.736-6.08 9.536-8.944 14.4l-1.312 2.256c-1.792 3.088-3.536 6.192-5.248 9.328l-3.712 6.976-4.912 9.856-3.232 6.88-3.136 7.072-1.792 4.192c-0.896 2.112-1.76 4.224-2.592 6.336l2.592-6.336a381.28 381.28 0 0 0-25.408 90.928l-0.8 5.632-0.72 5.648-0.88 7.984-0.672 7.76-0.64 9.648-0.448 12.24L128 512l0.112 9.152 0.032 1.744c0.8 28.512 4.704 56.256 11.392 82.88l1.568 6.032 0.992 3.68 1.472 5.12 1.536 5.056c0.8 2.576 1.616 5.152 2.48 7.712l2.144 6.256 1.504 4.192 1.824 4.912 1.904 4.88 3.216 7.84 3.104 7.184a382.128 382.128 0 0 0 43.36 73.6l5.328 6.928a386.128 386.128 0 0 0 24.96 28.72l8.688 8.752-1.6-1.568c2.496 2.464 5.024 4.88 7.568 7.28l-5.968-5.712 3.472 3.344 3.52 3.312c2.304 2.16 4.656 4.288 7.04 6.4l5.152 4.48 2.88 2.432a384.736 384.736 0 0 0 64.592 43.76l4.576 2.432 8.64 4.336 8.368 4 2.176 0.96c2.816 1.28 5.648 2.528 8.496 3.728l6.56 2.72 3.872 1.52 8.88 3.312 8.016 2.784 7.168 2.336 7.888 2.368 4.512 1.28c22.96 6.352 46.8 10.624 71.28 12.592l10.032 0.688 6.896 0.32 6.928 0.192L512 896c22.08 0 43.904-1.856 65.328-5.536l10.816 63.088c-21.44 3.68-43.184 5.792-65.152 6.32L512 960l-4.8-0.032-12.16-0.288-7.792-0.352-4.704-0.288a447.648 447.648 0 0 1-70.816-10.304l-10.8-2.608c-6.432-1.648-12.8-3.424-19.12-5.344l-9.984-3.168-9.44-3.2-10.272-3.792-9.088-3.584-10.144-4.288-8.96-4.032-9.792-4.688-4.304-2.128-4.544-2.352-5.296-2.8a448.48 448.48 0 0 1-59.568-38.432l-8.784-6.88a450.272 450.272 0 0 1-6.848-5.6l7.664 6.256a450.096 450.096 0 0 1-8.8-7.2l-7.456-6.432-3.36-2.992-7.68-7.056-7.328-7.04-5.968-6-5.6-5.824-7.2-7.792-6.688-7.6-2.912-3.408-4.16-4.992a448.32 448.32 0 0 1-56.352-87.968l-5.12-10.896a443.712 443.712 0 0 1-21.184-56.64l-3.264-11.504A448.24 448.24 0 0 1 64 512c0-11.456 0.432-22.816 1.28-34.048l1.152-12.864c0.48-4.8 1.072-9.584 1.712-14.336l1.376-9.216A444.544 444.544 0 0 1 91.024 358.4l3.776-9.92c1.312-3.36 2.672-6.72 4.08-10.032l4.032-9.328 4.288-9.264c2.88-6.08 5.92-12.096 9.088-18.064l5.808-10.56 4.752-8.16 6.16-10.048a449.76 449.76 0 0 1 62.208-77.792l3.296-3.264 4.384-4.24 7.072-6.608 4.208-3.776 8.288-7.2 3.072-2.592 7.936-6.448 5.04-3.952 7.792-5.872 9.536-6.848 7.68-5.248 3.84-2.528 5.008-3.232a446.208 446.208 0 0 1 75.712-38.464l10.88-4.112a444.88 444.88 0 0 1 59.488-17.056l10.432-2.08 9.808-1.728 11.488-1.728 10.608-1.344a452.8 452.8 0 0 1 153.92 8.944l-14.624 62.304a387.456 387.456 0 0 0-140.272-6.624z"
    fill="currentColor" p-id="5142">
    </path>
    <path d="M512 288l181.024 181.024-45.264 45.248L544 410.496 544 728h-64V410.528l-103.76 103.744-45.264-45.248 135.776-135.76L512 288z"
      fill="currentColor" p-id="5143">
    </path>
   </svg>
  </symbol>

  <symbol id="cus-retry" width="18" height="18" viewBox="0 0 18 18">
   <svg xmlns="http://www.w3.org/2000/svg" xmlns:xlink="http://www.w3.org/1999/xlink" width="18" height="18" viewBox="0 0 18 18"><defs><clipPath id="a"><rect class="a" width="18" height="18" transform="translate(1053 97)"/></clipPath></defs><g class="b" transform="translate(-1053 -97)">
   <path class="c" fill="currentColor" d="M12.941,0h1.082A7.011,7.011,0,0,1,7.031,7.03,6.979,6.979,0,0,1,1.079,3.689c-.026.012.869-.662.879-.636a5.9,5.9,0,0,0,5.073,2.9A5.929,5.929,0,0,0,12.941,0Z" transform="translate(1066.972 111.47) rotate(-135)"/>
   <path class="c" fill="currentColor" d="M1.117,13.278A5.9,5.9,0,0,1,12.1,10.225c0-.009.881-.627.879-.636A6.985,6.985,0,0,0,.036,13.278Z" transform="translate(1057.58 120.856) rotate(-135)"/>
   <path class="c" fill="currentColor" d="M2,0,4,3.2H0Z" transform="translate(1053.5 102.289)"/>
   <path class="c" fill="currentColor" d="M2,0,4,3.2H0Z" transform="translate(1070.5 110.489) rotate(180)"/></g>
   </svg>
  </symbol>

  <symbol id="cus-disable" width="18" height="18" viewBox="0 0 18 18">
   <svg xmlns="http://www.w3.org/2000/svg" width="18" height="18" viewBox="0 0 18 18"><defs>
   </defs><g transform="translate(-1783 -262.5)">
   <rect class="a" fill="none" width="18" height="18" transform="translate(1783 262.5)"/>
   <path class="b" fill="currentColor" d="M11.375,7.625V6.5H3.5V7.625Z" transform="translate(1791.735 261.247) rotate(45)"/>
   <path class="c" fill="currentColor" d="M-3951.126,8737.75a7.883,7.883,0,0,1-7.875-7.874,7.883,7.883,0,0,1,7.875-7.875,7.884,7.884,0,0,1,7.877,7.875A7.884,7.884,0,0,1-3951.126,8737.75Zm0-14.624a6.758,6.758,0,0,0-6.75,6.75,6.757,6.757,0,0,0,6.75,6.749,6.758,6.758,0,0,0,6.752-6.749A6.759,6.759,0,0,0-3951.126,8723.126Z" transform="translate(5743.125 -8458.375)"/></g>
   </svg>
  </symbol>

  <symbol id="cus-enable" width="18" height="18" viewBox="0 0 18 18">
    <svg xmlns="http://www.w3.org/2000/svg" width="18" height="18" viewBox="0 0 18 18"><g transform="translate(-1775 -501)">
    <rect class="a" fill="none" width="18" height="18" transform="translate(1775 501)"/>
    <path class="b" fill="currentColor" d="M8,16A8,8,0,0,1,8,0a8,8,0,0,1,3.061,15.392A7.967,7.967,0,0,1,8,16ZM8,1.142H8a6.861,6.861,0,1,0,2.625.522A6.873,6.873,0,0,0,8,1.143ZM6.859,11.094h0L4,8.236l.807-.807,2.05,2.049,4.334-4.334L12,5.951,6.859,11.093Z" transform="translate(1775.999 502)"/></g></svg>
  </symbol>

   <symbol id="cus-free" width="18" height="18" viewBox="0 0 18 18">
    <svg xmlns="http://www.w3.org/2000/svg" xmlns:xlink="http://www.w3.org/1999/xlink" width="18" height="18" viewBox="0 0 18 18"><defs>
      <clipPath id="a">
      <rect class="a" fill="none" stroke="currentColor" width="18" height="18" transform="translate(694 116)"/></clipPath></defs>
      <g class="b" transform="translate(-694 -116)">
      <path class="c" fill="none" stroke="currentColor" d="M60.779,55.859a.519.519,0,0,0-.52-.52h-.638a.52.52,0,0,0,0,1.039h.638A.519.519,0,0,0,60.779,55.859ZM58.2,52.834l.319-.551a.52.52,0,1,0-.9-.52l-.319.551a.521.521,0,0,0,.191.71.5.5,0,0,0,.26.069A.513.513,0,0,0,58.2,52.834Zm-1.819-.773v-.638a.52.52,0,0,0-1.039,0v.638a.52.52,0,1,0,1.039,0Zm-2.152.946a.52.52,0,0,0,.191-.71l-.319-.551a.52.52,0,1,0-.9.52l.319.551a.52.52,0,0,0,.45.26A.513.513,0,0,0,54.227,53.008Zm-1.2,1.188a.521.521,0,0,0-.191-.71l-.551-.319a.52.52,0,1,0-.52.9l.551.319a.5.5,0,0,0,.26.069A.516.516,0,0,0,53.025,54.2Zm-.443,1.628a.519.519,0,0,0-.52-.52h-.638a.52.52,0,0,0,0,1.039h.638A.519.519,0,0,0,52.581,55.824Zm-.315,2.661.551-.319a.52.52,0,1,0-.52-.9l-.551.319a.52.52,0,0,0,.26.97A.5.5,0,0,0,52.266,58.485Zm1.8,1.434.319-.551a.52.52,0,0,0-.9-.52l-.319.551a.521.521,0,0,0,.191.71.5.5,0,0,0,.26.069A.52.52,0,0,0,54.068,59.92Zm2.276.34v-.638a.52.52,0,1,0-1.039,0v.638a.52.52,0,1,0,1.039,0Zm1.951-.132a.52.52,0,0,0,.191-.71l-.319-.551a.52.52,0,0,0-.9.52l.319.551a.52.52,0,0,0,.45.26A.531.531,0,0,0,58.295,60.128Zm1.816-1.8a.521.521,0,0,0-.191-.71l-.551-.319a.52.52,0,0,0-.52.9l.551.319a.5.5,0,0,0,.26.069A.524.524,0,0,0,60.11,58.326Z" transform="translate(647.096 69.096)"/>
      <g class="d" transform="translate(696 118)">
      <rect class="e" fill="none" width="14" height="14" rx="1"/>
      <rect class="f" fill="none" stroke="currentColor" x="0.5" y="0.5" width="13" height="13" rx="0.5"/></g></g>
    </svg>
  </symbol>

  <symbol id="cus-free" width="18" height="18" viewBox="0 0 18 18">
    <svg xmlns="http://www.w3.org/2000/svg" xmlns:xlink="http://www.w3.org/1999/xlink" width="18" height="18" viewBox="0 0 18 18"><defs>
      <clipPath id="a">
      <rect class="a" fill="none" stroke="currentColor" width="18" height="18" transform="translate(694 116)"/></clipPath></defs>
      <g class="b" transform="translate(-694 -116)">
      <path class="c" fill="currentColor" d="M60.779,55.859a.519.519,0,0,0-.52-.52h-.638a.52.52,0,0,0,0,1.039h.638A.519.519,0,0,0,60.779,55.859ZM58.2,52.834l.319-.551a.52.52,0,1,0-.9-.52l-.319.551a.521.521,0,0,0,.191.71.5.5,0,0,0,.26.069A.513.513,0,0,0,58.2,52.834Zm-1.819-.773v-.638a.52.52,0,0,0-1.039,0v.638a.52.52,0,1,0,1.039,0Zm-2.152.946a.52.52,0,0,0,.191-.71l-.319-.551a.52.52,0,1,0-.9.52l.319.551a.52.52,0,0,0,.45.26A.513.513,0,0,0,54.227,53.008Zm-1.2,1.188a.521.521,0,0,0-.191-.71l-.551-.319a.52.52,0,1,0-.52.9l.551.319a.5.5,0,0,0,.26.069A.516.516,0,0,0,53.025,54.2Zm-.443,1.628a.519.519,0,0,0-.52-.52h-.638a.52.52,0,0,0,0,1.039h.638A.519.519,0,0,0,52.581,55.824Zm-.315,2.661.551-.319a.52.52,0,1,0-.52-.9l-.551.319a.52.52,0,0,0,.26.97A.5.5,0,0,0,52.266,58.485Zm1.8,1.434.319-.551a.52.52,0,0,0-.9-.52l-.319.551a.521.521,0,0,0,.191.71.5.5,0,0,0,.26.069A.52.52,0,0,0,54.068,59.92Zm2.276.34v-.638a.52.52,0,1,0-1.039,0v.638a.52.52,0,1,0,1.039,0Zm1.951-.132a.52.52,0,0,0,.191-.71l-.319-.551a.52.52,0,0,0-.9.52l.319.551a.52.52,0,0,0,.45.26A.531.531,0,0,0,58.295,60.128Zm1.816-1.8a.521.521,0,0,0-.191-.71l-.551-.319a.52.52,0,0,0-.52.9l.551.319a.5.5,0,0,0,.26.069A.524.524,0,0,0,60.11,58.326Z" transform="translate(647.096 69.096)"/>
      <g class="d" transform="translate(696 118)">
      <rect class="e" fill="none" width="14" height="14" rx="1"/>
      <rect class="f" fill="none" stroke="currentColor" x="0.5" y="0.5" width="13" height="13" rx="0.5"/></g></g>
    </svg>
 </symbol>

 <symbol id="cus-allot" width="18" height="18" viewBox="0 0 18 18">
    <svg xmlns="http://www.w3.org/2000/svg" xmlns:xlink="http://www.w3.org/1999/xlink" width="18" height="18" viewBox="0 0 18 18"><defs>
    <clipPath id="a">
    <rect class="a" fill="none" stroke="currentColor" width="18" height="18" transform="translate(736 116)"/></clipPath></defs>
    <g class="b" transform="translate(-736 -116)"><g transform="translate(1 0.315)">
    <g class="c" transform="translate(740.766 116.685)">
    <rect class="e" fill="none" width="6.468" height="6.468" rx="1"/>
    <rect class="f" fill="none" stroke="currentColor" x="0.5" y="0.5" width="5.468" height="5.468" rx="0.5"/></g><g class="c" transform="translate(736 127)">
    <rect class="e" fill="none" width="6" height="6" rx="1"/>
    <rect class="f" fill="none" stroke="currentColor" x="0.5" y="0.5" width="5" height="5" rx="0.5"/></g><g class="c" transform="translate(746 127)">
    <rect class="e" fill="none" width="6" height="6" rx="1"/>
    <rect class="f" fill="none" stroke="currentColor" x="0.5" y="0.5" width="5" height="5" rx="0.5"/></g>
    <path class="d" fill="none" stroke="currentColor" d="M-253.64-6758.174v-3.108h10.38v3.108" transform="translate(992.429 6886.021)"/>
    <line class="c" fill="none" stroke="currentColor" y2="1.848" transform="translate(743.979 122.69)"/></g></g>
    </svg>
  </symbol>

</svg>
