<svg xmlns="http://www.w3.org/2000/svg" width="24" height="24" viewBox="0 0 24 24"><defs><style>.a{fill:none;}.b{fill:#0058ff;}</style></defs><rect class="a" width="24" height="24"/><path class="b" d="M17.72,18.75a1.125,1.125,0,1,1,1.125-1.125A1.127,1.127,0,0,1,17.72,18.75Zm-12.095,0A1.125,1.125,0,1,1,6.75,17.626,1.127,1.127,0,0,1,5.625,18.75ZM19.5,15H5.631a1.2,1.2,0,0,1-1.184-1L2.365,1.5H0V0H2.619A1.2,1.2,0,0,1,3.8,1l.332,2H19.611a1.2,1.2,0,0,1,1.164,1.492L19.5,9.59a1.2,1.2,0,0,1-1.164.91H5.385l.5,3H19.5V15ZM4.385,4.5,5.135,9H18.1l1.125-4.5Z" transform="translate(1.5 3)"/></svg>