<?xml version="1.0" standalone="no"?><!DOCTYPE svg PUBLIC "-//W3C//DTD SVG 1.1//EN" "http://www.w3.org/Graphics/SVG/1.1/DTD/svg11.dtd"><svg t="1566268188564" class="icon" viewBox="0 0 1024 1024" version="1.1" xmlns="http://www.w3.org/2000/svg" p-id="4556" xmlns:xlink="http://www.w3.org/1999/xlink" width="200" height="200"><defs><style type="text/css"></style></defs><path d="M1024 512.016C1024 229.24 794.764 0 511.992 0 229.344 0 0.2 229.048 0 511.656v396.216c0.152 64.168 52.196 116.116 116.404 116.116h395.796C794.88 1023.876 1024 794.716 1024 512.016" fill="#294172" p-id="4557"></path><path d="M662.32 121.228c-132.436 0-240.18 107.74-240.18 240.18v127.48H295.188c-132.436 0-240.18 107.748-240.18 240.184 0 132.432 107.744 240.18 240.18 240.18s240.18-107.748 240.18-240.18v-127.484h126.952c132.436 0 240.184-107.744 240.184-240.18 0-132.44-107.748-240.18-240.184-240.18z m-239.292 607.844c0 70.488-57.348 127.836-127.84 127.836s-127.84-57.348-127.84-127.836c0-70.492 57.348-127.84 127.84-127.84h126.952v0.356h0.888v127.484z m239.292-239.824h-126.952v-0.36h-0.884v-127.48c0-70.492 57.348-127.84 127.836-127.84s127.84 57.348 127.84 127.84-57.352 127.84-127.84 127.84z" fill="#3C6EB4" p-id="4558"></path><path d="M715.404 128.512c-18.64-4.872-32.952-7.144-53.084-7.144-132.708 0-240.3 107.596-240.3 240.296v127.368h-100.64c-31.38 0-56.74 24.66-56.72 55.984 0 31.128 25.08 55.892 56.128 55.892l83.324 0.016c9.892 0 17.916 8 17.916 17.876v110.212c-0.124 69.964-56.876 126.636-126.84 126.636-23.7 0-29.568-3.104-45.748-3.104-33.988 0-56.728 22.784-56.728 54.112 0.008 25.916 22.216 48.196 49.392 55.308 18.64 4.872 32.952 7.148 53.084 7.148 132.708 0 240.3-107.596 240.3-240.3v-127.364h100.64c31.38 0 56.74-24.66 56.72-55.984 0-31.132-25.08-55.892-56.128-55.892l-83.324-0.016a17.9 17.9 0 0 1-17.916-17.88V361.464c0.124-69.964 56.876-126.636 126.84-126.636 23.7 0 29.568 3.108 45.748 3.108 33.988 0 56.728-22.788 56.728-54.112-0.008-25.92-22.216-48.2-49.392-55.312" fill="#FFFFFF" p-id="4559"></path></svg>