      <svg t="1679969866676" class="icon" viewBox="0 0 1024 1024" version="1.1" xmlns="http://www.w3.org/2000/svg" p-id="9953" width="14" height="14">
            <path d="M512 42.666667a469.333333 469.333333 0 1 0 469.333333 469.333333A469.333333 469.333333 0 0 0 512 42.666667z m0 864a394.666667 394.666667 0 1 1 394.666667-394.666667 395.146667 395.146667 0 0 1-394.666667 394.666667z" p-id="9954" fill="#FF6739"></path>
            <path d="M474.666667 695.52m5.333333 0l64 0q5.333333 0 5.333333 5.333333l0 64q0 5.333333-5.333333 5.333334l-64 0q-5.333333 0-5.333333-5.333334l0-64q0-5.333333 5.333333-5.333333Z" p-id="9955" fill="#FF6739"></path>
            <path d="M474.666667 253.813333m5.333333 0l64 0q5.333333 0 5.333333 5.333334l0 362.666666q0 5.333333-5.333333 5.333334l-64 0q-5.333333 0-5.333333-5.333334l0-362.666666q0-5.333333 5.333333-5.333334Z" p-id="9956" fill="#FF6739"></path>
          </svg>