<svg xmlns="http://www.w3.org/2000/svg" xmlns:xlink="http://www.w3.org/1999/xlink" width="26" height="26" viewBox="0 0 26 26"><defs><style>.a{fill:#bc3333;opacity:0.34;}.b{clip-path:url(#a);}.c{fill:#182f56;}</style><clipPath id="a"><rect class="a" width="26" height="26" transform="translate(420 654)"/></clipPath></defs><g class="b" transform="translate(-420 -654)"><path class="c" d="M126.515,18.388a1.2,1.2,0,0,1,.708-.765,1.593,1.593,0,0,1,.97-.08,1.21,1.21,0,0,1,.742.525,1.091,1.091,0,0,1,.046,1.027,8.159,8.159,0,0,1-.856,1.643,5.569,5.569,0,0,1-1.643,1.586,7.645,7.645,0,0,1-2.659,1.027,10.786,10.786,0,0,1-3.857-.034q-1.575-.274-2.967-.662t-2.488-.787q-1.1-.4-1.826-.719c-.487-.213-.692-.122-1.05-.342s-.514-3.206-.572-5.858a35.045,35.045,0,0,1,.6-6.148q.091-.662.194-1.358t.217-1.381q.114-.685.228-1.312t.251-1.13a3.069,3.069,0,0,1,.89-1.712,1.6,1.6,0,0,1,1.164-.422,1.469,1.469,0,0,1,.981.525,1.488,1.488,0,0,1,.365,1.13q-.046.456-.16,1.347t-.262,1.94q-.148,1.05-.308,2.134t-.3,1.906q.251-.685.593-1.575t.765-1.872q.422-.981.9-1.974t.97-1.872a13.059,13.059,0,0,1,1-1.552,4.861,4.861,0,0,1,.993-1.016A2.868,2.868,0,0,1,121.79,0a1.551,1.551,0,0,1,1.061.411,1.4,1.4,0,0,1,.411.936,1.333,1.333,0,0,1-.308.97,5.834,5.834,0,0,0-.856,1.347q-.468.936-.924,1.894-.525,1.118-1.05,2.419.822-.845,1.689-1.6.73-.662,1.621-1.324a10.2,10.2,0,0,1,1.712-1.05,3.194,3.194,0,0,1,1.5-.365,1.8,1.8,0,0,1,1.084.331.9.9,0,0,1,.354.81,1.622,1.622,0,0,1-.7,1.05q-.32.274-.765.662t-.947.833q-.5.445-1.039.936t-1.039.947q-1.187,1.1-2.488,2.26a14.276,14.276,0,0,1,3.743-.5,8.609,8.609,0,0,1,1.461.126,4.818,4.818,0,0,1,1.347.434,3.541,3.541,0,0,1,1.073.822,2.911,2.911,0,0,1,.639,1.312,3.545,3.545,0,0,1,.034,1.712,1.657,1.657,0,0,1-.593.959.863.863,0,0,1-.879.068,1.767,1.767,0,0,1-.822-.981,3.262,3.262,0,0,0-.628-1.073,1.035,1.035,0,0,0-.651-.32,1.654,1.654,0,0,0-.719.126,6.369,6.369,0,0,1-.856.262,2.576,2.576,0,0,0-.719.3,4.363,4.363,0,0,0-.765.559,4.832,4.832,0,0,0-.651.719,1.991,1.991,0,0,0-.365.787,1.137,1.137,0,0,0,.742,1.358q.776.388,1.427.651a4.9,4.9,0,0,0,1.164.331,1.633,1.633,0,0,0,.879-.091,1.06,1.06,0,0,0,.548-.639Z" transform="translate(312.943 655)"/></g></svg>