
<svg style="position:absolute; width:0; height:0; visibility:hidden" xmlns="http://www.w3.org/2000/svg" xmlns:xlink="http://www.w3.org/1999/xlink">

  <symbol id="cus-lock" width="16" height="16" viewBox="0 0 18 18">
    <svg xmlns="http://www.w3.org/2000/svg" width="18" height="18" viewBox="0 0 18 18"><defs></defs>
    <rect class="a" fill="none" width="18" height="18"/>
    <path class="b" fill="#999" d="M11.813,14.073H.563A.564.564,0,0,1,0,13.51V5.636a.564.564,0,0,1,.563-.563H2.25V3.938a3.938,3.938,0,0,1,7.875,0V5.073h1.688a.563.563,0,0,1,.562.563V13.51A.563.563,0,0,1,11.813,14.073ZM1.125,6.2v6.75H11.25V6.2ZM6.187,1.125A2.816,2.816,0,0,0,3.375,3.938V5.073H9V3.938A2.816,2.816,0,0,0,6.187,1.125ZM8.437,10.7h-4.5V9.573h4.5V10.7Z" transform="translate(2.813 1.677)"/>
    </svg>
  </symbol>

  <symbol id="cus-copy" width="16" height="16" viewBox="0 0 18 18">
    <svg xmlns="http://www.w3.org/2000/svg" width="18" height="18" viewBox="0 0 18 18">
    <g class="a">
    <rect class="b" width="18" height="18" fill="none"/>
    <rect class="c" width="18" height="18" fill="none"/>
    <path class="d" fill="currentColor" d="M11.423,13.5H.952A1.05,1.05,0,0,1,0,12.375V1.125A1.05,1.05,0,0,1,.952,0H11.423a1.05,1.05,0,0,1,.952,1.125v11.25A1.05,1.05,0,0,1,11.423,13.5ZM.952,1.125v11.25H11.423V1.125ZM8.091,6.75H2.38V5.625H8.091V6.749ZM10,3.938H2.38V2.813H10V3.936Z" transform="translate(1.688 3.375)"/>
    <path class="d" fill="currentColor" d="M14.893,13.646h-1V2.348H6.525v-1h7.867a.5.5,0,0,1,.5.5Z" transform="translate(1.605)"/></g></svg>
  </symbol>

  <symbol id="cus-install" width="18" height="18" viewBox="0 0 18 18">
   <svg xmlns="http://www.w3.org/2000/svg" xmlns:xlink="http://www.w3.org/1999/xlink" width="18" height="18" viewBox="0 0 18 18"><defs><style>.a{fill:#df3737;opacity:0.52;}.b{clip-path:url(#a);}.c{fill:var(--td-brand-color);}</style><clipPath id="a"><rect class="a" width="18" height="18" transform="translate(5969 -8509)"/></clipPath></defs><g class="b" transform="translate(-5969 8509)"><g transform="translate(5970.04 -8506.62)">
   <path class="c" fill="currentColor" d="M-.5-.5H16.123V8.768a1,1,0,0,1-1,1H.5a1,1,0,0,1-1-1ZM15.123.5H.5V8.768H15.123Z" transform="translate(0.153 3.972)"/>
   <path class="c" fill="currentColor" d="M.288,16.3l-.577-.817L3.224,13V2.926L-.291.406.291-.406,4.224,2.412V13.52Z" transform="translate(0 3.724) rotate(-90)"/></g>
   <path class="c" fill="currentColor" d="M.5,4.427h-1V0h1Z" transform="translate(5977.984 -8500.435)"/>
   <path class="c" fill="currentColor" d="M3.893,3.893H0v-1H2.893V0h1Z" transform="translate(5977.984 -8500.394) rotate(45)"/></g></svg>
  </symbol>

  <symbol id="cus-uninstall" width="18" height="18" viewBox="0 0 18 18">
    <svg xmlns="http://www.w3.org/2000/svg" width="18" height="18" viewBox="0 0 18 18"><defs>
    </defs><g transform="translate(-1878 -299.5)">
    <rect class="a" fill="none" width="18" height="18" transform="translate(1878 299.5)"/>
    <path class="b" fill="currentColor" d="M-3947.75,8737.749h-9a1.126,1.126,0,0,1-1.125-1.125v-11.249H-3959v-1.125h3.938V8722.9a.9.9,0,0,1,.9-.9h3.826a.9.9,0,0,1,.9.9v1.352h3.936v1.125h-1.125v11.249A1.127,1.127,0,0,1-3947.75,8737.749Zm-9-12.374v11.249h9v-11.249Zm2.813-2.25v1.125h3.375v-1.125Z" transform="translate(5839.25 -8421.375)"/>
    <path class="c" fill="currentColor" d="M.5-2h-1V4.428h1Z" transform="translate(1887 309.619)"/>
    <path class="c" fill="currentColor" d="M3.893,0H0V1H2.893V3.893h1Z" transform="translate(1884.247 309.253) rotate(-45)"/></g>
    </svg>
  </symbol>

   <symbol id="cus-upgrade" width="18" height="18" viewBox="0 0 18 18">
    <svg t="1673244932472" class="icon" viewBox="0 0 1024 1024" version="1.1" xmlns="http://www.w3.org/2000/svg" p-id="5141"
    width="18" height="18" xmlns:xlink="http://www.w3.org/1999/xlink">
    <path d="M728.368 829.28l36.096 52.848a446.832 446.832 0 0 1-91.536 48.096l-22.992-59.728a382.832 382.832 0 0 0 78.432-41.2z m111.36-117.056l54.592 33.424a449.76 449.76 0 0 1-63.76 81.344l-45.504-44.992a385.76 385.76 0 0 0 54.688-69.776z m53.36-152.72l63.52 7.84a445.344 445.344 0 0 1-24.464 100.48l-60-22.272a381.344 381.344 0 0 0 20.96-86.048z m47.488-178.352a446.608 446.608 0 0 1 18.496 101.76l-63.872 4.08a382.624 382.624 0 0 0-15.84-87.168l61.216-18.672zM847.856 215.52a448.992 448.992 0 0 1 59.072 84.832l-56.384 30.272a384.992 384.992 0 0 0-50.656-72.736l47.968-42.368z m-151.568-111.952a447.84 447.84 0 0 1 88.656 53.168l-39.024 50.72a383.84 383.84 0 0 0-76-45.568l26.368-58.32zM459.808 131.52l-8.928 1.312-7.072 1.2-7.312 1.392-6.96 1.44-2.96 0.672-4.96 1.168-4.928 1.216c-2.912 0.752-5.824 1.52-8.72 2.336l-8.704 2.56-2.08 0.64a382.208 382.208 0 0 0-84.992 38.56l-7.472 4.672-7.12 4.688-5.552 3.808-2.976 2.112-7.68 5.632-9.168 7.12-8.112 6.672-7.12 6.176-6.08 5.52-3.648 3.424 2.784-2.624a386.112 386.112 0 0 0-51.424 58.8l-2.56 3.648-6.112 9.12c-3.088 4.736-6.08 9.536-8.944 14.4l-1.312 2.256c-1.792 3.088-3.536 6.192-5.248 9.328l-3.712 6.976-4.912 9.856-3.232 6.88-3.136 7.072-1.792 4.192c-0.896 2.112-1.76 4.224-2.592 6.336l2.592-6.336a381.28 381.28 0 0 0-25.408 90.928l-0.8 5.632-0.72 5.648-0.88 7.984-0.672 7.76-0.64 9.648-0.448 12.24L128 512l0.112 9.152 0.032 1.744c0.8 28.512 4.704 56.256 11.392 82.88l1.568 6.032 0.992 3.68 1.472 5.12 1.536 5.056c0.8 2.576 1.616 5.152 2.48 7.712l2.144 6.256 1.504 4.192 1.824 4.912 1.904 4.88 3.216 7.84 3.104 7.184a382.128 382.128 0 0 0 43.36 73.6l5.328 6.928a386.128 386.128 0 0 0 24.96 28.72l8.688 8.752-1.6-1.568c2.496 2.464 5.024 4.88 7.568 7.28l-5.968-5.712 3.472 3.344 3.52 3.312c2.304 2.16 4.656 4.288 7.04 6.4l5.152 4.48 2.88 2.432a384.736 384.736 0 0 0 64.592 43.76l4.576 2.432 8.64 4.336 8.368 4 2.176 0.96c2.816 1.28 5.648 2.528 8.496 3.728l6.56 2.72 3.872 1.52 8.88 3.312 8.016 2.784 7.168 2.336 7.888 2.368 4.512 1.28c22.96 6.352 46.8 10.624 71.28 12.592l10.032 0.688 6.896 0.32 6.928 0.192L512 896c22.08 0 43.904-1.856 65.328-5.536l10.816 63.088c-21.44 3.68-43.184 5.792-65.152 6.32L512 960l-4.8-0.032-12.16-0.288-7.792-0.352-4.704-0.288a447.648 447.648 0 0 1-70.816-10.304l-10.8-2.608c-6.432-1.648-12.8-3.424-19.12-5.344l-9.984-3.168-9.44-3.2-10.272-3.792-9.088-3.584-10.144-4.288-8.96-4.032-9.792-4.688-4.304-2.128-4.544-2.352-5.296-2.8a448.48 448.48 0 0 1-59.568-38.432l-8.784-6.88a450.272 450.272 0 0 1-6.848-5.6l7.664 6.256a450.096 450.096 0 0 1-8.8-7.2l-7.456-6.432-3.36-2.992-7.68-7.056-7.328-7.04-5.968-6-5.6-5.824-7.2-7.792-6.688-7.6-2.912-3.408-4.16-4.992a448.32 448.32 0 0 1-56.352-87.968l-5.12-10.896a443.712 443.712 0 0 1-21.184-56.64l-3.264-11.504A448.24 448.24 0 0 1 64 512c0-11.456 0.432-22.816 1.28-34.048l1.152-12.864c0.48-4.8 1.072-9.584 1.712-14.336l1.376-9.216A444.544 444.544 0 0 1 91.024 358.4l3.776-9.92c1.312-3.36 2.672-6.72 4.08-10.032l4.032-9.328 4.288-9.264c2.88-6.08 5.92-12.096 9.088-18.064l5.808-10.56 4.752-8.16 6.16-10.048a449.76 449.76 0 0 1 62.208-77.792l3.296-3.264 4.384-4.24 7.072-6.608 4.208-3.776 8.288-7.2 3.072-2.592 7.936-6.448 5.04-3.952 7.792-5.872 9.536-6.848 7.68-5.248 3.84-2.528 5.008-3.232a446.208 446.208 0 0 1 75.712-38.464l10.88-4.112a444.88 444.88 0 0 1 59.488-17.056l10.432-2.08 9.808-1.728 11.488-1.728 10.608-1.344a452.8 452.8 0 0 1 153.92 8.944l-14.624 62.304a387.456 387.456 0 0 0-140.272-6.624z"
    fill="currentColor" p-id="5142">
    </path>
    <path d="M512 288l181.024 181.024-45.264 45.248L544 410.496 544 728h-64V410.528l-103.76 103.744-45.264-45.248 135.776-135.76L512 288z"
      fill="currentColor" p-id="5143">
    </path>
   </svg>
  </symbol>

  <symbol id="cus-retry" width="18" height="18" viewBox="0 0 18 18">
   <svg xmlns="http://www.w3.org/2000/svg" xmlns:xlink="http://www.w3.org/1999/xlink" width="18" height="18" viewBox="0 0 18 18"><defs><clipPath id="a"><rect class="a" width="18" height="18" transform="translate(1053 97)"/></clipPath></defs><g class="b" transform="translate(-1053 -97)">
   <path class="c" fill="currentColor" d="M12.941,0h1.082A7.011,7.011,0,0,1,7.031,7.03,6.979,6.979,0,0,1,1.079,3.689c-.026.012.869-.662.879-.636a5.9,5.9,0,0,0,5.073,2.9A5.929,5.929,0,0,0,12.941,0Z" transform="translate(1066.972 111.47) rotate(-135)"/>
   <path class="c" fill="currentColor" d="M1.117,13.278A5.9,5.9,0,0,1,12.1,10.225c0-.009.881-.627.879-.636A6.985,6.985,0,0,0,.036,13.278Z" transform="translate(1057.58 120.856) rotate(-135)"/>
   <path class="c" fill="currentColor" d="M2,0,4,3.2H0Z" transform="translate(1053.5 102.289)"/>
   <path class="c" fill="currentColor" d="M2,0,4,3.2H0Z" transform="translate(1070.5 110.489) rotate(180)"/></g>
   </svg>
  </symbol>

  <symbol id="cus-disable" width="18" height="18" viewBox="0 0 18 18">
   <svg xmlns="http://www.w3.org/2000/svg" width="18" height="18" viewBox="0 0 18 18"><defs>
   </defs><g transform="translate(-1783 -262.5)">
   <rect class="a" fill="none" width="18" height="18" transform="translate(1783 262.5)"/>
   <path class="b" fill="currentColor" d="M11.375,7.625V6.5H3.5V7.625Z" transform="translate(1791.735 261.247) rotate(45)"/>
   <path class="c" fill="currentColor" d="M-3951.126,8737.75a7.883,7.883,0,0,1-7.875-7.874,7.883,7.883,0,0,1,7.875-7.875,7.884,7.884,0,0,1,7.877,7.875A7.884,7.884,0,0,1-3951.126,8737.75Zm0-14.624a6.758,6.758,0,0,0-6.75,6.75,6.757,6.757,0,0,0,6.75,6.749,6.758,6.758,0,0,0,6.752-6.749A6.759,6.759,0,0,0-3951.126,8723.126Z" transform="translate(5743.125 -8458.375)"/></g>
   </svg>
  </symbol>

  <symbol id="cus-enable" width="18" height="18" viewBox="0 0 18 18">
    <svg xmlns="http://www.w3.org/2000/svg" width="18" height="18" viewBox="0 0 18 18"><g transform="translate(-1775 -501)">
    <rect class="a" fill="none" width="18" height="18" transform="translate(1775 501)"/>
    <path class="b" fill="currentColor" d="M8,16A8,8,0,0,1,8,0a8,8,0,0,1,3.061,15.392A7.967,7.967,0,0,1,8,16ZM8,1.142H8a6.861,6.861,0,1,0,2.625.522A6.873,6.873,0,0,0,8,1.143ZM6.859,11.094h0L4,8.236l.807-.807,2.05,2.049,4.334-4.334L12,5.951,6.859,11.093Z" transform="translate(1775.999 502)"/></g></svg>
  </symbol>

   <symbol id="cus-free" width="18" height="18" viewBox="0 0 18 18">
    <svg xmlns="http://www.w3.org/2000/svg" xmlns:xlink="http://www.w3.org/1999/xlink" width="18" height="18" viewBox="0 0 18 18"><defs>
      <clipPath id="a">
      <rect class="a" fill="none" stroke="currentColor" width="18" height="18" transform="translate(694 116)"/></clipPath></defs>
      <g class="b" transform="translate(-694 -116)">
      <path class="c" fill="none" stroke="currentColor" d="M60.779,55.859a.519.519,0,0,0-.52-.52h-.638a.52.52,0,0,0,0,1.039h.638A.519.519,0,0,0,60.779,55.859ZM58.2,52.834l.319-.551a.52.52,0,1,0-.9-.52l-.319.551a.521.521,0,0,0,.191.71.5.5,0,0,0,.26.069A.513.513,0,0,0,58.2,52.834Zm-1.819-.773v-.638a.52.52,0,0,0-1.039,0v.638a.52.52,0,1,0,1.039,0Zm-2.152.946a.52.52,0,0,0,.191-.71l-.319-.551a.52.52,0,1,0-.9.52l.319.551a.52.52,0,0,0,.45.26A.513.513,0,0,0,54.227,53.008Zm-1.2,1.188a.521.521,0,0,0-.191-.71l-.551-.319a.52.52,0,1,0-.52.9l.551.319a.5.5,0,0,0,.26.069A.516.516,0,0,0,53.025,54.2Zm-.443,1.628a.519.519,0,0,0-.52-.52h-.638a.52.52,0,0,0,0,1.039h.638A.519.519,0,0,0,52.581,55.824Zm-.315,2.661.551-.319a.52.52,0,1,0-.52-.9l-.551.319a.52.52,0,0,0,.26.97A.5.5,0,0,0,52.266,58.485Zm1.8,1.434.319-.551a.52.52,0,0,0-.9-.52l-.319.551a.521.521,0,0,0,.191.71.5.5,0,0,0,.26.069A.52.52,0,0,0,54.068,59.92Zm2.276.34v-.638a.52.52,0,1,0-1.039,0v.638a.52.52,0,1,0,1.039,0Zm1.951-.132a.52.52,0,0,0,.191-.71l-.319-.551a.52.52,0,0,0-.9.52l.319.551a.52.52,0,0,0,.45.26A.531.531,0,0,0,58.295,60.128Zm1.816-1.8a.521.521,0,0,0-.191-.71l-.551-.319a.52.52,0,0,0-.52.9l.551.319a.5.5,0,0,0,.26.069A.524.524,0,0,0,60.11,58.326Z" transform="translate(647.096 69.096)"/>
      <g class="d" transform="translate(696 118)">
      <rect class="e" fill="none" width="14" height="14" rx="1"/>
      <rect class="f" fill="none" stroke="currentColor" x="0.5" y="0.5" width="13" height="13" rx="0.5"/></g></g>
    </svg>
  </symbol>

  <symbol id="cus-free" width="18" height="18" viewBox="0 0 18 18">
    <svg xmlns="http://www.w3.org/2000/svg" xmlns:xlink="http://www.w3.org/1999/xlink" width="18" height="18" viewBox="0 0 18 18"><defs>
      <clipPath id="a">
      <rect class="a" fill="none" stroke="currentColor" width="18" height="18" transform="translate(694 116)"/></clipPath></defs>
      <g class="b" transform="translate(-694 -116)">
      <path class="c" fill="currentColor" d="M60.779,55.859a.519.519,0,0,0-.52-.52h-.638a.52.52,0,0,0,0,1.039h.638A.519.519,0,0,0,60.779,55.859ZM58.2,52.834l.319-.551a.52.52,0,1,0-.9-.52l-.319.551a.521.521,0,0,0,.191.71.5.5,0,0,0,.26.069A.513.513,0,0,0,58.2,52.834Zm-1.819-.773v-.638a.52.52,0,0,0-1.039,0v.638a.52.52,0,1,0,1.039,0Zm-2.152.946a.52.52,0,0,0,.191-.71l-.319-.551a.52.52,0,1,0-.9.52l.319.551a.52.52,0,0,0,.45.26A.513.513,0,0,0,54.227,53.008Zm-1.2,1.188a.521.521,0,0,0-.191-.71l-.551-.319a.52.52,0,1,0-.52.9l.551.319a.5.5,0,0,0,.26.069A.516.516,0,0,0,53.025,54.2Zm-.443,1.628a.519.519,0,0,0-.52-.52h-.638a.52.52,0,0,0,0,1.039h.638A.519.519,0,0,0,52.581,55.824Zm-.315,2.661.551-.319a.52.52,0,1,0-.52-.9l-.551.319a.52.52,0,0,0,.26.97A.5.5,0,0,0,52.266,58.485Zm1.8,1.434.319-.551a.52.52,0,0,0-.9-.52l-.319.551a.521.521,0,0,0,.191.71.5.5,0,0,0,.26.069A.52.52,0,0,0,54.068,59.92Zm2.276.34v-.638a.52.52,0,1,0-1.039,0v.638a.52.52,0,1,0,1.039,0Zm1.951-.132a.52.52,0,0,0,.191-.71l-.319-.551a.52.52,0,0,0-.9.52l.319.551a.52.52,0,0,0,.45.26A.531.531,0,0,0,58.295,60.128Zm1.816-1.8a.521.521,0,0,0-.191-.71l-.551-.319a.52.52,0,0,0-.52.9l.551.319a.5.5,0,0,0,.26.069A.524.524,0,0,0,60.11,58.326Z" transform="translate(647.096 69.096)"/>
      <g class="d" transform="translate(696 118)">
      <rect class="e" fill="none" width="14" height="14" rx="1"/>
      <rect class="f" fill="none" stroke="currentColor" x="0.5" y="0.5" width="13" height="13" rx="0.5"/></g></g>
    </svg>
 </symbol>

 <symbol id="cus-allot" width="18" height="18" viewBox="0 0 18 18">
    <svg xmlns="http://www.w3.org/2000/svg" xmlns:xlink="http://www.w3.org/1999/xlink" width="18" height="18" viewBox="0 0 18 18"><defs>
    <clipPath id="a">
    <rect class="a" fill="none" stroke="currentColor" width="18" height="18" transform="translate(736 116)"/></clipPath></defs>
    <g class="b" transform="translate(-736 -116)"><g transform="translate(1 0.315)">
    <g class="c" transform="translate(740.766 116.685)">
    <rect class="e" fill="none" width="6.468" height="6.468" rx="1"/>
    <rect class="f" fill="none" stroke="currentColor" x="0.5" y="0.5" width="5.468" height="5.468" rx="0.5"/></g><g class="c" transform="translate(736 127)">
    <rect class="e" fill="none" width="6" height="6" rx="1"/>
    <rect class="f" fill="none" stroke="currentColor" x="0.5" y="0.5" width="5" height="5" rx="0.5"/></g><g class="c" transform="translate(746 127)">
    <rect class="e" fill="none" width="6" height="6" rx="1"/>
    <rect class="f" fill="none" stroke="currentColor" x="0.5" y="0.5" width="5" height="5" rx="0.5"/></g>
    <path class="d" fill="none" stroke="currentColor" d="M-253.64-6758.174v-3.108h10.38v3.108" transform="translate(992.429 6886.021)"/>
    <line class="c" fill="none" stroke="currentColor" y2="1.848" transform="translate(743.979 122.69)"/></g></g>
    </svg>
  </symbol>

  <symbol id="cus-recover" width="16" height="16" viewBox="0 0 18 18">
    <svg xmlns="http://www.w3.org/2000/svg" width="18" height="18" viewBox="0 0 18 18" fill="none">
      <path fill="currentColor" d="M16.4713 15.2683C16.3765 15.2681 16.2836 15.2424 16.2022 15.1939C16.1208 15.1454 16.0539 15.0759 16.0086 14.9927C14.0038 11.3995 11.1866 10.9745 7.45508 10.9418V14.3175C7.45508 14.5312 7.33365 14.7243 7.143 14.8117C7.04982 14.8549 6.94597 14.8696 6.84446 14.8541C6.74294 14.8385 6.64827 14.7934 6.57228 14.7243L0.185061 9.01467C0.128606 8.96431 0.0831946 8.9028 0.0516913 8.83403C0.020188 8.76525 0.00327581 8.69069 0.00202086 8.61505C0.000765913 8.53941 0.0151955 8.46433 0.0443998 8.39455C0.0736041 8.32476 0.11695 8.26178 0.171704 8.20958L6.55771 2.09073C6.63272 2.01815 6.72772 1.96965 6.8305 1.95148C6.93328 1.9333 7.03915 1.94627 7.1345 1.98873C7.2305 2.0323 7.31185 2.10272 7.36873 2.19149C7.42561 2.28026 7.4556 2.38359 7.45508 2.48902V5.35719C9.12474 5.44219 10.6475 5.93034 11.9868 6.81192C13.1647 7.58665 14.1993 8.66252 15.0602 10.0104C16.5125 12.2811 16.9715 14.5239 16.991 14.6174C17.0165 14.7431 16.9971 14.8738 16.9361 14.9865C16.875 15.0993 16.7762 15.187 16.657 15.2343C16.5976 15.2565 16.5347 15.268 16.4713 15.2683ZM1.32893 8.59087L6.39013 13.1166V10.3941C6.39013 10.0942 6.62814 9.8501 6.92321 9.8501C9.19638 9.8501 11.0385 9.97275 12.6365 10.5665C13.4579 10.8665 14.2194 11.3101 14.8854 11.8768C14.6777 11.453 14.4361 11.0134 14.1544 10.575C12.3815 7.82465 9.95046 6.43185 6.92321 6.43185C6.85246 6.43121 6.78254 6.41663 6.71744 6.38893C6.65233 6.36123 6.59333 6.32097 6.54382 6.27043C6.4943 6.2199 6.45524 6.1601 6.42887 6.09445C6.40249 6.0288 6.38933 5.95859 6.39013 5.88784V3.74339L1.32893 8.59087Z" />
    </svg>
  </symbol>

  <symbol id="cus-recycle" width="22" height="30" viewBox="0 0 22 30">
    <svg xmlns="http://www.w3.org/2000/svg" width="22" height="30" viewBox="0 0 22 30" fill="none">
      <path d="M15.8133 0.759225C15.9121 0.759225 16.0109 0.77899 16.09 0.818521C17.098 1.37196 17.6712 2.14281 17.5724 3.38804C17.5131 4.02053 17.8491 4.35655 18.5211 4.31702C18.956 4.29725 19.4106 4.29725 19.8454 4.31702C21.0907 4.37631 21.8813 5.1867 21.9603 6.43193C21.9801 6.76794 21.9208 7.10395 21.9801 7.43997C22.0987 8.34918 21.6836 8.58637 20.8337 8.58637C14.2716 8.5666 7.70941 8.5666 1.14727 8.58637C0.29735 8.58637 -0.0188985 8.34918 0.000867042 7.43997C0.0206325 4.83092 0.633363 4.13913 3.28194 4.17866C4.23068 4.19842 4.66552 3.90194 4.58646 2.91367C4.48763 1.86609 5.23872 1.31266 6.02934 0.838287C6.11059 0.782662 6.20769 0.754917 6.30606 0.759225H15.8133ZM10.951 4.33678C12.2555 4.33678 13.5402 4.31702 14.8448 4.33678C15.5563 4.35655 15.833 4.06006 15.833 3.34851C15.833 2.63695 15.4575 2.49859 14.8448 2.49859C12.2555 2.51835 9.64643 2.51835 7.05715 2.49859C6.44442 2.49859 6.06887 2.63695 6.06887 3.34851C6.06887 4.06006 6.34559 4.35655 7.05715 4.33678C8.34191 4.31702 9.64643 4.33678 10.951 4.33678ZM20.4186 9.96995C17.2561 9.95019 14.1134 9.96995 10.951 9.96995H1.60187C0.218288 9.96995 0.0601635 10.1676 0.198522 11.5314C0.257818 12.1244 0.33688 12.7174 0.396177 13.2906C0.870549 18.0936 1.38445 22.8768 1.81929 27.6798C1.91812 28.846 2.37273 29.2413 3.55866 29.2413C8.4605 29.182 13.3623 29.2216 18.2444 29.2216C19.7861 29.2216 19.9047 29.1425 20.0628 27.6601C20.6163 22.2443 21.1697 16.8286 21.6836 11.3931C21.822 10.0885 21.7034 9.98972 20.4186 9.96995ZM4.38881 20.2283V19.7341C4.68529 19.2004 4.98177 18.6668 5.27825 18.1133C5.04107 17.9157 4.80388 17.718 4.46787 17.4215H7.19551C7.29433 17.4215 7.43269 17.5401 7.49199 17.639C7.90706 18.3703 8.30237 19.1214 8.77675 19.9911C8.44073 19.8329 8.22331 19.7341 7.98613 19.6353C7.68964 20.1294 7.41293 20.6236 7.07691 21.0979C6.95832 21.2561 6.72114 21.3944 6.54325 21.3944C5.5945 21.4142 4.80388 21.1572 4.38881 20.2283ZM9.94291 24.9522C8.9744 24.8929 8.02566 24.9127 7.11645 24.7743C6.8002 24.7348 6.44442 24.3988 6.26653 24.1023C5.73286 23.2326 5.27825 22.3036 4.82365 21.4932C5.45614 21.5921 6.06887 21.7502 6.70137 21.77C7.76871 21.8095 8.85581 21.7897 9.94291 21.7897V24.9522ZM10.7533 15.0892C10.2789 15.9589 9.76502 16.8088 9.25112 17.7378C8.34191 17.2239 7.47222 16.7495 6.52348 16.2159C6.99785 15.4252 7.45246 14.6346 7.9466 13.8835C8.18378 13.508 8.57909 13.3301 9.05346 13.3499C9.92315 13.3696 10.7731 13.3696 11.6427 13.3696C11.8009 13.3696 11.959 13.4092 12.2752 13.4289C11.4253 13.8045 11.0893 14.437 10.7533 15.0892ZM12.8682 13.6463C13.303 13.6068 13.6391 13.7649 13.8762 14.1207C14.153 14.5555 14.4494 14.9706 14.7459 15.4252C15.0226 15.3264 15.2994 15.2078 15.6947 15.0695C15.2203 15.9391 14.8052 16.7298 14.3704 17.4808C14.3309 17.5401 14.2123 17.5994 14.1332 17.5994C13.303 17.5994 12.4729 17.5797 11.6427 17.5599C11.6032 17.5599 11.5637 17.5204 11.4846 17.4808C11.702 17.3227 11.8799 17.2041 12.0974 17.046C11.8206 16.5519 11.5242 16.0577 11.2672 15.5438C11.2079 15.4252 11.1091 15.3066 11.1288 15.188C11.2277 14.5358 12.1962 13.7056 12.8682 13.6463ZM15.1808 24.3197C15.0424 24.5569 14.7262 24.7348 14.4494 24.8138C14.1134 24.9127 13.7181 24.9324 13.3623 24.9127C12.8484 24.8731 12.6903 25.1103 12.6903 25.5847C12.6903 25.6638 12.6706 25.7428 12.6706 25.8219C12.631 25.8417 12.5915 25.8614 12.5717 25.8812C12.0974 25.1499 11.6427 24.4185 11.1881 23.6674C11.1288 23.5884 11.1486 23.45 11.2079 23.3512C11.623 22.6001 12.0578 21.849 12.4927 21.1177C12.5322 21.1375 12.5717 21.1572 12.5915 21.1572C12.6903 21.8886 12.6903 21.8886 13.4612 21.849C13.5995 21.849 13.7181 21.8293 13.8565 21.849C14.2716 21.8886 14.7262 21.6909 15.0029 22.2641C15.3191 22.9361 15.6156 23.6082 15.1808 24.3197ZM17.3352 21.0584C16.8015 21.9281 16.3074 22.8373 15.8133 23.707C15.8133 22.9757 15.5168 22.3827 15.1412 21.8095C14.568 20.92 14.0344 20.0108 13.4414 19.0621C14.3111 18.5087 15.161 17.975 16.09 17.4018C16.5446 18.1726 16.9992 18.9237 17.4143 19.6748C17.6515 20.1294 17.6119 20.6038 17.3352 21.0584Z" fill="#2BA471"/>
    </svg>
  </symbol>

  <symbol id="cus-restore" width="26" height="26" viewBox="0 0 26 26">
    <svg xmlns="http://www.w3.org/2000/svg" width="26" height="26" viewBox="0 0 26 26" fill="none">
    <g clip-path="url(#clip0_394_1278)">
    <path d="M18.6285 13.6674C17.4584 13.6674 16.3145 14.0143 15.3416 14.6644C14.3686 15.3145 13.6103 16.2385 13.1625 17.3196C12.7148 18.4007 12.5976 19.5902 12.8259 20.7379C13.0542 21.8856 13.6176 22.9397 14.445 23.7672C15.2725 24.5946 16.3266 25.158 17.4743 25.3863C18.622 25.6146 19.8115 25.4974 20.8926 25.0497C21.9737 24.6019 22.8977 23.8435 23.5478 22.8706C24.1979 21.8977 24.5448 20.7538 24.5448 19.5837C24.537 18.017 23.9112 16.5167 22.8034 15.4088C21.6955 14.301 20.1952 13.6752 18.6285 13.6674ZM19.1362 22.7399C19.0092 22.7323 18.8899 22.6766 18.8026 22.584C18.7153 22.4914 18.6667 22.369 18.6667 22.2418C18.6667 22.1145 18.7153 21.9921 18.8026 21.8995C18.8899 21.8069 19.0092 21.7512 19.1362 21.7436C19.1519 21.7436 19.1659 21.7524 19.1816 21.7524C19.5815 21.7457 19.9718 21.6287 20.3094 21.4141C20.6469 21.1994 20.9185 20.8957 21.0941 20.5363C21.2698 20.177 21.3426 19.776 21.3046 19.3779C21.2666 18.9797 21.1192 18.5998 20.8787 18.2802C20.6383 17.9606 20.3141 17.7137 19.9421 17.5668C19.57 17.4199 19.1646 17.3788 18.7707 17.448C18.3767 17.5172 18.0096 17.6939 17.7098 17.9588C17.4101 18.2236 17.1894 18.5662 17.0722 18.9486L17.9237 19.1492C18.1243 19.1981 18.1662 19.3516 18.0179 19.4982L16.2138 21.2429C16.1879 21.2765 16.1529 21.302 16.113 21.3163C16.073 21.3306 16.0298 21.3331 15.9884 21.3235C15.9471 21.314 15.9094 21.2927 15.8797 21.2624C15.8501 21.232 15.8298 21.1937 15.8213 21.1522L14.9838 18.7898C14.914 18.5979 15.0222 18.4775 15.2211 18.5264L16.1091 18.7166C16.2704 18.1522 16.5859 17.6439 17.0201 17.249C17.4543 16.854 17.99 16.5879 18.5671 16.4806C19.1442 16.3734 19.7398 16.4292 20.2869 16.6418C20.8341 16.8543 21.3111 17.2153 21.6644 17.684C22.0177 18.1528 22.2332 18.7108 22.2869 19.2953C22.3405 19.8798 22.2301 20.4677 21.968 20.9929C21.7059 21.5181 21.3025 21.9599 20.8032 22.2685C20.3039 22.5771 19.7284 22.7403 19.1415 22.7399H19.1362Z" fill="#0052D9"/>
    <path fill-rule="evenodd" clip-rule="evenodd" d="M6.91473 2.98096C6.80973 3.17205 6.75 3.39154 6.75 3.62499C6.75 4.36465 7.34962 4.96427 8.08929 4.96427H17.0179C17.7575 4.96427 18.3571 4.36465 18.3571 3.62499C18.3571 3.39154 18.2974 3.17205 18.1924 2.98096H21.8772C22.4325 2.98096 22.965 3.20154 23.3576 3.59417C23.7503 3.98681 23.9708 4.51934 23.9708 5.07461V14.3879C22.955 13.3517 21.6574 12.6364 20.2389 12.3309C20.0839 12.1994 19.8873 12.1271 19.6841 12.1267H5.75429C5.52292 12.1267 5.30104 12.2187 5.13744 12.3823C4.97384 12.5459 4.88193 12.7677 4.88193 12.9991C4.88193 13.2305 4.97384 13.4524 5.13744 13.616C5.30104 13.7795 5.52292 13.8715 5.75429 13.8715H13.9544C13.3143 14.4012 12.7676 15.0346 12.3371 15.7453H5.74731C5.51594 15.7453 5.29406 15.8372 5.13046 16.0008C4.96686 16.1644 4.87495 16.3863 4.87495 16.6176C4.87495 16.849 4.96686 17.0709 5.13046 17.2345C5.29406 17.3981 5.51594 17.49 5.74731 17.49H11.5694C11.3691 18.1698 11.2675 18.8749 11.2676 19.5837C11.2668 20.7303 11.5324 21.8614 12.0435 22.8878C12.5546 23.9142 13.2971 24.8079 14.2127 25.4982H3.54722C2.99195 25.4982 2.45942 25.2777 2.06679 24.885C1.67415 24.4924 1.45357 23.9598 1.45357 23.4046V5.07461C1.45357 4.51934 1.67415 3.98681 2.06679 3.59417C2.45942 3.20154 2.99195 2.98096 3.54722 2.98096H6.91473ZM19.6771 8.50821H5.74731C5.63274 8.50819 5.51928 8.53074 5.41343 8.57457C5.30757 8.6184 5.21139 8.68266 5.13036 8.76367C5.04934 8.84467 4.98507 8.94085 4.94122 9.0467C4.89737 9.15255 4.8748 9.266 4.8748 9.38057C4.8748 9.49514 4.89737 9.60859 4.94122 9.71444C4.98507 9.82029 5.04934 9.91646 5.13036 9.99747C5.21139 10.0785 5.30757 10.1427 5.41343 10.1866C5.51928 10.2304 5.63274 10.2529 5.74731 10.2529H19.6771C19.9084 10.2529 20.1303 10.161 20.2939 9.99736C20.4574 9.83377 20.5493 9.61191 20.5493 9.38057C20.5493 9.14923 20.4574 8.92736 20.2939 8.76377C20.1303 8.60017 19.9084 8.50825 19.6771 8.50821Z" fill="#0052D9"/>
    <rect x="8.5" y="1.5" width="8" height="3" rx="1.5" fill="#0052D9"/>
    </g>
    <defs>
    <clipPath id="clip0_394_1278">
    <rect width="25" height="25" fill="white" transform="translate(0.5 0.5)"/>
    </clipPath>
    </defs>
    </svg>
  </symbol>

  <symbol id="cus-delete" width="26" height="26" viewBox="0 0 26 26">
    <svg xmlns="http://www.w3.org/2000/svg" width="26" height="26" viewBox="0 0 26 26" fill="none">
      <g clip-path="url(#clip0_394_1292)">
        <path fill-rule="evenodd" clip-rule="evenodd" d="M6.91473 2.98096C6.80973 3.17205 6.75 3.39154 6.75 3.62499C6.75 4.36465 7.34962 4.96427 8.08929 4.96427H17.0179C17.7575 4.96427 18.3571 4.36465 18.3571 3.62499C18.3571 3.39154 18.2974 3.17205 18.1924 2.98096H21.8772C22.4325 2.98096 22.965 3.20154 23.3576 3.59417C23.7503 3.98681 23.9708 4.51934 23.9708 5.07461V14.3879C22.955 13.3517 21.6574 12.6364 20.2389 12.3309C20.0839 12.1994 19.8873 12.1271 19.6841 12.1267H5.75429C5.52292 12.1267 5.30104 12.2187 5.13744 12.3823C4.97384 12.5459 4.88193 12.7677 4.88193 12.9991C4.88193 13.2305 4.97384 13.4524 5.13744 13.616C5.30104 13.7795 5.52292 13.8715 5.75429 13.8715H13.9544C13.3143 14.4012 12.7676 15.0346 12.3371 15.7453H5.74731C5.51594 15.7453 5.29406 15.8372 5.13046 16.0008C4.96686 16.1644 4.87495 16.3863 4.87495 16.6176C4.87495 16.849 4.96686 17.0709 5.13046 17.2345C5.29406 17.3981 5.51594 17.49 5.74731 17.49H11.5694C11.3691 18.1698 11.2675 18.8749 11.2676 19.5837C11.2668 20.7303 11.5324 21.8614 12.0435 22.8878C12.5546 23.9142 13.2971 24.8079 14.2127 25.4982H3.54722C2.99195 25.4982 2.45942 25.2777 2.06679 24.885C1.67415 24.4924 1.45357 23.9598 1.45357 23.4046V5.07461C1.45357 4.51934 1.67415 3.98681 2.06679 3.59417C2.45942 3.20154 2.99195 2.98096 3.54722 2.98096H6.91473ZM19.6771 8.50821H5.74731C5.63274 8.50819 5.51928 8.53074 5.41343 8.57457C5.30757 8.6184 5.21139 8.68266 5.13036 8.76367C5.04934 8.84467 4.98507 8.94085 4.94122 9.0467C4.89737 9.15254 4.8748 9.266 4.8748 9.38057C4.8748 9.49514 4.89737 9.60859 4.94122 9.71444C4.98507 9.82029 5.04934 9.91646 5.13036 9.99747C5.21139 10.0785 5.30757 10.1427 5.41343 10.1866C5.51928 10.2304 5.63274 10.2529 5.74731 10.2529H19.6771C19.9084 10.2529 20.1303 10.161 20.2939 9.99736C20.4574 9.83377 20.5493 9.61191 20.5493 9.38057C20.5493 9.14923 20.4574 8.92736 20.2939 8.76377C20.1303 8.60017 19.9084 8.50825 19.6771 8.50821Z" fill="#D54941"/>
        <rect x="8.5" y="1.5" width="8" height="3" rx="1.5" fill="#D54941"/>
        <path fill-rule="evenodd" clip-rule="evenodd" d="M18.6285 13.6674C17.4584 13.6674 16.3145 14.0143 15.3416 14.6644C14.3686 15.3145 13.6103 16.2385 13.1625 17.3196C12.7148 18.4007 12.5976 19.5902 12.8259 20.7379C13.0542 21.8856 13.6176 22.9397 14.445 23.7672C15.2725 24.5946 16.3266 25.158 17.4743 25.3863C18.622 25.6146 19.8115 25.4974 20.8926 25.0497C21.9737 24.6019 22.8977 23.8435 23.5478 22.8706C24.1979 21.8977 24.5448 20.7538 24.5448 19.5837C24.537 18.017 23.9112 16.5167 22.8034 15.4088C21.6955 14.301 20.1952 13.6752 18.6285 13.6674ZM15 22L17.6464 19.3536L15 16.7071L15.7071 16L18.3535 18.6465L21 16L21.7071 16.7071L19.0607 19.3536L21.7071 22L21 22.7071L18.3535 20.0607L15.7071 22.7071L15 22Z" fill="#D54941"/>
      </g>
      <defs>
        <clipPath id="clip0_394_1292">
          <rect width="25" height="25" fill="white" transform="translate(0.5 0.5)"/>
        </clipPath>
      </defs>
    </svg>
  </symbol>

  <symbol id="cus-clear" width="22" height="30" viewBox="0 0 22 30">
  <svg xmlns="http://www.w3.org/2000/svg" width="22" height="30" viewBox="0 0 22 30" fill="none">
      <path d="M15.8133 0.759225C15.9121 0.759225 16.0109 0.77899 16.09 0.818521C17.098 1.37196 17.6712 2.14281 17.5724 3.38804C17.5131 4.02053 17.8491 4.35655 18.5211 4.31702C18.956 4.29725 19.4106 4.29725 19.8454 4.31702C21.0907 4.37631 21.8813 5.1867 21.9603 6.43193C21.9801 6.76794 21.9208 7.10395 21.9801 7.43997C22.0987 8.34918 21.6836 8.58637 20.8337 8.58637C14.2716 8.5666 7.70941 8.5666 1.14727 8.58637C0.29735 8.58637 -0.0188985 8.34918 0.000867042 7.43997C0.0206325 4.83092 0.633363 4.13913 3.28194 4.17866C4.23068 4.19842 4.66552 3.90194 4.58646 2.91367C4.48763 1.86609 5.23872 1.31266 6.02934 0.838287C6.11059 0.782662 6.20769 0.754917 6.30606 0.759225H15.8133ZM10.951 4.33678C12.2555 4.33678 13.5402 4.31702 14.8448 4.33678C15.5563 4.35655 15.833 4.06006 15.833 3.34851C15.833 2.63695 15.4575 2.49859 14.8448 2.49859C12.2555 2.51835 9.64643 2.51835 7.05715 2.49859C6.44442 2.49859 6.06887 2.63695 6.06887 3.34851C6.06887 4.06006 6.34559 4.35655 7.05715 4.33678C8.34191 4.31702 9.64643 4.33678 10.951 4.33678ZM20.4186 9.96995C17.2561 9.95019 14.1134 9.96995 10.951 9.96995H1.60187C0.218288 9.96995 0.0601635 10.1676 0.198522 11.5314C0.257818 12.1244 0.33688 12.7174 0.396177 13.2906C0.870549 18.0936 1.38445 22.8768 1.81929 27.6798C1.91812 28.846 2.37273 29.2413 3.55866 29.2413C8.4605 29.182 13.3623 29.2216 18.2444 29.2216C19.7861 29.2216 19.9047 29.1425 20.0628 27.6601C20.6163 22.2443 21.1697 16.8286 21.6836 11.3931C21.822 10.0885 21.7034 9.98972 20.4186 9.96995ZM4.38881 20.2283V19.7341C4.68529 19.2004 4.98177 18.6668 5.27825 18.1133C5.04107 17.9157 4.80388 17.718 4.46787 17.4215H7.19551C7.29433 17.4215 7.43269 17.5401 7.49199 17.639C7.90706 18.3703 8.30237 19.1214 8.77675 19.9911C8.44073 19.8329 8.22331 19.7341 7.98613 19.6353C7.68964 20.1294 7.41293 20.6236 7.07691 21.0979C6.95832 21.2561 6.72114 21.3944 6.54325 21.3944C5.5945 21.4142 4.80388 21.1572 4.38881 20.2283ZM9.94291 24.9522C8.9744 24.8929 8.02566 24.9127 7.11645 24.7743C6.8002 24.7348 6.44442 24.3988 6.26653 24.1023C5.73286 23.2326 5.27825 22.3036 4.82365 21.4932C5.45614 21.5921 6.06887 21.7502 6.70137 21.77C7.76871 21.8095 8.85581 21.7897 9.94291 21.7897V24.9522ZM10.7533 15.0892C10.2789 15.9589 9.76502 16.8088 9.25112 17.7378C8.34191 17.2239 7.47222 16.7495 6.52348 16.2159C6.99785 15.4252 7.45246 14.6346 7.9466 13.8835C8.18378 13.508 8.57909 13.3301 9.05346 13.3499C9.92315 13.3696 10.7731 13.3696 11.6427 13.3696C11.8009 13.3696 11.959 13.4092 12.2752 13.4289C11.4253 13.8045 11.0893 14.437 10.7533 15.0892ZM12.8682 13.6463C13.303 13.6068 13.6391 13.7649 13.8762 14.1207C14.153 14.5555 14.4494 14.9706 14.7459 15.4252C15.0226 15.3264 15.2994 15.2078 15.6947 15.0695C15.2203 15.9391 14.8052 16.7298 14.3704 17.4808C14.3309 17.5401 14.2123 17.5994 14.1332 17.5994C13.303 17.5994 12.4729 17.5797 11.6427 17.5599C11.6032 17.5599 11.5637 17.5204 11.4846 17.4808C11.702 17.3227 11.8799 17.2041 12.0974 17.046C11.8206 16.5519 11.5242 16.0577 11.2672 15.5438C11.2079 15.4252 11.1091 15.3066 11.1288 15.188C11.2277 14.5358 12.1962 13.7056 12.8682 13.6463ZM15.1808 24.3197C15.0424 24.5569 14.7262 24.7348 14.4494 24.8138C14.1134 24.9127 13.7181 24.9324 13.3623 24.9127C12.8484 24.8731 12.6903 25.1103 12.6903 25.5847C12.6903 25.6638 12.6706 25.7428 12.6706 25.8219C12.631 25.8417 12.5915 25.8614 12.5717 25.8812C12.0974 25.1499 11.6427 24.4185 11.1881 23.6674C11.1288 23.5884 11.1486 23.45 11.2079 23.3512C11.623 22.6001 12.0578 21.849 12.4927 21.1177C12.5322 21.1375 12.5717 21.1572 12.5915 21.1572C12.6903 21.8886 12.6903 21.8886 13.4612 21.849C13.5995 21.849 13.7181 21.8293 13.8565 21.849C14.2716 21.8886 14.7262 21.6909 15.0029 22.2641C15.3191 22.9361 15.6156 23.6082 15.1808 24.3197ZM17.3352 21.0584C16.8015 21.9281 16.3074 22.8373 15.8133 23.707C15.8133 22.9757 15.5168 22.3827 15.1412 21.8095C14.568 20.92 14.0344 20.0108 13.4414 19.0621C14.3111 18.5087 15.161 17.975 16.09 17.4018C16.5446 18.1726 16.9992 18.9237 17.4143 19.6748C17.6515 20.1294 17.6119 20.6038 17.3352 21.0584Z" fill="#D54941"/>
    </svg>
  </symbol>

</svg>
