<svg t="1679985724653" class="icon" viewBox="0 0 1024 1024" version="1.1" xmlns="http://www.w3.org/2000/svg" p-id="11210" width="20" height="20">
                          <path d="M352.456912 832.032253c-35.434907 0-63.989249 28.554342-63.989249 63.989249 0 35.434907 28.554342 63.989249 63.989249 63.989249s63.989249-28.554342 63.989249-63.989249C416.446162 860.586595 387.891819 832.032253 352.456912 832.032253L352.456912 832.032253z" fill="#FF6739" p-id="11211"></path>
                          <path d="M800.55367 832.032253c-35.434907 0-63.989249 28.554342-63.989249 63.989249 0 35.434907 28.554342 63.989249 63.989249 63.989249s63.989249-28.554342 63.989249-63.989249C864.54292 860.586595 835.816563 832.032253 800.55367 832.032253L800.55367 832.032253z" fill="#FF6739" p-id="11212"></path>
                          <path d="M864.026877 800.037628 344.200235 800.037628c-46.099782 0-86.695112-36.466991-92.199563-83.082815l-54.356459-382.043339L166.853687 156.360826c-1.892155-15.653284-16.169326-28.382328-29.930455-28.382328L95.983874 127.978498c-17.717453 0-31.994625-14.277171-31.994625-31.994625s14.277171-31.994625 31.994625-31.994625l40.767344 0c46.615824 0 87.727196 36.466991 93.403662 83.082815l30.790526 177.86259L315.473879 708.698135c1.720141 14.793214 15.309256 27.350244 28.726356 27.350244l519.826642 0c17.717453 0 31.994625 14.277171 31.994625 31.994625S881.744331 800.037628 864.026877 800.037628z" fill="#FF6739" p-id="11213"></path>
                          <path d="M384.279523 672.05913c-16.685369 0-30.618512-12.729044-31.82261-29.586427-1.376113-17.545439 11.868974-33.026709 29.586427-34.230808l434.163615-31.994625c15.997312-0.172014 29.414413-12.55703 31.134554-26.834201l50.400134-288.295649c1.204099-10.664875-1.720141-22.533848-8.084663-29.758441-4.128339-4.644381-9.288762-7.052579-15.309256-7.052579L319.946246 224.3064c-17.717453 0-31.994625-14.277171-31.994625-31.994625S302.400806 159.973123 319.946246 159.973123l554.05745 0c24.426004 0 46.959852 10.148833 63.301193 28.554342 18.749538 21.157736 27.178229 50.744163 23.565933 81.706703l-50.400134 288.467663c-5.504452 44.895683-45.927768 81.362674-92.027549 81.362674l-431.755417 31.82261C385.82765 671.887116 384.967579 672.05913 384.279523 672.05913z" fill="#FF6739" p-id="11214"></path>
                        </svg>