<svg xmlns="http://www.w3.org/2000/svg" xmlns:xlink="http://www.w3.org/1999/xlink" width="24" height="24" viewBox="0 0 24 24"><defs><style>.a{fill:#db4343;opacity:0.45;}.b{clip-path:url(#a);}.c{fill:#8692b0;}</style><clipPath id="a"><rect class="a" width="24" height="24"/></clipPath></defs><g class="b"><path class="c" d="M1.134,77.023a2.058,2.058,0,0,1,.792.154,1.964,1.964,0,0,1,.649.429,2.114,2.114,0,0,1,.44.649,1.982,1.982,0,0,1,0,1.583,2.079,2.079,0,0,1-1.088,1.088,1.94,1.94,0,0,1-.792.165,1.993,1.993,0,0,1-.814-.165A2.079,2.079,0,0,1-.768,79.837a1.982,1.982,0,0,1,0-1.583,2.114,2.114,0,0,1,.44-.649,1.964,1.964,0,0,1,.649-.429A2.116,2.116,0,0,1,1.134,77.023Zm9.147.044a2.141,2.141,0,0,1,.8.154,1.938,1.938,0,0,1,.66.429,2.114,2.114,0,0,1,.44.649,1.982,1.982,0,0,1,0,1.583,2.113,2.113,0,0,1-.44.649,2.079,2.079,0,0,1-.66.44,2.017,2.017,0,0,1-.8.165,1.939,1.939,0,0,1-.792-.165A2.079,2.079,0,0,1,8.4,79.881a1.982,1.982,0,0,1,0-1.583,2.114,2.114,0,0,1,.44-.649,1.964,1.964,0,0,1,.649-.429A2.058,2.058,0,0,1,10.28,77.067Zm3.694-12.489a2.243,2.243,0,0,1,.956.165,1.089,1.089,0,0,1,.484.407.924.924,0,0,1,.132.517,1.722,1.722,0,0,1-.077.473q-.066.2-.286.814t-.473,1.352q-.253.737-.506,1.462T13.8,70.911a2.53,2.53,0,0,1-.715,1.22,1.66,1.66,0,0,1-1.066.341H.474l.308,1.979h11.1q1.055,0,1.055.9a1.407,1.407,0,0,1-.209.77.865.865,0,0,1-.825.308H.386a1.3,1.3,0,0,1-.737-.2,1.669,1.669,0,0,1-.495-.517,3.14,3.14,0,0,1-.319-.693,6.33,6.33,0,0,1-.187-.7q-.022-.132-.121-.638t-.242-1.264l-.319-1.693q-.176-.934-.352-1.88Q-2.8,66.623-3.33,63.9H-4.979a.89.89,0,0,1-.55-.165,1.435,1.435,0,0,1-.363-.4,1.523,1.523,0,0,1-.2-.495,2.387,2.387,0,0,1-.055-.484.964.964,0,0,1,.3-.726,1.039,1.039,0,0,1,.8-.264h2.221a1.584,1.584,0,0,1,.7.132,1.194,1.194,0,0,1,.418.33,1.3,1.3,0,0,1,.22.407q.066.209.11.363a4.951,4.951,0,0,1,.088.495q.044.319.088.649.066.4.132.836Zm-.814,1.957L-.6,66.491l.77,3.98,11.5.022Z" transform="translate(7.144 -59.367)"/></g></svg>