<svg xmlns="http://www.w3.org/2000/svg" xmlns:xlink="http://www.w3.org/1999/xlink" width="24" height="24" viewBox="0 0 24 24"><defs><style>.a{fill:#bc3333;opacity:0.34;}.b{clip-path:url(#a);}.c{fill:#182f56;}</style><clipPath id="a"><rect class="a" width="24" height="24" transform="translate(419.723 467.723)"/></clipPath></defs><g class="b" transform="translate(-419.723 -467.723)"><path class="c" d="M22.136,32.014c.6,0,1.076.66,1.087,1.461s-.486,1.461-1.076,1.461H9.225c-.59,0-1.076-.66-1.076-1.461s.486-1.461,1.076-1.461H22.136Zm4.138-3.452a1.5,1.5,0,0,1-1.514,1.46H6.6a1.5,1.5,0,0,1-1.514-1.46V15.417A1.5,1.5,0,0,1,6.6,13.957H24.776a1.5,1.5,0,0,1,1.514,1.461V28.562h-.016ZM21.14,18.121l-4.1,4.032L13.987,19.17a1.386,1.386,0,0,0-1.934,0l-.05.049a.82.82,0,0,0-.133.115l-3.035,3a1.525,1.525,0,0,0,0,2.163,1.59,1.59,0,0,0,2.2,0l2.251-2.213,2.752,2.7a1.4,1.4,0,0,0,1.134.377,1.287,1.287,0,0,0,.867-.394l5.036-4.949a1.329,1.329,0,0,0,0-1.9,1.386,1.386,0,0,0-1.934,0Z" transform="translate(415.82 454.945)"/></g></svg>