<svg id="图层_1" data-name="图层 1" xmlns="http://www.w3.org/2000/svg" viewBox="0 0 294.67 294.69"><defs><style>.cls-1{fill:#8fbe48;}.cls-2{fill:#f2b624;}</style></defs><title>esxi</title><path class="cls-1" d="M249.58,2.65H130.27c-27,0-47.72,20.69-47.72,47.53v33.1H50.38c-27,0-47.72,20.71-47.72,47.57V249.79c0,26.87,20.73,47.55,47.72,47.55H168.66c27,0,47.74-20.69,47.74-47.55V215.65h33.19c27,0,47.72-20.69,47.72-47.57V49.17c1.06-24.83-20.73-46.52-47.72-46.52h0ZM262,169.13a12.6,12.6,0,0,1-12.44,12.38H182.13v68.24a12.6,12.6,0,0,1-12.44,12.4H50.38a12.6,12.6,0,0,1-12.46-12.4V130.87a12.6,12.6,0,0,1,12.46-12.42h67.43V50.19a12.58,12.58,0,0,1,12.46-12.38H249.58A12.6,12.6,0,0,1,262,50.19V169.13h0Z" transform="translate(-2.67 -2.65)"/><path class="cls-2" d="M151,69.86v77.53H71.13V227H151V149.48h79.87V69.86H151Z" transform="translate(-2.67 -2.65)"/></svg>