<svg width="33" height="33" viewBox="0 0 33 33" xmlns="http://www.w3.org/2000/svg">
<g id="dashicons-businessman">
<path fill="rgba(255, 255, 255, 0.6)" id="Vector" d="M27.2107 27.5357L27.2092 23.5357C27.2088 22.4157 27.0484 21.2958 26.408 20.176C25.7676 19.0562 24.9672 18.0965 23.847 17.4569C22.7267 16.6573 20.3266 16.4982 19.2066 16.4986L16.6476 19.2196L17.6084 21.2992L17.6102 26.0992L16.0108 27.8598L14.4102 26.1004L14.4084 21.3004L15.5276 19.22L12.8066 16.501C11.5266 16.5014 9.1267 16.6623 8.00699 17.4627C6.88723 18.1031 6.24758 19.0634 5.60799 20.1836C4.9684 21.3038 4.80875 22.2639 4.80922 23.5439L4.81068 27.5439C4.81068 27.5439 8.97133 29.3024 16.0113 29.2998C23.0513 29.2972 27.2107 27.5357 27.2107 27.5357Z" />
<path fill="rgba(255, 255, 255, 0.6)" id="Vector_2" d="M16.0019 3.85972C12.9619 3.86083 11.2029 6.74148 11.6841 9.9413C12.1653 13.1411 13.7661 15.3805 16.0061 15.3797C18.2461 15.3789 19.8453 13.1383 20.3241 9.93813C20.8029 6.57796 19.0419 3.8586 16.0019 3.85972Z" />
</g>
</svg>
