<svg width="72" height="72" viewBox="0 0 72 72" fill="none" xmlns="http://www.w3.org/2000/svg">
<g id="Group 15">
<circle id="Ellipse 1" cx="36" cy="36" r="36" fill="#C9DAFB"/>
<path id="Vector" d="M70.875 36.0025C70.875 55.2234 55.2598 70.8079 35.9963 70.8079C16.7347 70.8079 1.125 55.2233 1.125 36.0025C1.125 21.2489 10.3175 8.64426 23.3 3.57873C27.2225 1.99798 31.5079 1.125 35.9972 1.125C40.4921 1.125 44.7738 1.99709 48.7 3.57873C61.6817 8.64426 70.875 21.249 70.875 36.0025ZM22.5924 30.9849C22.5924 36.8503 25.6008 41.9286 29.974 44.4143C31.7877 45.4453 33.8298 46.0398 35.9963 46.0398C38.0869 46.0398 40.0578 45.4837 41.8239 44.523C46.3005 42.0847 49.4058 36.9444 49.4058 30.9858C49.4058 22.6894 43.3918 15.9364 35.9964 15.9364C28.6056 15.9355 22.5924 22.6886 22.5924 30.9849ZM36.138 70.875C46.3269 70.875 56.3919 66.1288 62.3493 58.8032C61.6455 53.0245 55.033 48.1704 47.0555 45.7166C44.0426 48.4242 40.1931 50.0534 35.9954 50.0534C31.7044 50.0534 27.7765 48.3365 24.7342 45.5111C16.9741 47.7237 10.2077 52.4745 8.875 57.8823C14.7866 65.9047 25.397 70.875 36.138 70.875Z" fill="#EEF2FF"/>
</g>
</svg>
