<svg width="15" height="15" viewBox="0 0 15 15" fill="none" xmlns="http://www.w3.org/2000/svg">
<g id="&#229;&#183;&#166;&#228;&#190;&#167;&#229;&#175;&#188;&#232;&#136;&#170;&#229;&#155;&#190;&#230;&#160;&#135;" clip-path="url(#clip0_89_7685)">
<path id="Vector" d="M9.43969 8.70068C9.44017 10.0193 8.37219 11.0881 7.05356 11.0886C5.73494 11.089 4.6653 10.0211 4.66481 8.70243C4.66433 7.3838 5.73319 6.31504 7.05182 6.31455C8.37044 6.31407 9.43921 7.38206 9.43969 8.70068Z" fill="#405189"/>
<path id="Vector_2" d="M9.43969 8.70068C9.44017 10.0193 8.37219 11.0881 7.05356 11.0886C5.73494 11.089 4.6653 10.0211 4.66481 8.70243C4.66433 7.3838 5.73319 6.31504 7.05182 6.31455C8.37044 6.31407 9.43921 7.38206 9.43969 8.70068Z" fill="#666666"/>
<path id="Vector_3" d="M9.43969 8.70068C9.44017 10.0193 8.37219 11.0881 7.05356 11.0886C5.73494 11.089 4.6653 10.0211 4.66481 8.70243C4.66433 7.3838 5.73319 6.31504 7.05182 6.31455C8.37044 6.31407 9.43921 7.38206 9.43969 8.70068Z" fill="#878A99"/>
<path id="Vector_4" d="M12.9511 3.95786L10.6262 3.95871C10.3733 3.9588 10.1676 3.75325 10.1675 3.50038C10.1673 2.92288 9.69464 2.45055 9.11714 2.45076L4.98277 2.45228C4.40527 2.45249 3.93294 2.92516 3.93315 3.50266C3.93325 3.75554 3.7277 3.96124 3.47482 3.96133L1.05107 3.96222C0.473571 3.96243 0.0012445 4.4351 0.00145606 5.0126L0.00419701 12.4947C0.00440857 13.0722 0.477082 13.5446 1.05458 13.5443L12.9546 13.54C13.5321 13.5398 14.0044 13.0671 14.0042 12.4896L14.0015 5.00747C14.0012 4.42997 13.5286 3.95765 12.9511 3.95786ZM7.00399 11.9357C5.24612 11.9363 3.82022 10.5115 3.81958 8.75358C3.81893 6.9957 5.24379 5.56981 7.00166 5.56916C8.75954 5.56852 10.1854 6.99337 10.1861 8.75125C10.1867 10.5082 8.76187 11.935 7.00399 11.9357ZM11.5762 5.71624C11.4663 5.71639 11.3609 5.67289 11.2831 5.5953C11.2053 5.51772 11.1615 5.4124 11.1613 5.30251C11.1612 5.19263 11.2047 5.08719 11.2822 5.00938C11.3598 4.93157 11.4652 4.88777 11.575 4.88761C11.6849 4.88746 11.7904 4.93096 11.8682 5.00854C11.946 5.08613 11.9898 5.19145 11.9899 5.30133C11.9901 5.41122 11.9466 5.51666 11.869 5.59447C11.7914 5.67228 11.6861 5.71608 11.5762 5.71624Z" fill="#878A99"/>
</g>
<defs>
<clipPath id="clip0_89_7685">
<rect width="14" height="14" fill="white" transform="translate(0 1) rotate(-0.0209893)"/>
</clipPath>
</defs>
</svg>
