<svg width="32" height="33" viewBox="0 0 32 33" fill="none" xmlns="http://www.w3.org/2000/svg">
<g id="&#231;&#179;&#187;&#231;&#187;&#159;&#229;&#155;&#190;&#230;&#160;&#135;" clip-path="url(#clip0_2014_10741)">
<path id="location" d="M15.9997 29.8202C15.857 29.8203 15.7165 29.7856 15.5903 29.719C15.4642 29.6524 15.3562 29.556 15.2757 29.4382L7.70971 18.3242C6.68348 16.817 6.08762 15.0586 5.98622 13.238C5.88483 11.4174 6.28173 9.60367 7.13424 7.99184C7.98675 6.38002 9.26259 5.03114 10.8245 4.09032C12.3864 3.1495 14.1753 2.65234 15.9987 2.65234C17.8221 2.65234 19.611 3.1495 21.1729 4.09032C22.7348 5.03114 24.0107 6.38002 24.8632 7.99184C25.7157 9.60367 26.1126 11.4174 26.0112 13.238C25.9098 15.0586 25.3139 16.817 24.2877 18.3242L16.7237 29.4382C16.6433 29.556 16.5352 29.6524 16.4091 29.719C16.2829 29.7856 16.1424 29.8203 15.9997 29.8202ZM15.9997 4.65421C14.5407 4.65523 13.1096 5.05391 11.8603 5.8074C10.6109 6.56089 9.59058 7.64068 8.90898 8.93066C8.22738 10.2206 7.91029 11.672 7.99182 13.1287C8.07335 14.5854 8.55041 15.9923 9.37171 17.1982L16.0077 26.9462L22.6337 17.1982C23.4553 15.9919 23.9324 14.5844 24.0137 13.1272C24.095 11.67 23.7774 10.2182 23.095 8.92801C22.4127 7.63784 21.3915 6.55814 20.1413 5.80508C18.8911 5.05203 17.4592 4.65414 15.9997 4.65421ZM15.9997 17.5002C15.0108 17.5002 14.0441 17.207 13.2219 16.6576C12.3996 16.1082 11.7587 15.3273 11.3803 14.4136C11.0019 13.5 10.9029 12.4947 11.0958 11.5248C11.2887 10.5549 11.7649 9.66394 12.4642 8.96468C13.1634 8.26542 14.0543 7.78921 15.0243 7.59629C15.9942 7.40336 16.9995 7.50238 17.9131 7.88082C18.8268 8.25925 19.6076 8.90012 20.1571 9.72236C20.7065 10.5446 20.9997 11.5113 20.9997 12.5002C20.9997 13.1568 20.8704 13.807 20.6191 14.4136C20.3678 15.0203 19.9995 15.5715 19.5352 16.0357C19.0709 16.5 18.5198 16.8683 17.9131 17.1196C17.3065 17.3709 16.6563 17.5002 15.9997 17.5002ZM15.9997 9.50021C15.4064 9.50021 14.8263 9.67616 14.333 10.0058C13.8396 10.3354 13.4551 10.804 13.2281 11.3522C13.001 11.9003 12.9416 12.5035 13.0574 13.0855C13.1731 13.6674 13.4588 14.202 13.8784 14.6215C14.2979 15.0411 14.8325 15.3268 15.4144 15.4426C15.9964 15.5583 16.5996 15.4989 17.1478 15.2719C17.6959 15.0448 18.1645 14.6603 18.4941 14.1669C18.8238 13.6736 18.9997 13.0936 18.9997 12.5002C18.9992 11.7049 18.6829 10.9424 18.1203 10.3802C17.5578 9.81801 16.795 9.50021 15.9997 9.50021Z" fill="#878A99"/>
</g>
<defs>
<clipPath id="clip0_2014_10741">
<rect width="32" height="32" fill="white" transform="translate(0 0.5)"/>
</clipPath>
</defs>
</svg>
