<svg width="25" height="26" viewBox="0 0 25 26" fill="none" xmlns="http://www.w3.org/2000/svg">
<g id="&#231;&#179;&#187;&#231;&#187;&#159;&#229;&#155;&#190;&#230;&#160;&#135;" clip-path="url(#clip0_300_24317)">
<path id="wallet" d="M21.0938 20.8125H3.90625C3.49185 20.8125 3.09442 20.6479 2.8014 20.3549C2.50837 20.0618 2.34375 19.6644 2.34375 19.25V5.1875C2.34375 4.7731 2.50837 4.37567 2.8014 4.08265C3.09442 3.78962 3.49185 3.625 3.90625 3.625H16.4062C16.8207 3.625 17.2181 3.78962 17.5111 4.08265C17.8041 4.37567 17.9688 4.7731 17.9688 5.1875V7.53125H21.0938C21.5082 7.53125 21.9056 7.69587 22.1986 7.9889C22.4916 8.28192 22.6562 8.67935 22.6562 9.09375V19.25C22.6562 19.6644 22.4916 20.0618 22.1986 20.3549C21.9056 20.6479 21.5082 20.8125 21.0938 20.8125ZM3.90625 9.09375V19.25H21.0938V9.09375H3.90625ZM3.90625 5.1875V7.53125H16.4062V5.1875H3.90625Z" fill="#405189"/>
</g>
<defs>
<clipPath id="clip0_300_24317">
<rect width="25" height="25" fill="white" transform="translate(0 0.5)"/>
</clipPath>
</defs>
</svg>
