<svg width="33" height="33" viewBox="0 0 33 33" fill="none" xmlns="http://www.w3.org/2000/svg">
<g id="dashicons-cart">
<path id="Vector" d="M9.6041 21.3026L24.0041 21.2974C24.8841 21.297 25.6044 22.0168 25.6047 22.8968C25.605 23.7768 24.8853 24.497 24.0053 24.4974L8.00528 24.5032C7.12528 24.5035 6.40501 23.7838 6.40469 22.9038L6.39883 6.90381L3.19883 6.90498C2.31883 6.9053 1.59856 6.18557 1.59824 5.30557C1.59792 4.42557 2.31766 3.7053 3.19766 3.70498L7.99766 3.70322C8.87766 3.7029 9.59792 4.42264 9.59824 5.30264L9.59941 8.50264L30.3994 8.49502L24.0035 19.6974L9.60352 19.7026L9.6041 21.3026ZM8.80586 26.1029C10.1339 26.1024 11.2063 27.174 11.2067 28.502C11.2072 29.83 10.1356 30.9024 8.80762 30.9029C7.47962 30.9034 6.40723 29.8318 6.40674 28.5038C6.40625 27.1758 7.47786 26.1034 8.80586 26.1029ZM23.2059 26.0977C24.5339 26.0972 25.6063 27.1688 25.6067 28.4968C25.6072 29.8248 24.5356 30.8972 23.2076 30.8977C21.8796 30.8981 20.8072 29.8265 20.8067 28.4985C20.8063 27.1705 21.8779 26.0981 23.2059 26.0977Z" fill="rgba(255, 255, 255, 0.6)"/>
</g>
</svg>
