<svg width="33" height="32" viewBox="0 0 33 32" fill="none" xmlns="http://www.w3.org/2000/svg">
<g id="&#229;&#183;&#166;&#228;&#190;&#167;&#229;&#175;&#188;&#232;&#136;&#170;&#229;&#155;&#190;&#230;&#160;&#135;" clip-path="url(#clip0_2033_29388)">
<path id="Subtract" fill-rule="evenodd" clip-rule="evenodd" d="M4.68327 27.3169C7.62284 30.2543 11.5926 31.9286 15.7479 31.9837L16.0393 31.9835C24.4161 31.9805 31.4065 25.495 31.9862 17.1909L31.986 16.7538C32.1311 15.0055 31.4749 13.4033 30.309 12.1654C29.0702 10.8547 27.3218 10.1269 25.5007 10.1276C25.2822 10.1277 25.0637 10.1277 24.8451 10.055C23.3882 9.837 22.1494 8.59914 21.9304 7.14239C21.8575 6.92389 21.8574 6.70537 21.8573 6.48685L21.8573 6.48684C21.8566 4.6658 21.1276 2.91787 19.816 1.68004C18.5772 0.515028 16.9745 -0.0671179 15.2263 0.00636416L14.7893 0.00652426C6.33988 0.665194 -0.140418 7.80605 0.00836042 16.2556C0.066425 20.4109 1.7437 24.3794 4.68327 27.3169ZM14.7569 6.99853C15.2447 7.5198 15.5444 8.219 15.5447 8.98485C15.5453 10.5874 14.2346 11.899 12.6321 11.8996C12.025 11.8998 11.4596 11.7118 10.9915 11.3911C10.2239 10.8652 9.71771 9.9824 9.71735 8.98699C9.71676 7.38447 11.0274 6.07284 12.6299 6.07226C13.4666 6.07195 14.224 6.42906 14.7569 6.99853ZM10.7264 23.9532C10.1156 23.5728 9.72244 22.8961 9.72215 22.0985C9.7217 20.8602 10.6683 19.9129 11.9066 19.9124C12.5866 19.9122 13.1789 20.1975 13.5748 20.66C13.8998 21.0396 14.0924 21.5386 14.0927 22.0969C14.0931 23.3352 13.1465 24.2825 11.9082 24.2829C11.4676 24.2831 11.0638 24.1633 10.7264 23.9532ZM9.93042 14.4698C10.2554 14.8494 10.4481 15.3484 10.4483 15.9067C10.4488 17.145 9.50216 18.0923 8.26385 18.0927C7.8232 18.0929 7.41941 17.9731 7.08202 17.763C6.47126 17.3826 6.07809 16.7059 6.0778 15.9083C6.07734 14.67 7.02394 13.7227 8.26225 13.7222C8.94227 13.722 9.53453 14.0073 9.93042 14.4698Z" fill="rgba(255, 255, 255, 0.6)"/>
</g>
<defs>
<clipPath id="clip0_2033_29388">
<rect width="32" height="32" fill="white" transform="translate(0 0.00585938) rotate(-0.0209893)"/>
</clipPath>
</defs>
</svg>
