<svg width="32" height="32" viewBox="0 0 32 32" fill="none" xmlns="http://www.w3.org/2000/svg">
<g id="&#231;&#179;&#187;&#231;&#187;&#159;&#229;&#155;&#190;&#230;&#160;&#135;">
<path id="Vector" d="M25.9999 23.9997V4.99929C25.9999 4.7343 25.8946 4.48016 25.7072 4.29278C25.5198 4.10541 25.2657 4.00014 25.0007 4.00014H6.00029C6.00029 2.89514 6.89543 2 8.00043 2H25.9999C27.1049 2 28 2.89514 28 4.00014V21.9996C28 23.1046 27.1049 23.9997 25.9999 23.9997ZM23.9997 8.00043V25.9999C23.9997 27.1049 23.1046 28 21.9996 28H4.00014C3.46967 28 2.96093 27.7893 2.58583 27.4142C2.21073 27.0391 2 26.5303 2 25.9999V8.00043C2 6.89543 2.89514 6.00029 4.00014 6.00029H21.9996C23.1046 6.00029 23.9997 6.89543 23.9997 8.00043ZM19.9994 12.0007H6.00029C5.7353 12.0007 5.48116 12.106 5.29378 12.2934C5.10641 12.4807 5.00114 12.7349 5.00114 12.9999C5.00114 13.2648 5.10641 13.519 5.29378 13.7064C5.48116 13.8937 5.7353 13.999 6.00029 13.999H19.9994C20.2644 13.999 20.5186 13.8937 20.7059 13.7064C20.8933 13.519 20.9986 13.2648 20.9986 12.9999C20.9986 12.7349 20.8933 12.4807 20.7059 12.2934C20.5186 12.106 20.2644 12.0007 19.9994 12.0007ZM19.9994 17.9993H6.00029C5.7353 17.9993 5.48116 18.1046 5.29378 18.2919C5.10641 18.4793 5.00114 18.7334 5.00114 18.9984C5.00114 19.2634 5.10641 19.5176 5.29378 19.7049C5.48116 19.8923 5.7353 19.9976 6.00029 19.9976H19.9994C20.2644 19.9976 20.5186 19.8923 20.7059 19.7049C20.8933 19.5176 20.9986 19.2634 20.9986 18.9984C20.9986 18.7334 20.8933 18.4793 20.7059 18.2919C20.5186 18.1046 20.2644 17.9993 19.9994 17.9993Z" fill="#3577F1"/>
</g>
</svg>
