<svg width="46" height="46" viewBox="0 0 46 46" fill="none" xmlns="http://www.w3.org/2000/svg">
<g id="Frame 92" clip-path="url(#clip0_2126_826)">
<path id="Vector 1" d="M34.5958 40.5109C34.0266 35.9016 30.0967 32.3333 25.3333 32.3333H20.6667C15.9033 32.3333 11.9734 35.9016 11.4042 40.5109M34.5958 40.5109C40.2635 36.7503 44 30.3115 44 23C44 11.402 34.598 2 23 2C11.402 2 2 11.402 2 23C2 30.3115 5.73652 36.7503 11.4042 40.5109M34.5958 40.5109C31.273 42.7157 27.2865 44 23 44C18.7135 44 14.727 42.7157 11.4042 40.5109M30 18.3333C30 22.1993 26.866 25.3333 23 25.3333C19.134 25.3333 16 22.1993 16 18.3333C16 14.4673 19.134 11.3333 23 11.3333C26.866 11.3333 30 14.4673 30 18.3333Z" stroke="white" stroke-width="3" stroke-linecap="round" stroke-linejoin="round"/>
</g>
<defs>
<clipPath id="clip0_2126_826">
<rect width="46" height="46" fill="white"/>
</clipPath>
</defs>
</svg>
