<svg width="33" height="33" viewBox="0 0 33 33" fill="none" xmlns="http://www.w3.org/2000/svg">
<g id="dashicons-admin-site" clip-path="url(#clip0_2033_29395)">
<path id="Vector" d="M16 0.994139C11.7565 0.995693 7.68749 2.68289 4.68801 5.68457C1.68853 8.68626 0.00430681 12.7565 0.00586133 17C0.00741585 21.2435 1.69462 25.3125 4.6963 28.312C7.69798 31.3115 11.7683 32.9957 16.0117 32.9941C20.2552 32.9926 24.3242 31.3054 27.3237 28.3037C30.3232 25.302 32.0074 21.2317 32.0059 16.9883C32.0043 12.7448 30.3171 8.67577 27.3154 5.67629C24.3137 2.6768 20.2435 0.992584 16 0.994139V0.994139ZM22.1589 22.2363C22.1599 24.8497 20.7388 28.1035 14.9442 30.5945C15.4748 23.181 10.4618 24.0362 9.25203 21.7077C9.36178 20.7442 9.71227 19.8238 10.2712 19.0314C10.8302 18.2389 11.5796 17.5999 12.4504 17.1732C9.69139 16.701 7.11806 15.4709 5.01796 13.6204C5.10715 14.4559 5.51455 15.2273 6.15652 15.7711C4.76595 15.2475 3.56427 14.3191 2.70666 13.1057C3.55323 10.3079 5.24752 7.84186 7.55559 6.04817C9.86365 4.25448 12.6717 3.22157 15.5919 3.09207C14.0994 5.54595 12.9279 10.4353 15.5955 12.9943C12.8579 13.4397 11.1321 9.88481 9.62155 11.2898C7.61335 13.175 10.2098 15.7518 15.7036 16.7631C21.5528 17.8099 22.2112 19.5696 22.1589 22.2363ZM24.5385 15.1243C23.9689 13.1512 25.6393 11.1595 27.5409 9.54102C28.7295 11.253 29.4864 13.227 29.7472 15.2947C30.008 17.3624 29.7649 19.4626 29.0386 21.416C27.6685 18.0565 25.1793 17.293 24.5385 15.071L24.5385 15.1243Z" fill="rgba(255, 255, 255, 0.6)"/>
</g>
<defs>
<clipPath id="clip0_2033_29395">
<rect width="32" height="32" fill="white" transform="translate(0 1) rotate(-0.0209893)"/>
</clipPath>
</defs>
</svg>
