<svg width="33" height="32" viewBox="0 0 33 32" fill="none" xmlns="http://www.w3.org/2000/svg">
<g id="&#229;&#183;&#166;&#228;&#190;&#167;&#229;&#175;&#188;&#232;&#136;&#170;&#229;&#155;&#190;&#230;&#160;&#135;" clip-path="url(#clip0_1889_34110)">
<path id="Vector" d="M31.7851 15.4038L25.1664 8.78991C24.842 8.46573 24.3161 8.46592 23.9918 8.79034L22.6549 10.1282C22.3307 10.4526 22.3309 10.9786 22.6553 11.3028L25.5749 14.2203L12.272 14.2251C11.8134 14.2253 11.4418 14.5972 11.4419 15.0558L11.4426 16.9473C11.4428 17.4061 11.8147 17.7778 12.2733 17.7776L25.5698 17.7727L22.6523 20.6923C22.3282 21.0167 22.3283 21.5428 22.6528 21.8669L23.9908 23.2038C24.3152 23.528 24.8412 23.5278 25.1653 23.2034L30.4484 17.9165C30.4484 17.9163 30.4486 17.9163 30.4486 17.9163L31.7856 16.5783C32.1097 16.2538 32.1095 15.7279 31.7851 15.4038ZM20.3811 -0.0016069L2.49151 0.00494665C1.11556 0.00545071 0.000408668 1.12142 0.000912723 2.49737L0.0108099 29.5143C0.0113141 30.8905 1.12729 32.0054 2.50323 32.0049L20.3928 31.9984C21.7688 31.9979 22.8839 30.8821 22.8834 29.506L22.8821 26.0005C22.882 25.5419 22.5101 25.17 22.0513 25.1702L20.2511 25.1709C19.7925 25.171 19.4207 25.5432 19.4208 26.0017L19.4213 27.3353C19.4218 28.564 19.4218 28.564 18.1765 28.5645L4.68248 28.5694C3.43682 28.5699 3.43682 28.5701 3.43636 27.324L3.42806 4.65622C3.4276 3.407 3.42493 3.41052 4.67327 3.41006L18.1672 3.40512C19.4128 3.40466 19.4125 3.41488 19.413 4.63344L19.4135 6.00624C19.4136 6.46496 19.7858 6.83667 20.2444 6.8365L22.0445 6.83584C22.5033 6.83567 22.8749 6.46369 22.8748 6.00497L22.8735 2.48899C22.873 1.11304 21.757 -0.00211095 20.3811 -0.0016069Z" fill="rgba(255, 255, 255, 0.6)"/>
</g>
<defs>
<clipPath id="clip0_1889_34110">
<rect width="32" height="32" fill="white" transform="translate(0 0.00585938) rotate(-0.0209893)"/>
</clipPath>
</defs>
</svg>
