<svg width="16" height="16" viewBox="0 0 16 16" fill="none" xmlns="http://www.w3.org/2000/svg">
<g id="mail-1" opacity="0.9">
<g id="mail">
<path id="mail_2" d="M13.499 12.999H2.49899C2.23378 12.999 1.97942 12.8937 1.79189 12.7061C1.60435 12.5186 1.49899 12.2642 1.49899 11.999V3.99902C1.49899 3.73381 1.60435 3.47945 1.79189 3.29192C1.97942 3.10438 2.23378 2.99902 2.49899 2.99902H13.499C13.7642 2.99902 14.0186 3.10438 14.2061 3.29192C14.3936 3.47945 14.499 3.73381 14.499 3.99902V11.999C14.499 12.2642 14.3936 12.5186 14.2061 12.7061C14.0186 12.8937 13.7642 12.999 13.499 12.999ZM2.49899 4.93302V11.999H13.499V4.93302L7.99899 8.59902L2.49899 4.93302ZM2.89899 3.99902L7.99899 7.39902L13.099 3.99902H2.89899Z" fill="#878A99"/>
</g>
</g>
</svg>
