<svg width="33" height="32" viewBox="0 0 33 32" fill="none" xmlns="http://www.w3.org/2000/svg">
<g id="&#229;&#183;&#166;&#228;&#190;&#167;&#229;&#175;&#188;&#232;&#136;&#170;&#229;&#155;&#190;&#230;&#160;&#135;">
<path id="Vector" d="M30.0063 23.2737L30.0009 8.45888C30.0004 7.09262 28.8971 5.99015 27.5309 5.99065L4.46914 5.9991C3.10288 5.9996 2.0004 7.10288 2.0009 8.46914L2.00633 23.2839C2.00683 24.6502 3.11012 25.7527 4.47637 25.7522L27.5381 25.7437C28.9044 25.7432 30.0068 24.6399 30.0063 23.2737ZM27.8445 8.2786C28.3879 8.82161 28.0918 9.38139 27.7956 9.66133L21.1147 15.7872L27.5369 22.468C27.7345 22.6984 27.8663 23.0605 27.636 23.3075C27.4221 23.5709 26.9282 23.5547 26.7142 23.3901L19.5185 17.2528L15.9971 20.464L12.4897 17.2554L5.29855 23.398C5.08462 23.5627 4.5908 23.5793 4.37671 23.316C4.14617 23.0692 4.27773 22.707 4.47517 22.4765L10.8925 15.791L4.20711 9.66997C3.91071 9.39025 3.61421 8.83068 4.15722 8.28728C4.70023 7.74387 5.25999 8.00704 5.72104 8.40193L15.9957 16.6945L26.2807 8.3944C26.7415 7.99917 27.3011 7.73559 27.8445 8.2786Z" fill="rgba(255, 255, 255, 0.6)"/>
</g>
</svg>
