<svg width="44" height="44" viewBox="0 0 44 44" fill="none" xmlns="http://www.w3.org/2000/svg">
<g id="Frame 594">
<path id="Vector" d="M35.437 6.33332C35.1906 5.82406 34.6649 5.5 34.0859 5.5H4.79355C4.2095 5.5 3.67865 5.83105 3.43526 6.3484C3.1917 6.8647 3.27885 7.47237 3.6598 7.90354L14.0675 19.6902V32.9822C14.0675 33.5342 14.3886 34.0393 14.8967 34.2854L22.5883 37.9993C22.798 38.1011 23.0264 38.1503 23.2529 38.1503C23.519 38.1503 23.7853 38.0812 24.0226 37.9442C24.4585 37.6887 24.7314 37.235 24.747 36.7394L25.274 19.6908L35.2417 7.87848C35.6078 7.44423 35.6844 6.84254 35.437 6.33332ZM21.8296 34.3839L17.0554 32.0787V20.6061H22.2556L21.8296 34.3839ZM23.0497 17.7425C22.9699 17.7297 22.8967 17.6957 22.8135 17.6957H16.2473L8.04868 8.41048H30.9234L23.0497 17.7425ZM28.5274 22.3412H39.6466V24.9089H28.5274V22.3412ZM28.5274 27.9312H39.6466V30.499H28.5274V27.9312ZM28.5274 33.0666H39.6466V35.6344H28.5274V33.0666Z" fill="#495057"/>
</g>
</svg>
