<svg width="44" height="44" viewBox="0 0 44 44" fill="none" xmlns="http://www.w3.org/2000/svg">
<g id="&#231;&#179;&#187;&#231;&#187;&#159;&#229;&#155;&#190;&#230;&#160;&#135;" clip-path="url(#clip0_1930_38802)">
<path id="delete" d="M33 41.25H11C10.2707 41.25 9.57118 40.9603 9.05546 40.4445C8.53973 39.9288 8.25 39.2293 8.25 38.5V11H5.5V8.25H15.125V4.95C15.125 4.36652 15.3568 3.80695 15.7694 3.39437C16.1819 2.98179 16.7415 2.75 17.325 2.75L26.675 2.75C27.2585 2.75 27.8181 2.98179 28.2306 3.39437C28.6432 3.80695 28.875 4.36652 28.875 4.95V8.25H38.5V11H35.75V38.5C35.75 39.2293 35.4603 39.9288 34.9445 40.4445C34.4288 40.9603 33.7293 41.25 33 41.25ZM11 11V38.5H33V11H11ZM17.875 5.5V8.25H26.125V5.5H17.875ZM27.5 33H24.75V16.5H27.5V33ZM19.25 33H16.5V16.5H19.25V33Z" fill="white"/>
</g>
<defs>
<clipPath id="clip0_1930_38802">
<rect width="44" height="44" fill="white"/>
</clipPath>
</defs>
</svg>
