<svg width="44" height="44" viewBox="0 0 44 44" fill="none" xmlns="http://www.w3.org/2000/svg">
<g id="Frame">
<path id="Vector" d="M19 6H9.66667C8.2 6 7 7.2 7 8.66667V18C7 19.4667 8.2 20.6667 9.66667 20.6667H19C20.4667 20.6667 21.6667 19.4667 21.6667 18V8.66667C21.6667 7.2 20.4667 6 19 6ZM19 18H9.66667V8.66667H19V18ZM36.3333 6H27C25.5333 6 24.3333 7.2 24.3333 8.66667V18C24.3333 19.4667 25.5333 20.6667 27 20.6667H36.3333C37.8 20.6667 39 19.4667 39 18V8.66667C39 7.2 37.8 6 36.3333 6ZM36.3333 18H27V8.66667H36.3333V18ZM19 23.3333H9.66667C8.2 23.3333 7 24.5333 7 26V35.3333C7 36.8 8.2 38 9.66667 38H19C20.4667 38 21.6667 36.8 21.6667 35.3333V26C21.6667 24.5333 20.4667 23.3333 19 23.3333ZM19 35.3333H9.66667V26H19V35.3333ZM36.3333 23.3333H27C25.5333 23.3333 24.3333 24.5333 24.3333 26V35.3333C24.3333 36.8 25.5333 38 27 38H36.3333C37.8 38 39 36.8 39 35.3333V26C39 24.5333 37.8 23.3333 36.3333 23.3333ZM36.3333 35.3333H27V26H36.3333V35.3333Z" fill="#495057"/>
</g>
</svg>
