<svg width="44" height="44" viewBox="0 0 44 44" fill="none" xmlns="http://www.w3.org/2000/svg">
<g id="&#231;&#179;&#187;&#231;&#187;&#159;&#229;&#155;&#190;&#230;&#160;&#135;" clip-path="url(#clip0_1930_38816)">
<path id="books" d="M34.3751 39.985C34.0944 39.9835 33.8209 39.8962 33.5913 39.7348L22.0001 31.625L10.4143 39.7348C10.1832 39.8973 9.90761 39.9847 9.62507 39.985C9.26874 39.9829 8.92658 39.8452 8.66807 39.6C8.53426 39.4719 8.42814 39.3177 8.35624 39.1469C8.28435 38.9762 8.24821 38.7925 8.25007 38.6073V8.25C8.25007 7.52065 8.5398 6.82118 9.05552 6.30546C9.57125 5.78973 10.2707 5.5 11.0001 5.5H33.0001C33.7294 5.5 34.4289 5.78973 34.9446 6.30546C35.4603 6.82118 35.7501 7.52065 35.7501 8.25V38.6073C35.7504 38.788 35.7151 38.9671 35.6462 39.1343C35.5773 39.3014 35.476 39.4533 35.3483 39.5813C35.2206 39.7093 35.0689 39.8108 34.9019 39.8801C34.7349 39.9493 34.5559 39.985 34.3751 39.985ZM22.0001 28.2672L33.0001 35.9673V8.25H11.0001V35.9673L22.0001 28.2672Z" fill="white"/>
</g>
<defs>
<clipPath id="clip0_1930_38816">
<rect width="44" height="44" fill="white"/>
</clipPath>
</defs>
</svg>
