<svg width="20" height="20" viewBox="0 0 20 20" fill="none" xmlns="http://www.w3.org/2000/svg">
<g id="Frame">
<path id="Vector" d="M16.3672 16.3184H3.63281C2.66406 16.3184 1.875 15.5293 1.875 14.5605V5.67383C1.875 4.70508 2.66406 3.91602 3.63281 3.91602H16.3672C17.3359 3.91602 18.125 4.70508 18.125 5.67383V14.5605C18.125 15.5293 17.3359 16.3184 16.3672 16.3184ZM3.63281 5.08789C3.31055 5.08789 3.04688 5.35156 3.04688 5.67383V14.5605C3.04688 14.8828 3.31055 15.1465 3.63281 15.1465H16.3672C16.6895 15.1465 16.9531 14.8828 16.9531 14.5605V5.67383C16.9531 5.35156 16.6895 5.08789 16.3672 5.08789H3.63281ZM9.94727 11.7871C9.82422 11.7871 9.70117 11.748 9.5957 11.6699L2.39062 6.26367C2.13086 6.07031 2.08008 5.70117 2.27344 5.44336C2.4668 5.18359 2.83594 5.13281 3.09375 5.32617L10.2988 10.7324C10.5586 10.9258 10.6094 11.2949 10.416 11.5527C10.3008 11.707 10.125 11.7871 9.94727 11.7871ZM9.98047 11.7871C9.80273 11.7871 9.62695 11.707 9.51172 11.5527C9.31836 11.293 9.36914 10.9258 9.62891 10.7324L16.834 5.32617C17.0938 5.13281 17.4609 5.18359 17.6543 5.44336C17.8477 5.70313 17.7969 6.07031 17.5371 6.26367L10.332 11.6699C10.2266 11.75 10.1035 11.7871 9.98047 11.7871ZM2.52539 13.8262C2.34766 13.8262 2.17188 13.7461 2.05664 13.5918C1.86328 13.332 1.91406 12.9648 2.17383 12.7715L7.05469 9.10938C7.31445 8.91602 7.68164 8.9668 7.875 9.22656C8.06836 9.48633 8.01758 9.85352 7.75781 10.0469L2.87695 13.707C2.77148 13.7871 2.64844 13.8262 2.52539 13.8262ZM17.1895 13.7109C17.0664 13.7109 16.9434 13.6719 16.8379 13.5938L11.959 9.93164C11.6992 9.73828 11.6484 9.36914 11.8418 9.11133C12.0352 8.85156 12.4043 8.80078 12.6621 8.99414L17.541 12.6562C17.8008 12.8496 17.8516 13.2188 17.6582 13.4766C17.543 13.6309 17.3672 13.7109 17.1895 13.7109Z" fill="#F7B84B"/>
</g>
</svg>
