<svg width="36" height="36" viewBox="0 0 36 36" fill="none" xmlns="http://www.w3.org/2000/svg">
<g id="&#231;&#179;&#187;&#231;&#187;&#159;&#229;&#155;&#190;&#230;&#160;&#135;" clip-path="url(#clip0_2021_25240)">
<path id="browse-off" d="M27.3308 30.0468L24.2393 26.9576C22.2506 27.7328 20.1344 28.1289 18 28.1253C14.782 28.1156 11.63 27.2122 8.89541 25.5158C6.16087 23.8193 3.95134 21.3966 2.51325 18.5178L2.25 18.0003L2.51325 17.4828C3.84764 14.8641 5.80756 12.6152 8.21925 10.9353L5.49675 8.21282L7.0875 6.62207L28.9125 28.4471L27.3217 30.0378L27.3308 30.0468ZM9.828 12.5441C7.71646 13.9225 5.97327 15.7954 4.74975 18.0003C6.06795 20.3814 7.99222 22.3716 10.3275 23.7693C12.1401 24.8441 14.1581 25.5265 16.2509 25.7726C18.3438 26.0187 20.465 25.823 22.4775 25.1981L21.015 23.7356C19.7908 24.3778 18.3934 24.6119 17.0267 24.4036C15.6601 24.1954 14.3958 23.5556 13.4186 22.5778C12.4413 21.6001 11.8022 20.3355 11.5946 18.9687C11.3871 17.602 11.6219 16.2047 12.2648 14.9808L9.828 12.5441ZM13.9747 16.6931C13.7337 17.4353 13.7026 18.2298 13.8848 18.9886C14.0671 19.7474 14.4556 20.4411 15.0074 20.9929C15.5592 21.5447 16.2529 21.9332 17.0117 22.1155C17.7706 22.2977 18.565 22.2666 19.3072 22.0256L13.9747 16.6931ZM28.3252 24.6828L26.7322 23.0898C28.6089 21.7554 30.1615 20.016 31.275 18.0003C29.947 15.6206 28.0174 13.6312 25.6793 12.2313C23.9754 11.22 22.0885 10.5552 20.127 10.2753C18.1655 9.99536 16.168 10.1057 14.2493 10.6001L12.4493 8.80007C14.236 8.18833 16.1115 7.87588 18 7.87532C21.2165 7.88791 24.3664 8.79289 27.099 10.4895C29.8317 12.1861 32.0398 14.6079 33.4777 17.4851L33.75 18.0003L33.4868 18.5178C32.2634 20.9418 30.498 23.0514 28.3275 24.6828H28.3252ZM24.0278 20.3831L22.194 18.5471C22.2166 18.3649 22.2279 18.1816 22.2277 17.9981C22.226 16.8776 21.7799 15.8035 20.9874 15.0114C20.1948 14.2193 19.1205 13.7738 18 13.7726C17.8157 13.7714 17.6315 13.7827 17.4488 13.8063L15.6173 11.9726C16.7925 11.5096 18.0773 11.4 19.3139 11.6572C20.5506 11.9143 21.6852 12.527 22.5784 13.42C23.4717 14.313 24.0847 15.4475 24.3422 16.6841C24.5996 17.9206 24.4904 19.2055 24.0278 20.3808V20.3831Z" fill="#878A99"/>
</g>
<defs>
<clipPath id="clip0_2021_25240">
<rect width="36" height="36" fill="white"/>
</clipPath>
</defs>
</svg>
