<svg width="36" height="36" viewBox="0 0 36 36" fill="none" xmlns="http://www.w3.org/2000/svg">
<g id="&#231;&#179;&#187;&#231;&#187;&#159;&#229;&#155;&#190;&#230;&#160;&#135;" clip-path="url(#clip0_2021_25247)">
<path id="browse" d="M18 28.1246C14.782 28.1149 11.63 27.2115 8.89541 25.515C6.16087 23.8186 3.95134 21.3959 2.51325 18.5171L2.25 17.9996L2.51325 17.4821C3.94387 14.5975 6.15172 12.1697 8.88797 10.4725C11.6242 8.77527 14.7801 7.87598 18 7.87598C21.2199 7.87598 24.3758 8.77527 27.112 10.4725C29.8483 12.1697 32.0561 14.5975 33.4868 17.4821L33.75 17.9996L33.4868 18.5171C32.0501 21.397 29.8409 23.8207 27.106 25.5174C24.3712 27.214 21.2184 28.1167 18 28.1246ZM18 10.1246C15.296 10.1232 12.6416 10.8507 10.3162 12.2306C7.9851 13.6298 6.06485 15.6199 4.74975 17.9996C6.06795 20.3806 7.99222 22.3709 10.3275 23.7686C12.6496 25.1465 15.2998 25.874 18 25.8746C20.7137 25.8639 23.3752 25.1282 25.7092 23.7436C28.0431 22.3591 29.9647 20.376 31.275 17.9996C29.947 15.6198 28.0174 13.6305 25.6793 12.2306C23.3558 10.85 20.7027 10.1224 18 10.1246ZM18 24.4796C16.7183 24.48 15.4652 24.1004 14.3993 23.3886C13.3334 22.6768 12.5025 21.665 12.0117 20.4809C11.5209 19.2969 11.3922 17.9939 11.642 16.7368C11.8918 15.4796 12.5087 14.3248 13.4149 13.4183C14.3211 12.5119 15.4757 11.8945 16.7327 11.6443C17.9898 11.394 19.2928 11.5222 20.477 12.0126C21.6612 12.503 22.6734 13.3336 23.3855 14.3993C24.0976 15.4649 24.4777 16.7179 24.4777 17.9996C24.476 19.7172 23.793 21.3641 22.5786 22.5789C21.3643 23.7937 19.7177 24.4772 18 24.4796ZM18 13.7696C17.1633 13.7691 16.3452 14.0168 15.6493 14.4814C14.9534 14.9459 14.4109 15.6064 14.0904 16.3793C13.7699 17.1522 13.6858 18.0027 13.8488 18.8234C14.0117 19.6441 14.4144 20.398 15.0059 20.9898C15.5974 21.5816 16.3511 21.9847 17.1717 22.1481C17.9923 22.3115 18.8429 22.2279 19.616 21.9078C20.389 21.5877 21.0498 21.0455 21.5147 20.3499C21.9796 19.6542 22.2277 18.8363 22.2277 17.9996C22.2266 16.8785 21.7808 15.8036 20.9883 15.0106C20.1958 14.2177 19.1211 13.7714 18 13.7696Z" fill="#878A99"/>
</g>
<defs>
<clipPath id="clip0_2021_25247">
<rect width="36" height="36" fill="white"/>
</clipPath>
</defs>
</svg>
