<svg width="25" height="26" viewBox="0 0 25 26" fill="none" xmlns="http://www.w3.org/2000/svg">
<g id="&#231;&#179;&#187;&#231;&#187;&#159;&#229;&#155;&#190;&#230;&#160;&#135;" clip-path="url(#clip0_318_14757)">
<path id="control-platform" d="M12.5078 24.4765C12.2335 24.4765 11.9641 24.4043 11.7266 24.2672L3.08438 19.2828C2.86195 19.1535 2.67727 18.9681 2.5487 18.7453C2.42013 18.5224 2.35217 18.2698 2.35156 18.0125V8.04215C2.35157 7.76788 2.42377 7.49845 2.56091 7.26093C2.69805 7.0234 2.89529 6.82616 3.13281 6.68903L11.7672 1.70465C11.9898 1.5754 12.2426 1.50732 12.5 1.50732C12.7574 1.50732 13.0102 1.5754 13.2328 1.70465L21.8672 6.69059C22.1047 6.82773 22.302 7.02497 22.4391 7.26249C22.5762 7.50001 22.6484 7.76945 22.6484 8.04372V18.014C22.6478 18.2713 22.5799 18.524 22.4513 18.7468C22.3227 18.9697 22.1381 19.155 21.9156 19.2843L13.2812 24.2687C13.0459 24.404 12.7793 24.4756 12.5078 24.4765ZM21.0859 8.94528L13.2734 13.4515V22.4609L21.0859 17.9562V8.94528ZM3.91406 8.94372V17.9562L11.7266 22.4609V13.4515L3.91406 8.94372ZM12.5078 3.08434L4.69531 7.59215L12.5078 12.0984L20.3203 7.59215L12.5078 3.08434Z" fill="#3577F1"/>
</g>
<defs>
<clipPath id="clip0_318_14757">
<rect width="25" height="25" fill="white" transform="translate(0 0.5)"/>
</clipPath>
</defs>
</svg>
