<svg width="20" height="20" viewBox="0 0 20 20" fill="none" xmlns="http://www.w3.org/2000/svg">
<g id="Frame">
<path id="Vector" d="M9.81919 3.15879C10.0309 3.05433 10.2639 3 10.5 3C10.7361 3 10.9691 3.05433 11.1808 3.15879L17.81 6.42926H17.8116C18.1674 6.60397 18.4673 6.87471 18.6773 7.21088C18.8873 7.54706 18.9991 7.93527 19 8.33164V15.3397C19 16.52 18.0334 17.4647 16.8556 17.4647H4.14524C2.96738 17.4631 2 16.5192 2 15.3389V8.33083C2.00147 7.93479 2.1136 7.54703 2.32372 7.21132C2.53385 6.8756 2.83361 6.60529 3.18919 6.43088H3.19L9.81919 3.15879ZM10.3559 4.2476L3.78095 7.49298L8.38714 10.9731L9.46705 10.1336C9.73346 9.92647 10.0613 9.814 10.3988 9.814C10.7363 9.814 11.0642 9.92647 11.3306 10.1336L12.4153 10.978L17.0968 7.43226L10.6441 4.2476C10.5993 4.22547 10.55 4.21396 10.5 4.21396C10.45 4.21396 10.4007 4.22547 10.3559 4.2476ZM17.7873 8.43283L13.4078 11.7495L16.2355 13.9489C16.3009 13.9969 16.3561 14.0575 16.3977 14.1272C16.4393 14.1969 16.4665 14.2742 16.4778 14.3546C16.489 14.4349 16.484 14.5168 16.463 14.5952C16.4421 14.6736 16.4057 14.747 16.3559 14.8111C16.3061 14.8751 16.2439 14.9286 16.1731 14.9683C16.1023 15.0079 16.0243 15.033 15.9436 15.042C15.863 15.0509 15.7813 15.0437 15.7036 15.0205C15.6258 14.9974 15.5534 14.959 15.4907 14.9074L10.585 11.0921C10.5317 11.0508 10.4662 11.0283 10.3988 11.0283C10.3314 11.0283 10.2659 11.0508 10.2126 11.0921L5.3069 14.9074C5.24423 14.959 5.17186 14.9974 5.09407 15.0205C5.01627 15.0437 4.93464 15.0509 4.85398 15.042C4.77333 15.033 4.69529 15.0079 4.62449 14.9683C4.55368 14.9286 4.49155 14.8751 4.44175 14.8111C4.39196 14.747 4.35552 14.6736 4.33458 14.5952C4.31365 14.5168 4.30864 14.4349 4.31987 14.3546C4.33109 14.2742 4.35831 14.1969 4.39993 14.1272C4.44154 14.0575 4.4967 13.9969 4.56214 13.9489L7.39548 11.7446L3.21429 8.58745V15.3389C3.21429 15.8343 3.6231 16.2496 4.14524 16.2496H16.8564C17.3785 16.2496 17.7873 15.8343 17.7873 15.3389V8.43364V8.43283Z" fill="#878A99"/>
</g>
</svg>
