<svg width="36" height="34" viewBox="0 0 36 34" fill="none" xmlns="http://www.w3.org/2000/svg">
<path id="Vector" d="M19.0938 18.6018V31.4876C19.0938 31.638 18.9707 31.761 18.8203 31.761H17.1797C17.0293 31.761 16.9062 31.638 16.9062 31.4876V18.6018H2.6875V31.761C2.6875 32.9675 3.66846 33.9485 4.875 33.9485H31.125C32.335 33.9485 33.3125 32.9675 33.3125 31.761V18.6018H19.0938ZM31.125 6.60471H29.6895C29.4707 6.60471 29.3408 6.35862 29.4639 6.17746C29.9971 5.38449 30.2568 4.51291 30.2021 3.64816C30.1372 2.61593 29.6177 1.72042 28.7051 1.05734C28.0488 0.582239 27.1772 0.237024 26.2544 0.0797971C24.5796 -0.200477 22.8057 0.274622 21.2539 1.42306C20.4199 2.04171 19.6611 2.83127 18.9844 3.7883C18.5503 4.40012 17.6377 4.40012 17.2036 3.7883C16.5269 2.83127 15.7681 2.0383 14.9341 1.42306C13.3857 0.274622 11.6118 -0.203895 9.93701 0.0797971C9.01416 0.237024 8.14258 0.582239 7.48633 1.05734C6.57373 1.71701 6.0542 2.61252 5.98926 3.64816C5.93457 4.51291 6.19092 5.38449 6.72754 6.17746C6.85059 6.35862 6.72412 6.60471 6.50195 6.60471H4.875C2.4585 6.60471 0.5 8.56321 0.5 10.9797V15.3547C0.5 15.864 0.848633 16.2947 1.32031 16.4143H34.6797C35.1514 16.2947 35.5 15.864 35.5 15.3547V10.9797C35.5 8.56321 33.5415 6.60471 31.125 6.60471ZM20.0542 6.19797C21.8726 2.89963 24.1763 1.94601 25.8887 2.23654C26.0972 2.27072 27.9395 2.61593 28.0181 3.7883C28.083 4.81027 26.9551 6.16379 25.0103 6.60471H20.2935C20.085 6.60471 19.9551 6.38254 20.0542 6.19797ZM8.16992 3.7883C8.24512 2.61593 10.0874 2.27414 10.2993 2.23654C12.0151 1.94943 14.3188 2.89963 16.1338 6.19797C16.2363 6.37912 16.103 6.60471 15.8945 6.60471H11.1777C9.23633 6.16037 8.10498 4.81027 8.16992 3.7883Z" fill="#14337D"/>
</svg>
