<svg width="20" height="20" viewBox="0 0 20 20" fill="none" xmlns="http://www.w3.org/2000/svg">
<g id="&#231;&#179;&#187;&#231;&#187;&#159;&#229;&#155;&#190;&#230;&#160;&#135;">
<path id="Vector" d="M9.98841 1.26953C5.16765 1.26953 1.25964 5.17754 1.25964 9.99829C1.25964 14.8191 5.16765 18.7271 9.98841 18.7271C14.8092 18.7271 18.7172 14.8191 18.7172 9.99829C18.7172 5.17752 14.8092 1.26953 9.98841 1.26953ZM10.5619 14.3412V15.8055H9.26278V14.4551C8.38371 14.4126 7.53089 14.1424 7.03241 13.844L7.42586 12.1807C7.97713 12.5074 8.75118 12.8061 9.60361 12.8061C10.3648 12.8061 10.8766 12.4795 10.8766 11.9249C10.8766 11.385 10.4565 11.0435 9.47266 10.6881C8.06885 10.1763 7.11142 9.46581 7.11142 8.08657C7.11142 6.82143 7.92423 5.84049 9.32807 5.55649V4.20582H10.614V5.45677C11.4799 5.48517 12.0703 5.69857 12.5295 5.92569L12.1358 7.53244C11.8079 7.36184 11.1912 7.0347 10.2469 7.0347C9.39421 7.0347 9.11848 7.44694 9.11848 7.84467C9.11848 8.29996 9.57764 8.61265 10.706 9.05357C12.267 9.65041 12.8837 10.4323 12.8837 11.7259C12.8837 12.9911 12.0704 14.0714 10.5619 14.3412Z" fill="#F7B84B"/>
</g>
</svg>
