<svg width="16" height="16" viewBox="0 0 16 16" fill="none" xmlns="http://www.w3.org/2000/svg">
<g id="&#231;&#179;&#187;&#231;&#187;&#159;&#229;&#155;&#190;&#230;&#160;&#135;" clip-path="url(#clip0_318_9466)">
<path id="call" d="M10.972 13.9431C8.82226 13.7869 6.80223 12.856 5.287 11.3231C3.92543 10.1364 2.90299 8.60984 2.324 6.89906C2.11974 6.28214 2.01016 5.63782 1.999 4.98806C1.97513 4.36062 2.1429 3.74079 2.48 3.21106C2.94961 2.69042 3.55595 2.31207 4.23 2.11906C4.43724 2.04087 4.66458 2.0337 4.87633 2.09868C5.08809 2.16365 5.27228 2.29709 5.4 2.47806L7.065 4.83506C7.1983 5.02372 7.26218 5.25272 7.24577 5.48314C7.22936 5.71356 7.13369 5.93119 6.975 6.09906L6.755 6.32106L6.492 6.57506C6.43196 6.63348 6.37678 6.69669 6.327 6.76406C6.314 6.93806 6.409 7.47406 7.583 8.67706L7.867 8.94206C8.479 9.50706 8.789 9.71706 9.008 9.71706C9.09782 9.71505 9.18454 9.6838 9.255 9.62806L9.345 9.55506C9.438 9.48406 9.667 9.32406 10.223 8.94206C10.373 8.83869 10.5485 8.77827 10.7304 8.76735C10.9122 8.75642 11.0937 8.7954 11.255 8.88006L11.497 9.00906C13.056 9.84106 13.916 10.4011 13.997 10.9791L14.002 11.0571C14.0137 11.6825 13.8332 12.2964 13.485 12.8161L13.358 12.9831C13.117 13.328 12.775 13.5897 12.379 13.7321C12.0862 13.8378 11.7797 13.9008 11.469 13.9191C11.304 13.9361 11.137 13.9431 10.972 13.9431ZM4.584 3.05506C4.10054 3.19356 3.65766 3.44673 3.293 3.79306C3.07899 4.15539 2.97671 4.57284 2.999 4.99306C3.01182 5.53927 3.10585 6.08053 3.278 6.59906C3.80303 8.13837 4.72674 9.51099 5.955 10.5771C7.28874 11.9425 9.06911 12.7826 10.971 12.9441C11.104 12.9441 11.236 12.9381 11.366 12.9261L11.623 12.8941C11.7617 12.8765 11.898 12.8429 12.029 12.7941C12.2463 12.7159 12.433 12.5705 12.562 12.3791C12.8211 12.0528 12.9736 11.6549 12.999 11.2391V11.0771C12.999 11.0911 12.993 11.0961 12.984 11.0961C12.975 11.0961 12.909 11.0551 12.83 10.9961C12.78 10.9561 12.717 10.9071 12.644 10.8541C12.1259 10.4997 11.5862 10.1781 11.028 9.89106L10.79 9.76506L10.002 10.3101C9.981 10.3241 9.978 10.3241 9.978 10.3241C9.7209 10.5525 9.39267 10.685 9.049 10.6991C8.498 10.6991 7.849 10.3071 6.886 9.38706C5.805 8.28706 5.286 7.37706 5.333 6.69406C5.37952 6.35012 5.55903 6.03813 5.833 5.82506C5.939 5.72506 6.033 5.62506 6.121 5.54106L6.246 5.41106L4.584 3.05506Z" fill="#878A99"/>
</g>
<defs>
<clipPath id="clip0_318_9466">
<rect width="16" height="16" fill="white"/>
</clipPath>
</defs>
</svg>
