<svg width="32" height="33" viewBox="0 0 32 33" fill="none" xmlns="http://www.w3.org/2000/svg">
<g id="&#231;&#179;&#187;&#231;&#187;&#159;&#229;&#155;&#190;&#230;&#160;&#135;" clip-path="url(#clip0_2027_20727)">
<path id="tips" d="M20.9994 30.5002H10.9994V28.5002H20.9994V30.5002ZM18.9994 26.5002H12.9994C12.4689 26.5002 11.9602 26.2895 11.5852 25.9144C11.2101 25.5393 10.9994 25.0306 10.9994 24.5002V21.1582C10.2383 20.7237 9.54157 20.1852 8.92938 19.5582C8.00016 18.631 7.26296 17.5296 6.75996 16.3171C6.25696 15.1046 5.99805 13.8049 5.99805 12.4922C5.99805 11.1795 6.25696 9.8797 6.75996 8.66722C7.26296 7.45473 8.00016 6.35337 8.92938 5.42617C9.85355 4.49215 10.955 3.75218 12.1691 3.24972C13.3832 2.74725 14.6854 2.49242 15.9994 2.50017C18.6506 2.50335 21.1923 3.55794 23.0669 5.43261C24.9416 7.30729 25.9962 9.84898 25.9994 12.5002C26.0063 13.8134 25.7506 15.1149 25.2474 16.3279C24.7443 17.541 24.0038 18.6413 23.0694 19.5642C22.4575 20.1916 21.7608 20.7302 20.9994 21.1642V24.5002C20.9994 25.0306 20.7887 25.5393 20.4136 25.9144C20.0385 26.2895 19.5298 26.5002 18.9994 26.5002ZM15.9994 4.50017C14.9489 4.49433 13.9078 4.6987 12.9375 5.10126C11.9672 5.50381 11.0872 6.09641 10.3494 6.84417C9.60648 7.58541 9.01708 8.46591 8.61494 9.43525C8.21279 10.4046 8.00579 11.4437 8.00579 12.4932C8.00579 13.5426 8.21279 14.5818 8.61494 15.5511C9.01708 16.5204 9.60648 17.4009 10.3494 18.1422L10.3634 18.1562C10.9702 18.7712 11.6769 19.2791 12.4534 19.6582L13.0054 19.9362V24.5002H19.0054V19.9422L19.5574 19.6642C20.3338 19.2851 21.0405 18.7772 21.6474 18.1622L21.6614 18.1482C22.4079 17.4101 22.9993 16.5303 23.4008 15.5603C23.8023 14.5904 24.0058 13.5499 23.9994 12.5002C23.9994 10.3784 23.1565 8.34361 21.6562 6.84332C20.1559 5.34303 18.1211 4.50017 15.9994 4.50017Z" fill="#405189"/>
</g>
<defs>
<clipPath id="clip0_2027_20727">
<rect width="32" height="32" fill="white" transform="translate(0 0.5)"/>
</clipPath>
</defs>
</svg>
