<?xml version="1.0" standalone="no"?><!DOCTYPE svg PUBLIC "-//W3C//DTD SVG 1.1//EN" "http://www.w3.org/Graphics/SVG/1.1/DTD/svg11.dtd"><svg t="1714967438633" class="icon" viewBox="0 0 1024 1024" version="1.1" xmlns="http://www.w3.org/2000/svg" p-id="19282" width="36" height="36" xmlns:xlink="http://www.w3.org/1999/xlink"><path d="M832.01344 960H128.33344a126.016 126.016 0 0 1-107.52-61.44 138.496 138.496 0 0 1-5.632-136.064l0.448-0.896 340.096-623.168a140.8 140.8 0 0 1 248.704 0l340.032 623.168a139.072 139.072 0 0 1-5.12 136.96A126.208 126.208 0 0 1 832.01344 960z" fill="#464646" p-id="19283"></path><path d="M72.07744 791.808a75.136 75.136 0 0 0 3.2 73.216 61.76 61.76 0 0 0 53.056 30.976H832.01344a61.696 61.696 0 0 0 53.056-30.976 75.008 75.008 0 0 0 3.008-73.664l-339.84-622.208a79.488 79.488 0 0 0-136.384 0z" fill="#FADC5A" p-id="19284"></path><path d="M448.01344 320h64v320H448.01344zM480.01344 784a48.576 48.576 0 0 1-48-48.448 48 48 0 0 1 96 0 48.512 48.512 0 0 1-48 48.448z" fill="#464646" p-id="19285"></path></svg>