<?xml version="1.0" standalone="no"?><!DOCTYPE svg PUBLIC "-//W3C//DTD SVG 1.1//EN" "http://www.w3.org/Graphics/SVG/1.1/DTD/svg11.dtd"><svg t="1566267283401" class="icon" viewBox="0 0 1030 1024" version="1.1" xmlns="http://www.w3.org/2000/svg" p-id="3196" xmlns:xlink="http://www.w3.org/1999/xlink" width="201.171875" height="200"><defs><style type="text/css"></style></defs><path d="M151.174913 151.174913h171.792017L247.353702 226.788141l226.788141 219.932954v20.617104h-20.617103L226.736598 247.405245 151.12337 323.018473z" fill="#ADD43B" p-id="3197"></path><path d="M714.743444 151.174913h164.93683v164.93683L804.067046 240.498515l-226.788141 226.788141h-20.617104v-20.617103l226.788141-226.788142z" fill="#A73A8A" p-id="3198"></path><path d="M563.516988 556.661801h20.617104l219.932954 226.788141 75.613228-75.613228v164.93683h-164.93683L783.449942 804.067046l-219.932954-226.788141z" fill="#F5B52E" p-id="3199"></path><path d="M453.576282 556.661801h20.617104v20.617104l-226.788141 226.788141 68.706498 75.613228h-164.93683v-164.93683L226.788141 790.356672z" fill="#34378B" p-id="3200"></path><path d="M151.174913 371.107867L226.788141 288.639452 412.342075 474.193386H151.174913z" fill="#ADD43B" p-id="3201"></path><path d="M412.342075 556.661801l-185.553934 185.553934-75.613228-75.613228V556.661801z" fill="#34378B" p-id="3202"></path><path d="M0 522.28278l116.847435-123.702622v103.085519h323.018473l13.761917 13.761916-13.761917 13.761917H116.847435v103.085519zM625.368299 474.193386l185.553934-185.553934L886.535461 364.25268V474.193386z" fill="#A73A8A" p-id="3203"></path><path d="M879.628731 659.74732l-75.613228 82.468415-178.698747-185.553934h254.260432z" fill="#F5B52E" p-id="3204"></path><path d="M584.134092 515.427593l6.855187-13.761916h323.018473v-103.085519L1030.855187 515.427593l-116.847435 116.847436v-103.085519h-323.018473z" fill="#34378B" p-id="3205"></path><path d="M563.516988 618.513112l178.698747 185.553934-75.613228 68.706498h-103.085519z" fill="#F5B52E" p-id="3206"></path><path d="M501.665677 591.040821L515.427593 577.278905l13.761917 13.761916V907.152565h103.085519L515.427593 1024l-123.702622-123.702622h109.940706z" fill="#ADD43B" p-id="3207"></path><path d="M288.639452 804.067046L474.193386 618.513112v254.260432H364.25268z" fill="#34378B" p-id="3208"></path><path d="M563.516988 412.342075L742.215735 226.788141l-75.613228-68.706498h-103.085519z" fill="#A73A8A" p-id="3209"></path><path d="M501.665677 439.814366L515.427593 453.576282l13.761917-13.761916V123.702622h103.085519L515.427593 0 391.724971 123.702622h109.940706z" fill="#F5B52E" p-id="3210"></path><path d="M288.639452 226.788141L474.193386 412.342075V158.081643H364.25268z" fill="#ADD43B" p-id="3211"></path></svg>