<?xml version="1.0" encoding="utf-8"?>
<!-- Generator: Adobe Illustrator 19.2.0, SVG Export Plug-In . SVG Version: 6.00 Build 0)  -->
<svg version="1.1" id="图层_1" xmlns="http://www.w3.org/2000/svg" xmlns:xlink="http://www.w3.org/1999/xlink" x="0px" y="0px"
	 viewBox="0 0 200 200" style="enable-background:new 0 0 200 200;" xml:space="preserve">
<style type="text/css">
	.st0{fill:#B50010;}
</style>
<path class="st0" d="M131.1,37.6c4.3-4.3,45.1-30.1,54.4-20.8c9.3,9.3-16.4,50-20.8,54.4c-4.3,4.3-15.4,0.4-24.6-8.9
	C130.8,53,126.8,41.9,131.1,37.6L131.1,37.6z M55.4,26.6c-14.2-8-34.3-17-40.7-10.5c-6.5,6.5,2.8,27.1,10.9,41.3
	C32.8,44.8,43.1,34.2,55.4,26.6z M171.4,68c1.3,4.4,1.1,8.1-1.1,10.2c-7.9,7.9-34.2-10.5-42.7-27.4c-7-12.6-4.3-20.9,5.8-19
	c2.2-1.4,4.8-3,7.7-4.5c-11.6-6.1-24.8-9.5-38.9-9.5C55.7,17.7,18,55.4,18,102c0,46.5,37.7,84.2,84.2,84.2s84.2-37.7,84.2-84.2
	c0-15-3.9-29.1-10.8-41.3C174.1,63.4,172.7,65.8,171.4,68z"/>
</svg>
