<svg xmlns="http://www.w3.org/2000/svg" width="19" height="17" viewBox="0 0 19 17" fill="none">
  <path d="M18.4088 14.8535L10.712 1.52226H10.7109C10.615 1.16684 10.1763 0.900002 9.64903 0.900002C9.11439 0.900002 8.67466 1.17106 8.58397 1.53281L0.706795 15.1762L0.714177 15.1846C0.532801 15.3639 0.568655 15.7879 0.813301 16.1834C1.05795 16.5874 1.42808 16.812 1.66745 16.7192L1.67694 16.734H17.6201L17.6317 16.7129C17.8974 16.754 18.2243 16.5209 18.4299 16.1033C18.6682 15.6234 18.6514 15.0865 18.4088 14.8535ZM8.53336 5.71358C8.54207 5.43617 8.65838 5.17304 8.85766 4.9799C9.05694 4.78675 9.32355 4.67875 9.60105 4.67875C9.87854 4.67875 10.1452 4.78675 10.3444 4.9799C10.5437 5.17304 10.66 5.43617 10.6687 5.71358V11.2211C10.6687 11.5045 10.5562 11.7762 10.3559 11.9766C10.1555 12.177 9.88383 12.2895 9.60052 12.2895C9.31721 12.2895 9.04551 12.177 8.84518 11.9766C8.64485 11.7762 8.5323 11.5045 8.5323 11.2211V5.71358H8.53336ZM9.59947 15.3249C9.29154 15.3249 8.99624 15.2026 8.7785 14.9848C8.56077 14.767 8.43845 14.4717 8.43845 14.1637C8.43845 13.8557 8.56077 13.5604 8.7785 13.3426C8.99624 13.1248 9.29154 13.0025 9.59947 13.0025C9.90738 13.0025 10.2027 13.1248 10.4204 13.3426C10.6382 13.5604 10.7605 13.8557 10.7605 14.1637C10.7605 14.4717 10.6382 14.767 10.4204 14.9848C10.2027 15.2026 9.90738 15.3249 9.59947 15.3249Z" fill="#F06548"/>
</svg>
