<svg xmlns="http://www.w3.org/2000/svg" width="17" height="17" viewBox="0 0 17 17" fill="none">
  <path d="M15.0426 4.2237C15.1381 4.38907 15.164 4.5856 15.1145 4.77005C15.0651 4.9545 14.9445 5.11176 14.7791 5.20724L12.9085 6.28724C12.7431 6.38271 12.5466 6.40859 12.3621 6.35916C12.1777 6.30974 12.0204 6.18907 11.9249 6.0237C11.8295 5.85832 11.8036 5.66179 11.853 5.47735C11.9024 5.2929 12.0231 5.13564 12.1885 5.04016L14.0591 3.96016C14.2245 3.86468 14.421 3.83881 14.6054 3.88823C14.7899 3.93765 14.9471 4.05832 15.0426 4.2237Z" fill="#878A99"/>
  <path opacity="0.9" d="M16.1039 8.18358C16.1039 8.37453 16.028 8.55765 15.893 8.69267C15.7579 8.8277 15.5748 8.90355 15.3839 8.90355L13.2236 8.9037C13.1286 8.90433 13.0345 8.88617 12.9466 8.85027C12.8587 8.81437 12.7788 8.76144 12.7114 8.69452C12.644 8.6276 12.5906 8.54801 12.5541 8.46035C12.5176 8.37268 12.4988 8.27867 12.4988 8.18371C12.4988 8.08876 12.5176 7.99474 12.5541 7.90708C12.5906 7.81941 12.6441 7.73983 12.7114 7.67291C12.7788 7.60599 12.8587 7.55306 12.9466 7.51716C13.0345 7.48126 13.1287 7.46311 13.2236 7.46374L15.3839 7.46358C15.5748 7.46359 15.758 7.53945 15.893 7.67447C16.028 7.8095 16.1039 7.99263 16.1039 8.18358Z" fill="#878A99"/>
  <path opacity="0.8" d="M15.0427 12.1437C14.9472 12.3091 14.7899 12.4298 14.6055 12.4792C14.421 12.5286 14.2245 12.5027 14.0592 12.4073L12.1884 11.327C12.0244 11.2309 11.905 11.0737 11.8564 10.8899C11.8078 10.7061 11.8339 10.5105 11.929 10.3459C12.024 10.1812 12.1804 10.0608 12.3638 10.011C12.5473 9.96121 12.7431 9.98598 12.9084 10.08L14.7791 11.1602C14.9445 11.2557 15.0652 11.4129 15.1146 11.5974C15.164 11.7818 15.1381 11.9784 15.0427 12.1437Z" fill="#878A99"/>
  <path opacity="0.7" d="M12.1437 15.0427C12.0619 15.0899 11.9715 15.1206 11.8777 15.133C11.784 15.1453 11.6887 15.1391 11.5974 15.1146C11.5061 15.0901 11.4204 15.0479 11.3454 14.9903C11.2704 14.9328 11.2075 14.861 11.1602 14.7791L10.0802 12.9085C9.98473 12.7431 9.95886 12.5466 10.0083 12.3622C10.0577 12.1777 10.1784 12.0205 10.3437 11.925C10.5091 11.8295 10.7056 11.8036 10.8901 11.853C11.0745 11.9025 11.2318 12.0231 11.3273 12.1885L12.4073 14.0591C12.4546 14.141 12.4852 14.2314 12.4976 14.3251C12.5099 14.4189 12.5037 14.5141 12.4792 14.6055C12.4547 14.6968 12.4125 14.7824 12.355 14.8574C12.2974 14.9324 12.2256 14.9954 12.1437 15.0427Z" fill="#878A99"/>
  <path opacity="0.6" d="M8.18363 16.1037C7.99268 16.1037 7.80955 16.0278 7.67453 15.8928C7.53951 15.7578 7.46365 15.5747 7.46365 15.3837L7.4635 13.2234C7.46287 13.1285 7.48103 13.0344 7.51693 12.9464C7.55283 12.8585 7.60577 12.7786 7.67269 12.7112C7.73961 12.6439 7.81919 12.5904 7.90686 12.5539C7.99452 12.5175 8.08854 12.4987 8.18349 12.4987C8.27845 12.4987 8.37246 12.5175 8.46013 12.5539C8.54779 12.5904 8.62737 12.6439 8.69429 12.7113C8.76121 12.7786 8.81414 12.8586 8.85004 12.9465C8.88594 13.0344 8.9041 13.1285 8.90347 13.2235L8.90362 15.3837C8.90361 15.5747 8.82775 15.7578 8.69273 15.8928C8.55771 16.0278 8.37458 16.1037 8.18363 16.1037Z" fill="#878A99"/>
  <path opacity="0.5" d="M4.22365 15.0428C4.05828 14.9473 3.93762 14.79 3.88819 14.6056C3.83877 14.4211 3.86464 14.2246 3.96011 14.0592L5.04037 12.1885C5.13652 12.0245 5.29365 11.9051 5.47746 11.8565C5.66127 11.8079 5.85684 11.834 6.0215 11.9291C6.18616 12.0241 6.30653 12.1805 6.35635 12.3639C6.40617 12.5474 6.3814 12.7432 6.28743 12.9085L5.20716 14.7792C5.11169 14.9446 4.95443 15.0653 4.76999 15.1147C4.58554 15.1641 4.38902 15.1382 4.22365 15.0428Z" fill="#878A99"/>
  <path opacity="0.4" d="M1.32483 12.1437C1.27755 12.0618 1.24687 11.9714 1.23453 11.8777C1.22219 11.7839 1.22843 11.6887 1.2529 11.5973C1.27737 11.506 1.31959 11.4204 1.37715 11.3454C1.43471 11.2704 1.50648 11.2074 1.58837 11.1602L3.45898 10.0802C3.62435 9.98468 3.82088 9.9588 4.00533 10.0082C4.18978 10.0576 4.34704 10.1783 4.44252 10.3437C4.538 10.5091 4.56387 10.7056 4.51445 10.89C4.46503 11.0745 4.34436 11.2318 4.17898 11.3272L2.30837 12.4072C2.22648 12.4545 2.13609 12.4852 2.04235 12.4975C1.9486 12.5099 1.85335 12.5036 1.76202 12.4792C1.67069 12.4547 1.58507 12.4125 1.51006 12.3549C1.43505 12.2973 1.37211 12.2256 1.32483 12.1437Z" fill="#878A99"/>
  <path opacity="0.3" d="M0.263472 8.18367C0.263479 7.99272 0.339338 7.8096 0.474362 7.67458C0.609386 7.53955 0.792515 7.4637 0.983465 7.4637L3.14373 7.46355C3.23868 7.46292 3.33282 7.48108 3.42072 7.51698C3.50863 7.55288 3.58856 7.60581 3.65593 7.67273C3.72329 7.73965 3.77675 7.81924 3.81323 7.9069C3.84971 7.99457 3.8685 8.08859 3.86849 8.18354C3.86849 8.27849 3.84971 8.37251 3.81323 8.46017C3.77674 8.54784 3.72328 8.62742 3.65591 8.69434C3.58855 8.76126 3.50861 8.81419 3.42071 8.85009C3.3328 8.88599 3.23866 8.90414 3.14371 8.90351L0.983447 8.90367C0.792497 8.90366 0.609369 8.8278 0.474348 8.69278C0.339328 8.55775 0.263474 8.37462 0.263472 8.18367Z" fill="#878A99"/>
  <path opacity="0.2" d="M1.3247 4.22353C1.42018 4.05817 1.57743 3.9375 1.76188 3.88807C1.94632 3.83865 2.14284 3.86452 2.30821 3.95999L4.17898 5.04025C4.34301 5.1364 4.46234 5.29353 4.51094 5.47734C4.55954 5.66115 4.53347 5.85673 4.4384 6.02138C4.34334 6.18604 4.18701 6.30641 4.00353 6.35623C3.82004 6.40605 3.6243 6.38128 3.45901 6.28731L1.58825 5.20704C1.42288 5.11157 1.30221 4.95431 1.25279 4.76987C1.20336 4.58543 1.22923 4.3889 1.3247 4.22353Z" fill="#878A99"/>
  <path opacity="0.1" d="M4.22363 1.32481C4.389 1.22934 4.58553 1.20346 4.76998 1.25288C4.95443 1.30231 5.11169 1.42298 5.20717 1.58835L6.28717 3.45896C6.38264 3.62434 6.40852 3.82086 6.35909 4.00531C6.30967 4.18976 6.189 4.34702 6.02363 4.4425C5.85825 4.53798 5.66173 4.56385 5.47728 4.51443C5.29283 4.46501 5.13557 4.34434 5.04009 4.17897L3.96009 2.30835C3.86461 2.14298 3.83874 1.94645 3.88816 1.762C3.93759 1.57755 4.05826 1.42029 4.22363 1.32481Z" fill="#878A99"/>
  <path d="M8.1835 0.263527C8.37445 0.263534 8.55758 0.339393 8.6926 0.474417C8.82762 0.609441 8.90347 0.79257 8.90347 0.98352L8.90363 3.14378C8.90426 3.23874 8.8861 3.33287 8.8502 3.42078C8.81429 3.50868 8.76136 3.58862 8.69444 3.65598C8.62752 3.72335 8.54794 3.77681 8.46027 3.81329C8.3726 3.84977 8.27859 3.86855 8.18363 3.86855C8.08868 3.86855 7.99467 3.84977 7.907 3.81328C7.81934 3.7768 7.73975 3.72333 7.67284 3.65597C7.60592 3.5886 7.55298 3.50867 7.51708 3.42076C7.48119 3.33285 7.46303 3.23872 7.46366 3.14376L7.46351 0.983501C7.46351 0.792551 7.53937 0.609424 7.6744 0.474403C7.80942 0.339383 7.99255 0.263529 8.1835 0.263527Z" fill="#7C7F8C"/>
  <path d="M12.1438 1.32458C12.3092 1.42006 12.4299 1.57731 12.4793 1.76176C12.5287 1.9462 12.5028 2.14272 12.4074 2.3081L11.3271 4.17886C11.2309 4.34289 11.0738 4.46222 10.89 4.51082C10.7062 4.55942 10.5106 4.53335 10.346 4.43828C10.1813 4.34322 10.0609 4.18689 10.0111 4.00341C9.96129 3.81992 9.98607 3.62418 10.08 3.45889L11.1603 1.58813C11.2558 1.42276 11.413 1.30209 11.5975 1.25267C11.7819 1.20324 11.9784 1.22911 12.1438 1.32458Z" fill="#7E818F"/>
</svg>
