<svg xmlns="http://www.w3.org/2000/svg" xmlns:xlink="http://www.w3.org/1999/xlink" width="16" height="16" viewBox="0 0 16 16"><defs><style>.a{fill:#b87171;opacity:0.59;}.b{clip-path:url(#a);}.c{fill:#ed7b2f;}.d{fill:#fff;}.e,.f{stroke:none;}.f{fill:#ed7b2f;}</style><clipPath id="a"><rect class="a" width="16" height="16" transform="translate(294 497)"/></clipPath></defs><g class="b" transform="translate(-294 -497)"><g class="c" transform="translate(294 497)"><path class="e" d="M 14.27681922912598 13.50000476837158 L 1.723179578781128 13.50000476837158 C 1.463299512863159 13.50000476837158 1.334179520606995 13.32584476470947 1.290729522705078 13.2509651184082 C 1.247269511222839 13.17608547210693 1.160129547119141 12.97756481170654 1.289059519767761 12.75193500518799 L 7.565879344940186 1.767495274543762 C 7.695809364318848 1.540115237236023 7.912759304046631 1.515565276145935 7.999999523162842 1.515565276145935 C 8.087239265441895 1.515565276145935 8.304189682006836 1.540115237236023 8.43411922454834 1.767495274543762 L 14.71093940734863 12.75193500518799 C 14.83986949920654 12.97756481170654 14.75272941589355 13.17608547210693 14.70926952362061 13.2509651184082 C 14.66581916809082 13.32584476470947 14.53669929504395 13.50000476837158 14.27681922912598 13.50000476837158 Z"/><path class="f" d="M 7.999999523162842 2.015564918518066 L 1.723179817199707 12.99999523162842 L 14.27681922912598 13.0000057220459 L 7.999999523162842 2.015564918518066 M 7.999999523162842 1.015560150146484 C 8.338147163391113 1.015560150146484 8.676294326782227 1.183515548706055 8.868239402770996 1.519425392150879 L 15.14505958557129 12.50386524200439 C 15.52600955963135 13.1705150604248 15.04463958740234 13.99999523162842 14.27681922912598 13.99999523162842 L 1.723179817199707 13.99999523162842 C 0.9553594589233398 13.99999523162842 0.4739894866943359 13.1705150604248 0.8549394607543945 12.50386524200439 L 7.131759643554688 1.519425392150879 C 7.323704719543457 1.183515548706055 7.66185188293457 1.015560150146484 7.999999523162842 1.015560150146484 Z"/></g><g transform="translate(14.007 -26)"><path class="d" d="M7.75,7.7H6.5V3H7.75Z" transform="translate(280.875 525.177)"/><path class="d" d="M7.894,10v1.5h-1.5V10Z" transform="translate(280.849 523.75)"/></g></g></svg>