<svg width="16" height="17" viewBox="0 0 16 17" fill="none" xmlns="http://www.w3.org/2000/svg">
<g clip-path="url(#clip0_305_13990)">
<path d="M12.813 15C12.6647 15 12.5197 14.956 12.3963 14.8736C12.273 14.7912 12.1769 14.6741 12.1201 14.537C12.0633 14.4 12.0485 14.2492 12.0774 14.1037C12.1063 13.9582 12.1778 13.8246 12.2827 13.7197C12.3876 13.6148 12.5212 13.5434 12.6667 13.5144C12.8122 13.4855 12.963 13.5003 13.1 13.5571C13.2371 13.6139 13.3542 13.71 13.4366 13.8333C13.519 13.9567 13.563 14.1017 13.563 14.25C13.5627 14.4488 13.4836 14.6394 13.343 14.78C13.2024 14.9206 13.0118 14.9997 12.813 15ZM4.75 15C4.60166 15 4.45666 14.956 4.33332 14.8736C4.20999 14.7912 4.11386 14.6741 4.05709 14.537C4.00032 14.4 3.98547 14.2492 4.01441 14.1037C4.04335 13.9582 4.11478 13.8246 4.21967 13.7197C4.32456 13.6148 4.4582 13.5434 4.60368 13.5144C4.74917 13.4855 4.89997 13.5003 5.03701 13.5571C5.17406 13.6139 5.29119 13.71 5.3736 13.8333C5.45601 13.9567 5.5 14.1017 5.5 14.25C5.49974 14.4488 5.42063 14.6394 5.28004 14.78C5.13944 14.9206 4.94883 14.9997 4.75 15ZM14 12.5H4.754C4.56457 12.5 4.38131 12.4327 4.23682 12.3102C4.09234 12.1877 3.99602 12.0179 3.965 11.831L2.577 3.5H1V2.5H2.746C2.93543 2.50005 3.11869 2.56731 3.26318 2.68982C3.40766 2.81233 3.50398 2.98213 3.535 3.169L3.757 4.5H14.074C14.1957 4.49998 14.3157 4.52771 14.4251 4.58109C14.5344 4.63446 14.6301 4.71207 14.705 4.80801C14.7798 4.90396 14.8317 5.0157 14.8569 5.13475C14.882 5.25379 14.8797 5.377 14.85 5.495L14 8.894C13.9567 9.06707 13.8569 9.22072 13.7163 9.33052C13.5757 9.44032 13.4024 9.49997 13.224 9.5H4.59L4.924 11.5H14V12.5ZM3.923 5.5L4.423 8.5H13.068L13.818 5.5H3.923Z" fill="white"/>
</g>
<defs>
<clipPath id="clip0_305_13990">
<rect width="16" height="16" fill="white" transform="translate(0 0.5)"/>
</clipPath>
</defs>
</svg>
