<svg width="45" height="44" viewBox="0 0 45 44" fill="none" xmlns="http://www.w3.org/2000/svg">
<g id="&#231;&#179;&#187;&#231;&#187;&#159;&#230;&#147;&#141;&#228;&#189;&#156;">
<g id="Vector">
<path fill-rule="evenodd" clip-rule="evenodd" d="M1.94141 7.15151C1.94141 5.0712 3.61138 3.38477 5.67139 3.38477H38.8268C40.8868 3.38477 42.5568 5.0712 42.5568 7.15151V30.5709C42.5568 32.6512 40.8868 34.3376 38.8268 34.3376H5.67139C3.61138 34.3376 1.94141 32.6512 1.94141 30.5709V7.15151ZM6.08583 7.57004V30.1523H38.4124V7.57004H6.08583Z" fill="#212529"/>
<path fill-rule="evenodd" clip-rule="evenodd" d="M8.98693 15.9224C8.98693 14.9978 9.72914 14.2483 10.6447 14.2483H33.0246C33.9402 14.2483 34.6824 14.9978 34.6824 15.9224C34.6824 16.847 33.9402 17.5965 33.0246 17.5965H10.6447C9.72914 17.5965 8.98693 16.847 8.98693 15.9224Z" fill="#212529"/>
<path fill-rule="evenodd" clip-rule="evenodd" d="M15.2036 10.4815C16.1191 10.4815 16.8613 11.2311 16.8613 12.1557V22.2003C16.8613 23.1249 16.1191 23.8744 15.2036 23.8744C14.288 23.8744 13.5458 23.1249 13.5458 22.2003L13.5458 12.1557C13.5458 11.2311 14.288 10.4815 15.2036 10.4815Z" fill="#212529"/>
<path d="M27.2224 32.245H18.9336V37.2673H13.9602V40.6155H32.1957V37.2673H27.2224V32.245Z" fill="#212529"/>
</g>
</g>
</svg>
