<svg xmlns="http://www.w3.org/2000/svg" width="41" height="40" viewBox="0 0 41 40" fill="none">
  <path d="M30.4167 17.5833H28.3333V11.3333C28.3333 6.75 24.5833 3 20 3C15.4167 3 11.6667 6.75 11.6667 11.3333V17.5833H9.58333C8.54167 17.5833 7.5 18.625 7.5 19.6667V34.25C7.5 35.2917 8.54167 36.3333 9.58333 36.3333H30.4167C31.4583 36.3333 32.5 35.2917 32.5 34.25V19.6667C32.5 18.625 31.4583 17.5833 30.4167 17.5833ZM22.0833 32.1667H17.9167L18.75 27.5833C17.7083 27.1667 16.875 25.9167 16.875 24.875C16.875 23.2083 18.3333 21.75 20 21.75C21.6667 21.75 23.125 23.2083 23.125 24.875C23.125 26.125 22.5 27.1667 21.25 27.5833L22.0833 32.1667ZM24.1667 17.5833H15.8333V11.3333C15.8333 9.04167 17.7083 7.16667 20 7.16667C22.2917 7.16667 24.1667 9.04167 24.1667 11.3333V17.5833Z" fill="#878A99"/>
</svg>
