<svg width="45" height="44" viewBox="0 0 45 44" fill="none" xmlns="http://www.w3.org/2000/svg">
<g id="&#231;&#179;&#187;&#231;&#187;&#159;&#230;&#147;&#141;&#228;&#189;&#156;">
<g id="Vector">
<path fill-rule="evenodd" clip-rule="evenodd" d="M31.9612 10.9526C35.1219 13.5912 37.1328 17.5608 37.1328 22.0001C37.1328 29.9445 30.6926 36.3847 22.7482 36.3847C14.8038 36.3847 8.36358 29.9445 8.36358 22.0001C8.36358 17.5608 10.3745 13.5912 13.5351 10.9526L10.8254 7.70331C6.7352 11.118 4.13281 16.2551 4.13281 22.0001C4.13281 32.2811 12.4672 40.6154 22.7482 40.6154C33.0292 40.6154 41.3636 32.2811 41.3636 22.0001C41.3636 16.2551 38.7612 11.118 34.671 7.70331L31.9612 10.9526Z" fill="#212529"/>
<path fill-rule="evenodd" clip-rule="evenodd" d="M21.0559 20.3078L21.0559 1.69238L25.2867 1.69238L25.2867 20.3078H21.0559Z" fill="#212529"/>
</g>
</g>
</svg>
