<svg width="45" height="44" viewBox="0 0 45 44" fill="none" xmlns="http://www.w3.org/2000/svg">
<g id="&#231;&#179;&#187;&#231;&#187;&#159;&#230;&#147;&#141;&#228;&#189;&#156;">
<g id="Vector">
<path d="M27.6981 5.57754C28.0441 5.91042 28.0441 6.46411 27.6981 6.79698L22.1492 12.1364C21.6117 12.6537 20.7164 12.2727 20.7164 11.5267V0.847842C20.7164 0.101821 21.6117 -0.27915 22.1492 0.238122L27.6981 5.57754Z" fill="#212529"/>
<path d="M18.8116 37.2585C18.4656 36.9256 18.4656 36.372 18.8116 36.0391L24.3604 30.6997C24.898 30.1824 25.7933 30.5634 25.7933 31.3094V41.9882C25.7933 42.7342 24.898 43.1152 24.3604 42.5979L18.8116 37.2585Z" fill="#212529"/>
<path fill-rule="evenodd" clip-rule="evenodd" d="M33.4971 15.1211C35.5689 18.9173 35.6572 23.6741 33.3139 27.6788C31.1435 31.3879 27.3887 33.5944 23.4104 33.9424L21.1378 38.1829C27.3671 38.6092 33.5981 35.5702 36.9654 29.8155C40.561 23.6709 39.8581 16.1967 35.7695 10.8808L33.4971 15.1211ZM11.5666 28.1081C9.07478 24.2032 8.80678 19.0741 11.307 14.8013C13.6349 10.8231 17.7855 8.57329 22.0796 8.49145L24.2875 4.3716C17.7957 3.61419 11.1679 6.66213 7.6555 12.6646C3.9159 19.0553 4.82605 26.8843 9.35899 32.2274L11.5666 28.1081Z" fill="#212529"/>
</g>
</g>
</svg>
