<svg xmlns="http://www.w3.org/2000/svg" width="41" height="40" viewBox="0 0 41 40" fill="none">
<path fill-rule="evenodd" clip-rule="evenodd" d="M10.9308 7.36844C10.9308 6.31143 11.7877 5.45456 12.8447 5.45456H28.1557C29.2127 5.45456 30.0696 6.31143 30.0696 7.36844V11.1962H36.7681C37.8251 11.1962 38.682 12.0531 38.682 13.1101V33.2058C38.682 34.2628 37.8251 35.1196 36.7681 35.1196H4.23223C3.17523 35.1196 2.31836 34.2628 2.31836 33.2058V13.1101C2.31836 12.0531 3.17523 11.1962 4.23223 11.1962H10.9308V7.36844ZM20.5002 33.2058C26.3137 33.2058 31.0265 28.493 31.0265 22.6794C31.0265 16.8659 26.3137 12.1531 20.5002 12.1531C14.6867 12.1531 9.97386 16.8659 9.97386 22.6794C9.97386 28.493 14.6867 33.2058 20.5002 33.2058Z" fill="#878A99"/>
<path d="M26.2418 22.6794C26.2418 25.8505 23.6712 28.4211 20.5002 28.4211C17.3292 28.4211 14.7586 25.8505 14.7586 22.6794C14.7586 19.5084 17.3292 16.9378 20.5002 16.9378C23.6712 16.9378 26.2418 19.5084 26.2418 22.6794Z" fill="#878A99"/>
</svg>
