<svg xmlns="http://www.w3.org/2000/svg" width="16" height="16" viewBox="0 0 16 16" fill="none">
  <g clip-path="url(#clip0_500_5170)">
    <path d="M10.5002 15H5.50018V14H10.5002V15ZM9.50018 13H6.50018C6.23496 13 5.98061 12.8946 5.79307 12.7071C5.60553 12.5195 5.50018 12.2652 5.50018 12V10.329C5.11964 10.1117 4.77128 9.84249 4.46518 9.52896C4.00057 9.06537 3.63197 8.51468 3.38047 7.90844C3.12897 7.3022 2.99951 6.6523 2.99951 5.99596C2.99951 5.33962 3.12897 4.68973 3.38047 4.08349C3.63197 3.47725 4.00057 2.92656 4.46518 2.46296C4.92726 1.99595 5.47799 1.62597 6.08504 1.37474C6.69209 1.1235 7.34321 0.996086 8.00018 0.999964C9.32577 1.00155 10.5966 1.52885 11.534 2.46618C12.4713 3.40352 12.9986 4.67437 13.0002 5.99996C13.0036 6.6566 12.8758 7.30731 12.6242 7.91385C12.3726 8.52039 12.0024 9.07053 11.5352 9.53196C11.2293 9.84569 10.8809 10.115 10.5002 10.332V12C10.5002 12.2652 10.3948 12.5195 10.2073 12.7071C10.0197 12.8946 9.76539 13 9.50018 13ZM8.00018 1.99996C7.47493 1.99704 6.95441 2.09923 6.46925 2.30051C5.98409 2.50178 5.5441 2.79808 5.17518 3.17196C4.80373 3.54258 4.50903 3.98283 4.30796 4.4675C4.10688 4.95217 4.00338 5.47174 4.00338 5.99646C4.00338 6.52119 4.10688 7.04076 4.30796 7.52543C4.50903 8.01009 4.80373 8.45034 5.17518 8.82096L5.18218 8.82796C5.48561 9.1355 5.83894 9.38943 6.22718 9.57896L6.50318 9.71796V12H9.50318V9.72096L9.77918 9.58196C10.1674 9.39243 10.5207 9.1385 10.8242 8.83096L10.8312 8.82396C11.2044 8.45494 11.5001 8.01501 11.7009 7.53003C11.9017 7.04506 12.0034 6.52484 12.0002 5.99996C12.0002 4.9391 11.5787 3.92168 10.8286 3.17154C10.0785 2.42139 9.06104 1.99996 8.00018 1.99996Z" fill="#364574"/>
  </g>
  <defs>
    <clipPath id="clip0_500_5170">
      <rect width="16" height="16" fill="white"/>
    </clipPath>
  </defs>
</svg>
