<svg xmlns="http://www.w3.org/2000/svg" width="22" height="22" viewBox="0 0 22 22" fill="none">
  <path d="M11 22C17.0751 22 22 17.0751 22 11C22 4.92488 17.0751 0 11 0C4.92485 0 0 4.92488 0 11C0 17.0751 4.92485 22 11 22Z" fill="#DD4814"/>
  <path d="M3.51994 12.4694C4.3309 12.4694 4.98834 11.8119 4.98834 11.0009C4.98834 10.1899 4.3309 9.5325 3.51994 9.5325C2.70895 9.5325 2.05151 10.1899 2.05151 11.0009C2.05151 11.8119 2.70895 12.4694 3.51994 12.4694Z" fill="white"/>
  <path d="M7.46033 16.3074C6.15534 15.4371 5.21609 14.1172 4.82153 12.5991C5.05919 12.4057 5.25076 12.1618 5.38233 11.8851C5.51394 11.6084 5.5822 11.3059 5.5822 10.9995C5.5822 10.6931 5.51394 10.3906 5.38233 10.1139C5.25076 9.83717 5.05919 9.59326 4.82153 9.3999C5.21609 7.88177 6.15534 6.56188 7.46033 5.69159L8.5345 7.48986C7.97083 7.88535 7.51073 8.41073 7.19306 9.02164C6.87543 9.63254 6.7096 10.311 6.7096 10.9995C6.7096 11.688 6.87543 12.3664 7.19306 12.9774C7.51073 13.5883 7.97083 14.1136 8.5345 14.5091L7.46033 16.3074Z" fill="white"/>
  <path d="M14.7399 5.9914C15.5509 5.9914 16.2083 5.33396 16.2083 4.52297C16.2083 3.71197 15.5509 3.05453 14.7399 3.05453C13.9289 3.05453 13.2715 3.71197 13.2715 4.52297C13.2715 5.33396 13.9289 5.9914 14.7399 5.9914Z" fill="white"/>
  <path d="M8.17236 5.28111C9.57867 4.5864 11.1914 4.43311 12.7034 4.85036C12.7521 5.15282 12.8677 5.44062 13.0415 5.69286C13.2154 5.9451 13.4433 6.15545 13.7086 6.30864C13.9739 6.46182 14.27 6.55396 14.5754 6.5784C14.8808 6.60287 15.1878 6.55898 15.4741 6.44995C16.5914 7.55068 17.2649 9.02387 17.3663 10.589L15.2708 10.62C15.2099 9.93418 14.9848 9.2731 14.6145 8.69258C14.2442 8.11211 13.7396 7.62928 13.1434 7.28497C12.5471 6.94067 11.8767 6.74501 11.1888 6.71447C10.5009 6.68396 9.81585 6.81951 9.1914 7.10966L8.17236 5.28111Z" fill="white"/>
  <path d="M14.7399 18.9473C15.5509 18.9473 16.2083 18.2899 16.2083 17.4789C16.2083 16.6679 15.5509 16.0104 14.7399 16.0104C13.9289 16.0104 13.2715 16.6679 13.2715 17.4789C13.2715 18.2899 13.9289 18.9473 14.7399 18.9473Z" fill="white"/>
  <path d="M17.3663 11.4122C17.2648 12.9773 16.5914 14.4505 15.4741 15.5512C15.1878 15.4422 14.8808 15.3983 14.5754 15.4227C14.27 15.4472 13.9739 15.5394 13.7086 15.6925C13.4433 15.8457 13.2154 16.056 13.0415 16.3083C12.8676 16.5605 12.7521 16.8483 12.7033 17.1508C11.1913 17.5681 9.57867 17.4147 8.17236 16.7201L9.19297 14.8915C9.81737 15.1817 10.5025 15.3172 11.1904 15.2867C11.8782 15.2562 12.5486 15.0605 13.1449 14.7162C13.7412 14.3719 14.2458 13.8891 14.6161 13.3086C14.9864 12.7281 15.2115 12.067 15.2723 11.3811L17.3663 11.4122Z" fill="white"/>
</svg>
