<?xml version="1.0" encoding="utf-8"?>
<!-- Generator: Adobe Illustrator 19.2.0, SVG Export Plug-In . SVG Version: 6.00 Build 0)  -->
<svg version="1.1" id="图层_1" xmlns="http://www.w3.org/2000/svg" xmlns:xlink="http://www.w3.org/1999/xlink" x="0px" y="0px"
	 viewBox="0 0 32 32" style="enable-background:new 0 0 32 32;" xml:space="preserve">
<style type="text/css">
	.st0{fill:#6896EA;}
</style>
<path class="st0" d="M16,2C8.3,2,2,8.3,2,16s6.2,14,14,14s14-6.2,14-14S23.7,2,16,2z M9.7,17.7C8.7,17.7,8,17,8,16s0.8-1.7,1.7-1.7
	s1.7,0.8,1.7,1.7S10.6,17.7,9.7,17.7z M16,17.7c-1,0-1.7-0.8-1.7-1.7s0.8-1.7,1.7-1.7s1.7,0.8,1.7,1.7S17,17.7,16,17.7z M22.3,17.7
	c-1,0-1.7-0.8-1.7-1.7s0.8-1.7,1.7-1.7S24,15,24,16S23.3,17.7,22.3,17.7z"/>
</svg>
