<svg xmlns="http://www.w3.org/2000/svg" xmlns:xlink="http://www.w3.org/1999/xlink" viewBox="0 0 13.67 13.65"><defs><style>.cls-1{fill:none;}.cls-2{clip-path:url(#clip-path);}.cls-3{fill:var(--td-brand-color);}</style><clipPath id="clip-path" transform="translate(-1.16 -1.18)"><rect class="cls-1" width="16" height="16"/></clipPath></defs><title>资源 3</title><g id="图层_2" data-name="图层 2"><g id="图层_1-2" data-name="图层 1"><g class="cls-2"><g id="蒙版组_587" data-name="蒙版组 587"><path id="路径_5525" data-name="路径 5525" class="cls-3" d="M3.07,12.7a.4.4,0,0,1-.31-.11.41.41,0,0,1,0-.59h0l1.43-1.44a.42.42,0,0,1,.6.06.4.4,0,0,1,0,.54L3.36,12.59A.57.57,0,0,1,3.07,12.7Zm2.79,1.9a.14.14,0,0,1-.12,0,.41.41,0,0,1-.31-.51h0l.52-2a.41.41,0,0,1,.51-.31.43.43,0,0,1,.32.51l-.52,2a.41.41,0,0,1-.4.34Zm3.36.23a.37.37,0,0,1-.4-.31l-.52-2A.43.43,0,0,1,8.62,12a.41.41,0,0,1,.51.32l.52,2a.41.41,0,0,1-.31.51H9.22Zm3-1.49a.45.45,0,0,1-.31-.12l-1.44-1.43a.43.43,0,0,1,.05-.6.44.44,0,0,1,.55,0l1.44,1.43a.42.42,0,0,1,0,.59h0a.34.34,0,0,1-.29.11Zm1.9-2.79a.11.11,0,0,1-.11,0l-2-.51a.43.43,0,1,1,.2-.84l2,.52a.43.43,0,0,1,.31.52h0a.45.45,0,0,1-.4.34ZM12.41,7.71a.38.38,0,0,1-.4-.32.42.42,0,0,1,.32-.51h0l2-.52a.43.43,0,0,1,.51.32.41.41,0,0,1-.31.51l-2,.52Zm-.95-2.12a.45.45,0,0,1-.31-.12.42.42,0,0,1,0-.59h0l1.43-1.44a.43.43,0,0,1,.6.06.42.42,0,0,1,0,.54L11.75,5.47a.36.36,0,0,1-.29.11ZM9.56,4.24a.2.2,0,0,1-.11,0,.44.44,0,0,1-.32-.52h0l.52-2a.43.43,0,0,1,.51-.32.43.43,0,0,1,.32.52l-.49,2a.42.42,0,0,1-.42.31ZM7.26,4a.39.39,0,0,1-.4-.32l-.51-2a.43.43,0,0,1,.31-.52.44.44,0,0,1,.52.32l.52,2A.44.44,0,0,1,7.38,4H7.26ZM5.14,5a.42.42,0,0,1-.32-.11L3.39,3.4a.42.42,0,0,1,0-.6A.44.44,0,0,1,4,2.8L5.42,4.24a.41.41,0,0,1,0,.59h0A.33.33,0,0,1,5.14,5ZM3.79,6.85a.14.14,0,0,1-.12,0l-2-.51a.43.43,0,0,1,.2-.84l2,.52a.44.44,0,0,1,.32.52h0a.42.42,0,0,1-.4.34ZM1.58,9.67a.38.38,0,0,1-.4-.32.41.41,0,0,1,.31-.51h0l2-.51A.43.43,0,0,1,4,8.63a.44.44,0,0,1-.32.52h0l-2,.52Z" transform="translate(-1.16 -1.18)"/></g></g></g></g></svg>
