<?xml version="1.0" standalone="no"?><!DOCTYPE svg PUBLIC "-//W3C//DTD SVG 1.1//EN" "http://www.w3.org/Graphics/SVG/1.1/DTD/svg11.dtd"><svg t="1662716771617" class="icon" viewBox="0 0 1271 1024" version="1.1" xmlns="http://www.w3.org/2000/svg" p-id="1383" width="79.4375" height="64" xmlns:xlink="http://www.w3.org/1999/xlink"><path d="M871.97099 850.891158a425.966862 425.966862 0 0 1-254.114811 79.820585c-11.939526-0.157099-23.736234-1.085411-35.518662-2.013723-4.812943-0.457015-9.454505-1.228229-14.281729-1.999443-9.311688-1.228229-18.466276-2.31364-27.463766-4.284518-5.584156-0.928312-11.168312-2.613556-16.452552-3.856067-8.840391-1.999442-17.680781-4.013166-26.221255-6.626723-4.041729-1.542427-7.912078-2.856346-12.110907-4.612998-10.082901-3.241953-19.994421-6.783821-29.477489-10.782706-2.170823-0.928312-4.284519-1.856625-6.35537-2.613557-11.168312-5.241395-22.350907-10.625607-33.047922-16.338298-0.457015-0.314198-0.928312-0.457015-1.428173-0.771213a435.592748 435.592748 0 0 1-98.815286-75.493222c-0.457015-0.471297-0.928312-1.085411-1.428173-1.542427-8.99749-9.240279-17.680781-18.794756-25.907057-29.120446-1.713808-2.156541-3.256234-4.155983-5.127141-6.626723a445.761339 445.761339 0 0 1-94.944937-275.480279h105.356318l-127.378745-252.086806L0 491.748508h104.356597a536.064714 536.064714 0 0 0 92.57417 301.444463 22.565132 22.565132 0 0 0 1.98516 3.656122c5.969763 8.868954 12.853556 16.895286 19.166081 25.050154 2.55643 2.956318 4.684407 6.041172 7.240837 9.425941 9.368815 11.539637 19.73735 22.650823 29.991632 33.490656 1.142538 1.128257 1.98516 1.970879 2.856346 2.956318A522.611325 522.611325 0 0 0 375.609484 957.561395c1.128257 0.714086 2.127978 1.128257 3.399052 1.970878 12.353696 6.755258 25.135844 13.096346 37.903709 18.723348 3.270516 1.428173 6.398215 2.956318 9.511632 4.284518 11.082622 4.784379 22.436597 8.726137 33.804854 12.853557 5.398494 1.970879 10.65417 3.656123 16.181199 5.484184 9.997211 2.956318 20.165802 5.484184 30.534338 7.883515 6.812385 1.685244 13.481953 3.370488 20.437155 4.784379a60.397434 60.397434 0 0 0 8.369093 1.970879c9.797266 1.828061 19.451715 2.670683 29.106165 3.941757 3.556151 0.714086 7.140865 1.271074 10.511352 1.685244 17.466555 1.685244 34.790293 2.856346 52.256848 2.856346 106.056123 0 234.36318-33.933389 313.726751-108.84106 23.721953-22.522287 19.108954-53.370823 8.826109-64.710516-14.03894-15.709902-47.129707-21.751074-78.163906 0.599833z m294.303599-318.768201A533.951018 533.951018 0 0 0 1074.414505 231.535397c-0.856904-1.428173-1.428173-2.956318-2.127978-4.284518-7.526471-10.554198-15.19576-20.265774-23.007866-30.248703a33.590628 33.590628 0 0 1-2.556429-3.656123 524.739303 524.739303 0 0 0-195.088424-149.172664c-2.270795-0.842622-4.113138-1.970879-6.398215-2.856346-12.068061-5.070014-24.421757-9.440223-36.918271-13.79615-4.284519-1.428173-8.811827-3.099135-13.2106-4.513027-10.939805-3.370488-21.72251-6.041172-32.847977-8.726137-6.11258-1.428173-12.353696-2.956318-18.451995-4.284518-2.984881-0.571269-5.826946-1.428173-8.954644-2.113696-8.226276-1.428173-16.324017-2.113696-24.707392-3.241953-5.826946-0.714086-11.425384-1.542427-17.038103-2.113696-13.910404-1.428173-27.677992-1.970879-41.417015-2.113696-2.55643 0-4.970042-0.41417-7.526472-0.41417-0.428452 0-0.856904 0.142817-1.285356 0.142817a511.800056 511.800056 0 0 0-298.173947 96.116039c-29.47749 20.979861-25.52145 50.585886-12.339414 65.524575 9.368815 10.611325 37.960837 25.592859 61.140084 7.912078 73.279554-55.498801 162.26901-80.577517 251.78689-79.806304 12.853556 0.157099 25.707113 0.771213 38.160781 1.999442 3.88463 0.314198 7.59788 0.928312 11.425383 1.542427a303.715258 303.715258 0 0 1 30.72 4.927197c4.284519 0.771213 8.854672 1.999442 13.039219 2.856345 10.082901 2.31364 19.708787 4.62728 29.320391 7.697853a68.937908 68.937908 0 0 1 8.997489 3.22767c11.168312 3.698968 22.036709 7.555035 32.576625 12.168034 1.24251 0.314198 2.170823 1.228229 3.256234 1.542427a435.749847 435.749847 0 0 1 163.66862 125.10795 9.568759 9.568759 0 0 0 0.628396 0.928312 446.43258 446.43258 0 0 1 98.543933 280.407476H970.15788l133.648424 255.000278 166.967699-255.157378z m0 0" p-id="1384" fill="var(--td-brand-color)"></path></svg>
