<?xml version="1.0" standalone="no"?><!DOCTYPE svg PUBLIC "-//W3C//DTD SVG 1.1//EN" "http://www.w3.org/Graphics/SVG/1.1/DTD/svg11.dtd"><svg t="1673244932472" class="icon" viewBox="0 0 1024 1024" version="1.1" xmlns="http://www.w3.org/2000/svg" p-id="5141" width="200" height="200" xmlns:xlink="http://www.w3.org/1999/xlink"><path d="M728.368 829.28l36.096 52.848a446.832 446.832 0 0 1-91.536 48.096l-22.992-59.728a382.832 382.832 0 0 0 78.432-41.2z m111.36-117.056l54.592 33.424a449.76 449.76 0 0 1-63.76 81.344l-45.504-44.992a385.76 385.76 0 0 0 54.688-69.776z m53.36-152.72l63.52 7.84a445.344 445.344 0 0 1-24.464 100.48l-60-22.272a381.344 381.344 0 0 0 20.96-86.048z m47.488-178.352a446.608 446.608 0 0 1 18.496 101.76l-63.872 4.08a382.624 382.624 0 0 0-15.84-87.168l61.216-18.672zM847.856 215.52a448.992 448.992 0 0 1 59.072 84.832l-56.384 30.272a384.992 384.992 0 0 0-50.656-72.736l47.968-42.368z m-151.568-111.952a447.84 447.84 0 0 1 88.656 53.168l-39.024 50.72a383.84 383.84 0 0 0-76-45.568l26.368-58.32zM459.808 131.52l-8.928 1.312-7.072 1.2-7.312 1.392-6.96 1.44-2.96 0.672-4.96 1.168-4.928 1.216c-2.912 0.752-5.824 1.52-8.72 2.336l-8.704 2.56-2.08 0.64a382.208 382.208 0 0 0-84.992 38.56l-7.472 4.672-7.12 4.688-5.552 3.808-2.976 2.112-7.68 5.632-9.168 7.12-8.112 6.672-7.12 6.176-6.08 5.52-3.648 3.424 2.784-2.624a386.112 386.112 0 0 0-51.424 58.8l-2.56 3.648-6.112 9.12c-3.088 4.736-6.08 9.536-8.944 14.4l-1.312 2.256c-1.792 3.088-3.536 6.192-5.248 9.328l-3.712 6.976-4.912 9.856-3.232 6.88-3.136 7.072-1.792 4.192c-0.896 2.112-1.76 4.224-2.592 6.336l2.592-6.336a381.28 381.28 0 0 0-25.408 90.928l-0.8 5.632-0.72 5.648-0.88 7.984-0.672 7.76-0.64 9.648-0.448 12.24L128 512l0.112 9.152 0.032 1.744c0.8 28.512 4.704 56.256 11.392 82.88l1.568 6.032 0.992 3.68 1.472 5.12 1.536 5.056c0.8 2.576 1.616 5.152 2.48 7.712l2.144 6.256 1.504 4.192 1.824 4.912 1.904 4.88 3.216 7.84 3.104 7.184a382.128 382.128 0 0 0 43.36 73.6l5.328 6.928a386.128 386.128 0 0 0 24.96 28.72l8.688 8.752-1.6-1.568c2.496 2.464 5.024 4.88 7.568 7.28l-5.968-5.712 3.472 3.344 3.52 3.312c2.304 2.16 4.656 4.288 7.04 6.4l5.152 4.48 2.88 2.432a384.736 384.736 0 0 0 64.592 43.76l4.576 2.432 8.64 4.336 8.368 4 2.176 0.96c2.816 1.28 5.648 2.528 8.496 3.728l6.56 2.72 3.872 1.52 8.88 3.312 8.016 2.784 7.168 2.336 7.888 2.368 4.512 1.28c22.96 6.352 46.8 10.624 71.28 12.592l10.032 0.688 6.896 0.32 6.928 0.192L512 896c22.08 0 43.904-1.856 65.328-5.536l10.816 63.088c-21.44 3.68-43.184 5.792-65.152 6.32L512 960l-4.8-0.032-12.16-0.288-7.792-0.352-4.704-0.288a447.648 447.648 0 0 1-70.816-10.304l-10.8-2.608c-6.432-1.648-12.8-3.424-19.12-5.344l-9.984-3.168-9.44-3.2-10.272-3.792-9.088-3.584-10.144-4.288-8.96-4.032-9.792-4.688-4.304-2.128-4.544-2.352-5.296-2.8a448.48 448.48 0 0 1-59.568-38.432l-8.784-6.88a450.272 450.272 0 0 1-6.848-5.6l7.664 6.256a450.096 450.096 0 0 1-8.8-7.2l-7.456-6.432-3.36-2.992-7.68-7.056-7.328-7.04-5.968-6-5.6-5.824-7.2-7.792-6.688-7.6-2.912-3.408-4.16-4.992a448.32 448.32 0 0 1-56.352-87.968l-5.12-10.896a443.712 443.712 0 0 1-21.184-56.64l-3.264-11.504A448.24 448.24 0 0 1 64 512c0-11.456 0.432-22.816 1.28-34.048l1.152-12.864c0.48-4.8 1.072-9.584 1.712-14.336l1.376-9.216A444.544 444.544 0 0 1 91.024 358.4l3.776-9.92c1.312-3.36 2.672-6.72 4.08-10.032l4.032-9.328 4.288-9.264c2.88-6.08 5.92-12.096 9.088-18.064l5.808-10.56 4.752-8.16 6.16-10.048a449.76 449.76 0 0 1 62.208-77.792l3.296-3.264 4.384-4.24 7.072-6.608 4.208-3.776 8.288-7.2 3.072-2.592 7.936-6.448 5.04-3.952 7.792-5.872 9.536-6.848 7.68-5.248 3.84-2.528 5.008-3.232a446.208 446.208 0 0 1 75.712-38.464l10.88-4.112a444.88 444.88 0 0 1 59.488-17.056l10.432-2.08 9.808-1.728 11.488-1.728 10.608-1.344a452.8 452.8 0 0 1 153.92 8.944l-14.624 62.304a387.456 387.456 0 0 0-140.272-6.624z" fill="#1296db" p-id="5142"></path><path d="M512 288l181.024 181.024-45.264 45.248L544 410.496 544 728h-64V410.528l-103.76 103.744-45.264-45.248 135.776-135.76L512 288z" fill="#1296db" p-id="5143"></path></svg>