<svg width="202" height="201" xmlns="http://www.w3.org/2000/svg">
 <!-- Created with Method Draw - http://github.com/duopixel/Method-Draw/ -->

 <g>
  <title>background</title>
  <rect fill="#fff" id="canvas_background" height="203" width="204" y="-1" x="-1"/>
  <g display="none" overflow="visible" y="0" x="0" height="100%" width="100%" id="canvasGrid">
   <rect fill="url(#gridpattern)" stroke-width="0" y="0" x="0" height="100%" width="100%"/>
  </g>
 </g>
 <g>
  <title>Layer 1</title>
  <style transform="matrix(0.01795600089454652,0,0,0.01795600089454652,0,0) " type="text/css">.st0{fill:none;}
	.st1{fill:#E97046;}
	.st2{fill:#8FA76A;}
	.st3{fill:#F7CD42;}
	.st4{fill:#6D92B7;}</style>
  <g stroke="null" id="svg_26">
   <g stroke="null" transform="matrix(0.9481223657647234,0,0,0.9462686826729395,-5092.18225650395,-4894.3186206684495) " id="svg_5">
    <g stroke="null" id="svg_6">
     <path stroke="null" id="svg_7" d="m5556.346892,5340.547778c14.6,-16.6 23.5,-38.3 23.5,-62.1c0,-18.9 -5.6,-36.4 -15.2,-51.2l-81.3,52.4l73,60.9z" class="st0"/>
     <path stroke="null" id="svg_8" d="m5406.946892,5329.047778c16.7,26 45.9,43.3 79.1,43.3c28,0 53.2,-12.3 70.4,-31.8l-73,-60.8l-76.5,49.3z" class="st0"/>
     <path stroke="null" id="svg_9" d="m5412.246892,5220.347778c-12.6,16 -20.2,36.2 -20.2,58.1c0,18.6 5.4,36 14.8,50.6l76.5,-49.3l-71.1,-59.4z" class="st0"/>
     <path stroke="null" id="svg_10" d="m5485.946892,5184.547778c-29.9,0 -56.5,14 -73.7,35.8l71.2,59.3l81.3,-52.4c-16.8,-25.7 -45.8,-42.7 -78.8,-42.7z" class="st0"/>
     <path stroke="null" id="svg_11" d="m5485.946892,5184.547778c32.9,0 62,17 78.7,42.7l9.8,-6.3c-18.8,-28.9 -51.4,-48.1 -88.5,-48.1c-33.4,0 -63.3,15.7 -82.6,40.1l8.9,7.4c17.2,-21.8 43.9,-35.8 73.7,-35.8z" class="st1"/>
     <path stroke="null" id="svg_12" d="m5574.546892,5220.947778l-9.8,6.3c9.6,14.7 15.2,32.3 15.2,51.2c0,23.8 -8.9,45.6 -23.5,62.1l8.9,7.4c16.3,-18.6 26.2,-43 26.2,-69.6c-0.1,-21.1 -6.3,-40.8 -17,-57.4z" class="st2"/>
     <path stroke="null" id="svg_13" d="m5485.946892,5372.347778c-33.2,0 -62.4,-17.3 -79.1,-43.3l-9.7,6.3c18.8,29.2 51.6,48.6 88.8,48.6c31.6,0 59.9,-13.9 79.3,-36l-8.9,-7.4c-17.2,19.5 -42.4,31.8 -70.4,31.8z" class="st3"/>
    </g>
    <path stroke="null" id="svg_14" d="m5392.046892,5278.447778c0,-21.9 7.5,-42.1 20.2,-58.1l-8.9,-7.4c-14.3,18 -22.8,40.8 -22.8,65.5c0,20.9 6.1,40.5 16.7,56.9l9.7,-6.3c-9.4,-14.6 -14.9,-32 -14.9,-50.6z" class="st4"/>
   </g>
   <path stroke="null" id="svg_15" d="m0.511802,167.790957c1.991057,-1.419403 3.318428,-2.365672 4.550987,-3.406567c5.878359,-4.54209 11.756717,-8.989552 17.540264,-13.626269c2.654743,-2.081791 5.025049,-4.54209 7.774603,-6.623881c7.774603,-5.961493 15.738831,-11.733732 23.513435,-17.695224c9.576036,-7.380896 19.152072,-14.856418 28.728108,-22.237314c1.232559,-0.946269 1.327371,-1.79791 0.189624,-3.217314c-9.481224,-11.449851 -18.772823,-23.183583 -28.348859,-34.728061c-5.119861,-6.150746 -10.429346,-12.206866 -15.644019,-18.357612c-0.379249,-0.378507 -0.758498,-1.230149 -0.568873,-1.51403c0.284437,-0.473134 1.042935,-0.946269 1.611808,-0.946269c1.991057,0 3.887302,0.283881 5.878359,0.283881c15.169958,0 30.339916,0.094627 45.604686,-0.094627c2.844367,0 4.456175,1.040896 6.067983,3.217314c6.826481,9.462687 13.937399,18.830747 20.858692,28.293434c1.137747,1.51403 1.991057,1.419403 3.318428,0.283881c12.135966,-10.030448 24.366745,-19.966269 36.597523,-29.90209c1.327371,-1.040896 3.318428,-1.79791 5.025049,-1.79791c18.867635,-0.094627 37.830082,0 56.697717,0c1.70662,0 3.413241,0 5.119861,0c0.284437,0.378507 0.568873,0.757015 0.948122,1.135522c-0.948122,0.473134 -1.991057,0.851642 -2.844367,1.51403c-5.878359,4.447463 -11.756717,8.894926 -17.635076,13.437015c-10.903407,8.327164 -21.806814,16.748956 -32.710222,25.07612c-8.817538,6.813135 -17.635076,13.531642 -26.452614,20.344777c-1.137747,0.851642 -2.085869,1.703284 -0.758498,3.406567c9.481224,12.112239 18.867635,24.224478 28.254046,36.336717c3.697677,4.731343 7.584979,9.178806 11.282656,13.815523c1.70662,2.081791 3.033992,4.447463 4.835424,7.191642c-3.792489,0.189254 -6.921293,0.567761 -10.050097,0.567761c-14.885521,0 -29.771042,-0.094627 -44.656563,-0.283881c-1.327371,0 -3.128804,-0.946269 -3.792489,-1.987164c-6.542044,-9.36806 -12.894464,-18.830747 -19.246884,-28.293434c-0.568873,-0.851642 -1.232559,-1.51403 -1.801432,-2.365672c-0.948122,-1.608657 -1.801432,-1.230149 -3.033992,-0.189254c-13.273713,10.598209 -26.452614,21.101792 -39.821139,31.605374c-1.042935,0.851642 -2.654743,1.324776 -4.076926,1.324776c-20.289819,0.094627 -40.579637,0 -60.964268,0c-0.189624,0 -0.568873,-0.189254 -1.991057,-0.567761z"/>
   <path stroke="null" id="svg_16" d="m342.878788,86.411851c2.939179,-2.176418 5.214673,-3.974328 7.584979,-5.582985c10.239722,-6.907761 21.806814,-8.705672 33.847968,-7.759403c4.361363,0.378507 8.817538,1.135522 12.894464,2.649552c10.334534,3.879702 14.601084,11.544478 12.70484,22.426568c-1.137747,7.002388 -2.844367,13.91015 -4.456175,20.817911c-1.611808,7.002388 -3.318428,14.004777 -4.835424,21.007165c-0.474061,2.176418 -1.516996,2.933433 -3.602865,2.933433c-12.325591,-0.094627 -24.651182,0 -36.976772,0c-3.792489,0 -3.792489,-0.094627 -2.939179,-3.690448c2.654743,-11.355224 5.404297,-22.805075 7.964228,-34.160299c0.379249,-1.608657 0.474061,-3.31194 0.379249,-4.920597c-0.474061,-4.352836 -2.55993,-6.05612 -6.921293,-6.529254c-11.472281,-1.230149 -17.445452,5.109851 -19.626133,14.477911c-2.55993,10.787463 -5.214673,21.574926 -7.774603,32.457016c-0.379249,1.79791 -1.232559,2.460299 -3.033992,2.460299c-12.799652,0 -25.599304,0 -38.493768,0c-2.085869,0 -2.55993,-1.040896 -2.085869,-2.838806c2.55993,-10.88209 5.309485,-21.76418 7.679791,-32.740896c2.180681,-9.841194 4.171738,-19.777015 6.162795,-29.712837c0.379249,-1.79791 1.232559,-2.365672 2.749555,-2.365672c2.370306,0 4.740612,0.094627 7.110918,0.094627c10.050097,0 20.100194,-0.094627 30.150291,-0.094627c3.033992,0 3.508053,0.567761 2.844367,3.501194c-0.379249,2.081791 -0.758498,4.54209 -1.327371,7.570149z"/>
   <path stroke="null" id="svg_17" d="m249.678359,114.516031c-10.61897,0 -21.332753,0.094627 -31.951724,-0.094627c-2.654743,0 -3.982114,0.851642 -3.887302,3.501194c0,1.892537 -0.094812,3.785075 0.189624,5.582985c0.568873,3.595821 2.749555,5.961493 6.257608,6.718508c4.550987,0.946269 9.291599,1.040896 13.652962,-1.040896c1.70662,-0.851642 3.508053,-2.081791 4.550987,-3.595821c1.422184,-2.176418 3.128804,-2.554925 5.49911,-2.554925c12.041154,0.094627 24.082308,0 36.123462,0c2.55993,0 2.939179,0.473134 1.70662,2.649552c-3.128804,5.488358 -7.964228,9.178806 -13.652962,11.733732c-12.989276,5.961493 -26.926675,7.664776 -40.958886,7.664776c-8.438289,0 -16.876578,-1.040896 -25.314867,-1.419403c-8.05904,-0.473134 -15.075146,-3.690448 -21.237941,-8.421791c-8.248665,-6.245373 -9.481224,-15.045672 -7.679791,-24.508359c2.55993,-13.342388 10.524158,-22.426568 22.186063,-29.239702c9.955285,-5.866866 20.76388,-6.907761 31.667287,-8.137911c10.524158,-1.135522 21.143129,-1.230149 31.477663,1.040896c6.257608,1.324776 12.70484,3.406567 18.203949,6.529254c8.533101,4.731343 12.041154,12.869254 11.472281,22.710448c-0.568873,10.88209 -0.568873,10.976717 -11.187844,10.976717c-9.101975,-0.094627 -18.109137,-0.094627 -27.1163,-0.094627l0,0zm-17.540264,-13.153135l0,0c3.887302,0 7.869416,0.189254 11.756717,-0.094627c0.948122,-0.094627 2.465118,-1.040896 2.749555,-1.892537c1.611808,-4.731343 -1.232559,-10.030448 -5.973171,-11.639105c-8.438289,-2.933433 -18.962447,1.892537 -22.186063,10.219702c-1.042935,2.649552 -0.568873,3.31194 2.370306,3.31194c3.792489,0.094627 7.490167,0.094627 11.282656,0.094627z"/>
   <path stroke="null" id="svg_18" d="m210.994967,187.378719c1.70662,0 3.318428,0.094627 5.025049,0c1.991057,-0.094627 3.128804,0.189254 3.602865,2.554925c0.474061,2.649552 3.128804,2.838806 5.025049,1.892537c1.516996,-0.757015 2.55993,-2.649552 3.792489,-3.974328c-1.232559,-0.946269 -2.370306,-2.271045 -3.792489,-2.838806c-3.128804,-1.230149 -6.35242,-2.081791 -9.576036,-2.933433c-11.187844,-2.933433 -10.050097,-11.733732 -5.214673,-18.925374c3.223616,-4.82597 8.438289,-6.813135 14.032211,-7.85403c5.878359,-1.040896 11.756717,-1.040896 17.540264,0.757015c4.6458,1.51403 7.679791,5.866866 6.921293,10.408956c-0.189624,0.851642 -1.516996,2.081791 -2.275494,2.176418c-3.792489,0.283881 -7.679791,0.189254 -11.472281,0c-0.948122,0 -2.085869,-0.851642 -2.654743,-1.703284c-1.70662,-2.271045 -5.688734,-2.744179 -7.395354,-0.473134c-1.327371,1.703284 -0.379249,3.02806 1.327371,3.690448c3.318428,1.135522 6.731669,2.176418 10.144909,3.122687c4.6458,1.324776 9.101975,3.122687 9.955285,8.421791c0.85331,5.299105 -1.042935,10.125075 -4.930236,13.91015c-6.921293,6.718508 -15.644019,7.191642 -24.556369,6.623881c-2.654743,-0.189254 -5.309485,-0.757015 -7.774603,-1.703284c-4.550987,-1.608657 -6.921293,-5.488358 -6.826481,-10.314329c0.094812,-2.081791 0.948122,-3.122687 3.033992,-3.02806c1.896245,0.189254 3.982114,0.094627 6.067983,0.189254l0,0z"/>
   <path stroke="null" id="svg_19" d="m275.277663,188.514242c-2.749555,0 -5.49911,0.094627 -8.248665,0c-1.991057,-0.094627 -3.033992,0.662388 -2.939179,2.649552c0,2.081791 1.137747,3.406567 3.223616,3.406567c1.042935,0 2.465118,-0.283881 2.939179,-1.040896c2.085869,-2.744179 4.930236,-2.460299 7.774603,-2.271045c1.232559,0.094627 2.55993,-0.094627 3.887302,0c0.948122,0.094627 1.801432,0.378507 2.654743,0.662388c-0.379249,0.946269 -0.474061,2.081791 -1.042935,2.838806c-2.654743,3.501194 -6.067983,5.961493 -10.429346,6.718508c-5.404297,0.946269 -10.998219,1.703284 -16.307705,-0.473134c-4.6458,-1.79791 -6.826481,-5.488358 -7.016106,-10.314329c-0.758498,-15.613433 17.540264,-27.347165 31.572475,-20.344777c4.740612,2.365672 6.636857,6.245373 6.162795,12.585373c-0.379249,5.204478 -0.568873,5.393731 -5.688734,5.488358c-2.180681,0.094627 -4.361363,0 -6.542044,0.094627c0,-0.094627 0,0 0,0zm-5.025049,-5.866866c7.964228,0 5.119861,-1.703284 4.171738,-2.933433c-1.137747,-1.040896 -2.085869,-2.649552 -3.318428,-2.933433c-1.991057,-0.473134 -6.067983,3.785075 -5.404297,5.015224c0.474061,1.040896 2.370306,0.851642 4.550987,0.851642z"/>
   <path stroke="null" id="svg_20" d="m388.673098,188.419615c-2.749555,0 -5.49911,0 -8.248665,0c-1.896245,0 -3.318428,0.473134 -3.223616,2.744179c0.094812,2.460299 1.516996,3.31194 3.602865,3.31194c0.948122,0 2.085869,-0.378507 2.654743,-0.946269c3.887302,-4.352836 9.007162,-1.419403 13.463338,-2.271045c0,0 0.85331,1.79791 0.568873,2.365672c-2.844367,5.204478 -7.679791,7.475523 -13.273713,8.327164c-3.508053,0.473134 -7.110918,0.473134 -10.61897,0.189254c-6.35242,-0.567761 -10.61897,-5.393731 -10.524158,-11.733732c0.379249,-17.979105 17.540264,-25.07612 30.719165,-20.25015c5.404297,1.987164 7.679791,6.718508 6.826481,13.247762c-0.663686,5.109851 -0.663686,5.109851 -5.688734,5.109851c-2.085869,0 -4.171738,0 -6.257608,-0.094627l0,0zm-5.49911,-6.245373c1.801432,-0.757015 4.171738,0.378507 4.266551,-2.460299c0,-1.892537 -1.137747,-3.122687 -3.223616,-3.02806c-2.085869,0 -5.214673,2.365672 -4.550987,3.595821c0.568873,0.851642 2.275494,1.230149 3.508053,1.892537z"/>
   <path stroke="null" id="svg_21" d="m340.41367,187.473346c2.085869,-5.015224 4.266551,-9.935821 6.162795,-14.951045c0.758498,-2.081791 1.896245,-3.02806 4.076926,-2.933433c3.982114,0.094627 7.964228,0 12.325591,0c-0.379249,1.230149 -0.379249,1.987164 -0.758498,2.649552c-4.6458,9.084179 -9.481224,18.168359 -14.127023,27.252538c-0.85331,1.608657 -1.896245,2.271045 -3.697677,2.176418c-5.119861,-0.094627 -10.239722,0 -15.359582,0c-2.085869,0 -2.939179,-0.946269 -3.128804,-3.02806c-0.663686,-8.611045 -1.327371,-17.22209 -2.085869,-25.833135c-0.189624,-2.365672 0.379249,-3.406567 3.033992,-3.31194c3.223616,0.189254 6.542044,0.094627 9.76566,0c1.991057,-0.094627 2.654743,0.757015 2.654743,2.649552c-0.094812,3.974328 -0.189624,7.85403 -0.189624,11.828359c0,1.135522 0.284437,2.365672 0.379249,3.501194c0.284437,0 0.663686,0 0.948122,0z"/>
   <path stroke="null" id="svg_22" d="m425.175809,171.95454c0.948122,-0.567761 1.896245,-1.419403 2.939179,-1.79791c1.516996,-0.473134 3.128804,-0.757015 4.740612,-0.662388c1.896245,0.094627 2.275494,1.230149 1.70662,3.02806c-0.663686,2.176418 -1.137747,4.352836 -1.516996,6.623881c-0.284437,1.608657 -0.948122,2.271045 -2.55993,1.987164c-0.948122,-0.189254 -1.991057,-0.283881 -2.939179,-0.378507c-3.697677,-0.283881 -5.49911,1.135522 -6.257608,4.731343c-0.948122,4.352836 -1.801432,8.611045 -2.654743,12.963881c-0.474061,2.365672 -1.611808,3.501194 -4.266551,3.406567c-3.033992,-0.189254 -6.067983,0 -9.101975,-0.094627c-1.896245,0 -2.654743,-0.757015 -2.180681,-2.744179c1.896245,-8.611045 3.887302,-17.22209 5.593922,-25.927762c0.474061,-2.460299 1.422184,-3.595821 4.076926,-3.406567c2.465118,0.189254 4.930236,-0.189254 7.395354,0c1.70662,0.189254 3.413241,0.851642 5.119861,1.324776c-0.094812,0.283881 -0.094812,0.567761 -0.094812,0.946269z"/>
   <path stroke="null" id="svg_23" d="m312.254436,171.576032c1.327371,-0.662388 2.844367,-1.703284 4.6458,-2.271045c2.844367,-0.946269 4.456175,0.567761 4.076926,3.501194c-0.379249,2.271045 -0.663686,4.447463 -1.327371,6.623881c-0.189624,0.757015 -1.516996,1.419403 -2.370306,1.608657c-1.042935,0.189254 -2.085869,-0.189254 -3.223616,-0.283881c-3.223616,-0.283881 -5.025049,1.040896 -5.783546,4.163582c-1.042935,4.636717 -2.085869,9.178806 -2.939179,13.815523c-0.379249,2.176418 -1.422184,3.217314 -3.792489,3.122687c-3.033992,-0.189254 -6.067983,0 -9.101975,0c-2.085869,0 -3.033992,-0.757015 -2.465118,-3.122687c1.991057,-8.894926 3.982114,-17.789851 5.878359,-26.779404c0.379249,-1.703284 1.232559,-2.271045 2.844367,-2.271045c3.318428,0 6.731669,-0.189254 10.050097,0c0.948122,0 2.085869,1.040896 3.508053,1.892537z"/>
   <path stroke="null" id="svg_24" d="m468.979063,173.657823c-0.663686,1.608657 -0.948122,3.406567 -1.991057,4.731343c-0.758498,1.040896 -2.275494,2.081791 -3.602865,2.176418c-0.85331,0.094627 -2.085869,-1.419403 -2.749555,-2.460299c-0.758498,-1.135522 -0.948122,-2.554925 -1.422184,-3.785075c-0.379249,0.094627 -0.663686,0.094627 -1.042935,0.189254c-0.094812,1.135522 0.094812,2.365672 -0.284437,3.501194c-0.379249,1.040896 -1.232559,1.892537 -1.896245,2.838806c-0.758498,-0.946269 -2.180681,-1.703284 -2.275494,-2.744179c-0.284437,-2.554925 -0.284437,-5.109851 0,-7.664776c0.094812,-0.757015 1.232559,-1.51403 2.085869,-1.987164c0.379249,-0.283881 1.137747,0.094627 1.70662,0c3.318428,-0.567761 4.930236,0.851642 5.214673,4.163582c0.094812,0.851642 0.474061,1.608657 0.758498,2.365672c0.379249,0.094627 0.663686,0.094627 1.042935,0.189254c0.379249,-1.230149 1.042935,-2.460299 1.232559,-3.785075c0.189624,-2.460299 1.422184,-3.217314 3.697677,-2.933433c0.85331,0.094627 1.801432,0.094627 2.654743,0c1.801432,-0.094627 2.465118,0.567761 2.370306,2.460299c-0.189624,2.460299 -0.094812,4.920597 0,7.380896c0.094812,1.608657 -0.474061,2.460299 -2.085869,2.554925c-1.801432,0.094627 -2.55993,-0.757015 -2.55993,-2.460299c0,-1.51403 0,-2.933433 0,-4.447463c-0.189624,-0.189254 -0.474061,-0.283881 -0.85331,-0.283881z"/>
   <path stroke="null" id="svg_25" d="m445.086379,168.264092c1.611808,0 3.128804,-0.094627 4.740612,0.094627c0.663686,0.094627 1.232559,0.851642 1.896245,1.324776c-0.568873,0.473134 -1.042935,1.230149 -1.611808,1.230149c-2.180681,0.094627 -2.55993,1.324776 -2.465118,3.217314c0.094812,1.419403 0.284437,3.02806 -0.094812,4.352836c-0.284437,0.851642 -1.611808,2.081791 -2.275494,1.987164c-0.948122,-0.189254 -2.085869,-1.230149 -2.465118,-2.271045c-0.379249,-0.851642 0.094812,-2.081791 0.094812,-3.217314c0.094812,-2.176418 0.094812,-4.258209 -2.939179,-4.352836c-0.379249,0 -0.758498,-0.851642 -1.232559,-1.324776c0.474061,-0.378507 0.948122,-1.040896 1.516996,-1.135522c1.422184,0 3.128804,0.094627 4.835424,0.094627l0,0z"/>
  </g>
 </g>
</svg>