<svg xmlns="http://www.w3.org/2000/svg" width="20" height="20" viewBox="0 0 20 20" fill="none">
  <path d="M7.87625 2.48047C8.20713 2.48054 8.52449 2.6118 8.75875 2.84547L10.1087 4.19047H17.1875C17.5156 4.19043 17.8305 4.31937 18.0644 4.54949C18.2982 4.7796 18.4323 5.09243 18.4375 5.42047V16.2705C18.4375 16.602 18.3058 16.9199 18.0714 17.1544C17.837 17.3888 17.519 17.5205 17.1875 17.5205H2.8125C2.48098 17.5205 2.16304 17.3888 1.92862 17.1544C1.6942 16.9199 1.5625 16.602 1.5625 16.2705V3.73047C1.5625 3.39895 1.6942 3.08101 1.92862 2.84659C2.16304 2.61216 2.48098 2.48047 2.8125 2.48047H7.87625ZM7.61875 4.35547H3.4375V15.6455H16.5625V6.06547H9.85125C9.52525 6.06544 9.21216 5.93805 8.97875 5.71047L8.96875 5.70172L7.61875 4.35547ZM10.9375 7.55922V10.1367H13.5162V12.0117H10.9375V14.5905H9.0625V12.0117H6.48375V10.1367H9.0625V7.55922H10.9375Z" fill="#878A99"/>
</svg>
