<svg xmlns="http://www.w3.org/2000/svg" width="20" height="21" viewBox="0 0 20 21" fill="none">
  <path d="M10 3.33333C10.9005 3.33333 11.7735 3.5095 12.5945 3.85667C13.3882 4.19233 14.1013 4.67333 14.714 5.286C15.3267 5.89867 15.8075 6.61183 16.1433 7.4055C16.4907 8.2265 16.6667 9.0995 16.6667 10C16.6667 10.9005 16.4905 11.7735 16.1433 12.5945C15.8077 13.3882 15.3268 14.1013 14.714 14.714C14.1013 15.3267 13.3882 15.8075 12.5945 16.1433C11.7735 16.4907 10.9005 16.6667 10 16.6667C9.0995 16.6667 8.2265 16.4905 7.4055 16.1433C6.61183 15.8077 5.89867 15.3268 5.286 14.714C4.67333 14.1013 4.1925 13.3882 3.85667 12.5945C3.50933 11.7735 3.33333 10.9005 3.33333 10C3.33333 9.0995 3.5095 8.2265 3.85667 7.4055C4.19233 6.61183 4.67333 5.89867 5.286 5.286C5.89867 4.67333 6.61183 4.1925 7.4055 3.85667C8.2265 3.5095 9.0995 3.33333 10 3.33333ZM10 2C5.58167 2 2 5.58167 2 10C2 14.4183 5.58167 18 10 18C14.4183 18 18 14.4183 18 10C18 5.58167 14.4183 2 10 2Z" fill="#878A99"/>
  <path d="M16.5427 8.95583C16.5427 8.95133 16.5435 8.94717 16.5435 8.94717C16.5195 9.0395 16.1428 9.46183 14.7393 9.84067C14.2162 9.98183 13.6265 10.0972 12.9915 10.1842C12.992 10.124 12.9923 10.0638 12.9923 10.0033C12.9923 5.585 11.6512 2.00333 9.99667 2.00333C8.34217 2.00333 7.001 5.585 7.001 10.0033C7.001 10.0635 7.00133 10.1233 7.00183 10.1832C6.36933 10.0962 5.78217 9.98117 5.261 9.8405C3.85733 9.46167 3.48083 9.03933 3.45683 8.947C3.45683 8.947 3.45767 8.95117 3.45767 8.95567H2.12433C2.12433 9.30983 2.273 9.83383 2.98083 10.3187C3.4025 10.6075 3.98667 10.8612 4.717 11.0728C5.40317 11.2717 6.19583 11.427 7.056 11.5348C7.3235 15.2205 8.5385 18.0033 9.99683 18.0033C11.455 18.0033 12.6698 15.221 12.9375 11.5358C13.8003 11.428 14.5955 11.2722 15.2835 11.073C16.0138 10.8615 16.598 10.6077 17.0197 10.3188C17.7275 9.834 17.8762 9.31 17.8762 8.95583H16.5427ZM8.33417 10.0035C8.33417 8.2035 8.57333 6.48167 9.0075 5.15517C9.198 4.57317 9.42267 4.0835 9.65717 3.73917C9.80667 3.51967 9.9285 3.40683 9.9965 3.35817C10.0645 3.40667 10.1863 3.5195 10.3358 3.73917C10.5703 4.0835 10.795 4.57317 10.9855 5.15517C11.4197 6.4815 11.6588 8.20333 11.6588 10.0035C11.6588 10.1095 11.658 10.2153 11.6563 10.3207C11.12 10.3582 10.5647 10.3777 10 10.3777C9.433 10.3777 8.87517 10.358 8.33667 10.3202C8.33517 10.2148 8.33417 10.1093 8.33417 10.0035ZM10.9855 14.8517C10.795 15.4337 10.5703 15.9233 10.3358 16.2677C10.1863 16.4872 10.0645 16.6 9.9965 16.6487C9.9285 16.6002 9.80667 16.4873 9.65717 16.2677C9.42267 15.9233 9.198 15.4337 9.0075 14.8517C8.70917 13.9405 8.503 12.8425 8.40317 11.6608C8.9225 11.6938 9.45717 11.7108 10 11.7108C10.5405 11.7108 11.0727 11.694 11.5898 11.6612C11.49 12.8428 11.2838 13.9407 10.9855 14.8517Z" fill="#878A99"/>
</svg>
