<svg xmlns="http://www.w3.org/2000/svg" width="20" height="20" viewBox="0 0 20 20" fill="none">
  <path d="M13.8192 17.9993H3.33939C1.49804 17.9993 0 16.5013 0 14.6599C0 13.1392 1.02957 11.811 2.50373 11.4301L2.57649 11.4113L2.58917 11.3364C2.84125 9.84187 4.12507 8.75684 5.64169 8.75684C6.00066 8.75684 6.35843 8.82106 6.70515 8.94769L6.78871 8.97829L6.84023 8.90624C7.55086 7.91122 8.70164 7.31708 9.91849 7.31708C12.0406 7.31708 13.7029 8.94846 13.7029 11.0311V11.1474H13.8192C15.7599 11.1474 17.2801 12.6369 17.2801 14.5384C17.2801 16.4467 15.7276 17.9993 13.8192 17.9993ZM5.82879 9.40842C4.86225 9.40842 4.0441 10.0998 3.88344 11.0524L3.7862 11.6259L3.22403 11.771C2.25713 12.0209 1.5818 12.8918 1.5818 13.8888C1.5818 15.0967 2.56447 16.0793 3.77229 16.0793H13.1331C14.4008 16.0793 15.4321 15.048 15.4321 13.7803C15.4321 12.5261 14.4223 11.5437 13.1331 11.5437H12.2369V10.6475C12.2369 9.23156 11.1001 8.1224 9.64892 8.1224C8.81736 8.1224 8.03048 8.52905 7.54401 9.21021L7.14714 9.76532L6.50652 9.53068C6.28451 9.44958 6.05641 9.40842 5.82879 9.40842Z" fill="#878A99"/>
  <path d="M20 9.83736C20 7.86164 18.3984 6.33036 16.4227 6.33036C16.4227 4.17612 14.6764 2.5 12.5221 2.5C11.2124 2.5 10.0564 3.14779 9.34903 4.13809C9.00428 4.01182 8.63385 3.93957 8.24541 3.93957C6.65337 3.93957 5.33491 5.09785 5.07791 6.61696C3.91404 6.91758 2.99546 8.18745 2.64619 9.33035C3.2739 8.14771 4.50233 7.49516 5.90783 7.49516C6.21931 7.49516 6.52885 7.53519 6.83213 7.61424C7.66387 6.63208 8.89194 6.05541 10.1846 6.05541C12.4879 6.05541 14.3244 7.71455 14.5544 9.91078C16.4718 10.1183 17.9307 11.5897 18.1186 13.4817C19.2365 12.8787 20 11.1969 20 9.83736Z" fill="#878A99"/>
</svg>
