<svg xmlns="http://www.w3.org/2000/svg" width="20" height="20" viewBox="0 0 20 20" fill="none">
  <path d="M15.8418 7.22656H14.2832C14.2832 4.7207 12.3711 2.80859 9.92969 2.80859C7.48828 2.80859 5.57617 4.72266 5.57617 7.22656H4.01758C4.01758 4.2207 6.66992 1.24805 9.92969 1.24805C13.1895 1.25 15.8418 4.2207 15.8418 7.22656Z" fill="#878A99"/>
  <path d="M16.7637 9.78906C16.7637 8.92773 16.0645 8.23047 15.2051 8.23047H4.79688C3.93555 8.23047 3.23828 8.92969 3.23828 9.78906V17.1914C3.23828 18.0527 3.9375 18.75 4.79688 18.75H15.2051C16.0664 18.75 16.7637 18.0508 16.7637 17.1914V9.78906ZM11.252 15.5762C11.252 16.2227 10.7285 16.7461 10.082 16.7461H9.91602C9.26953 16.7461 8.74609 16.2227 8.74609 15.5762V12.4043C8.74609 11.7578 9.26953 11.2344 9.91602 11.2344H10.082C10.7285 11.2344 11.252 11.7578 11.252 12.4043V15.5762Z" fill="#878A99"/>
</svg>
