<svg xmlns="http://www.w3.org/2000/svg" width="20" height="20" viewBox="0 0 20 20" fill="none">
  <path d="M11.8738 8.16125C11.7531 8.04059 11.6245 7.93182 11.4919 7.83098L11.4916 7.83119C11.3552 7.69994 11.1699 7.61914 10.9657 7.61914C10.5464 7.61914 10.2066 7.95898 10.2066 8.3782C10.2063 8.55643 10.2691 8.729 10.3838 8.86545H10.3837C10.437 8.92903 10.5003 8.9835 10.5711 9.0267C10.6426 9.08572 10.7129 9.14385 10.7786 9.20953L10.8412 9.27213C11.6279 10.0579 11.393 11.4116 10.6063 12.1983L7.24926 15.5544C6.46256 16.3401 5.18359 16.3401 4.39687 15.5544L4.33379 15.4912C3.54705 14.7045 3.54705 13.4246 4.33379 12.6399L5.81691 11.1572C6.00719 11.0062 6.12936 10.7731 6.12936 10.5113C6.12936 10.056 5.76023 9.68685 5.3049 9.68685C5.13961 9.6866 4.9781 9.73628 4.84152 9.82937C4.84111 9.8285 4.84066 9.82766 4.84023 9.82676L4.82441 9.84154C4.76603 9.88344 4.71333 9.93274 4.66766 9.98822L3.12639 11.4304C1.6776 12.8803 1.6776 15.2514 3.12639 16.6992L3.18896 16.7617C4.63777 18.2095 7.00791 18.2095 8.4567 16.7617L11.8128 13.4047C13.2595 11.956 13.3822 9.67062 11.9354 8.22283L11.8738 8.16125Z" fill="#878A99"/>
  <path d="M16.7114 3.23804L16.6488 3.17546C15.2 1.72667 12.8299 1.72667 11.3811 3.17546L8.02501 6.53249C6.57622 7.98128 6.49644 10.0734 7.94523 11.5232L8.00681 11.5838C8.07261 11.6496 8.14091 11.7116 8.21062 11.7711C8.26127 11.8276 8.32055 11.8758 8.38626 11.9139L8.38777 11.9151L8.388 11.9149C8.49646 11.9773 8.61945 12.0101 8.7446 12.01C9.14036 12.01 9.4612 11.6891 9.4612 11.2934C9.4612 11.1817 9.43562 11.076 9.38999 10.9817C9.29527 10.769 9.11792 10.6395 8.99527 10.5168L8.93367 10.4562C8.14699 9.66954 8.44572 8.52661 9.2324 7.73993L12.5904 4.38388C13.3752 3.59714 14.6546 3.59714 15.4413 4.38388L15.5039 4.44544C16.2906 5.2322 16.2906 6.51261 15.5039 7.29833L14.0257 8.77759C13.8246 8.92659 13.6942 9.16558 13.6942 9.43507C13.6942 9.88669 14.0603 10.2528 14.5119 10.2528C14.6633 10.2531 14.8117 10.211 14.9406 10.1315C14.9415 10.1331 14.9424 10.1346 14.9433 10.1362L14.9662 10.1151C15.0368 10.0678 15.0996 10.0098 15.1524 9.94333L16.7103 8.50577C18.1601 7.057 18.1601 4.68683 16.7114 3.23804Z" fill="#878A99"/>
</svg>
