<svg width="144" height="143" viewBox="0 0 144 143" fill="none" xmlns="http://www.w3.org/2000/svg">
<g id="Frame" clip-path="url(#clip0_386_380)">
<g id="Group">
<g id="Group_2">
<path id="Vector" d="M101.813 22.0453C104.808 22.8476 106.931 24.9695 109.28 26.6342C110.31 27.4278 111.191 28.3886 112.221 29.1821C113.515 30.1499 114.222 31.3747 114.51 33.0047C114.689 33.881 115.042 34.4934 116.19 34.076C116.531 33.9605 117.252 34.3607 117.561 34.7541C121.44 39.2098 124.655 44.2123 127.038 49.6132C127.879 51.4952 128.476 53.5185 129.344 55.3039C129.813 56.2578 130.746 57.0255 131.434 57.9345C132.148 58.747 131.844 59.4939 130.749 59.718C131.089 61.1549 131.306 62.6625 131.768 64.0287C131.858 64.4668 132.482 64.8412 132.939 65.0672C133.396 65.2932 133.905 65.326 134.485 65.4813C134.322 66.4731 134.026 66.8077 133.06 66.5489C129.125 65.3911 125.017 64.4973 121.108 63.2429C119.009 62.5769 117.11 61.5504 115.011 60.8845C114.361 60.6067 113.458 60.8826 112.634 60.8687C112.318 60.8877 112.099 60.9325 111.809 60.8549C105.917 59.2761 100.122 57.7231 94.2555 56.0478C94.0623 55.996 93.8691 55.9442 93.6052 55.77C93.8053 55.4095 94.0054 55.049 94.0831 54.7592C102.004 56.8816 109.924 59.0039 117.941 61.1521C117.681 57.873 115.977 55.3459 114.93 52.6842C114.674 52.0977 114.662 51.3698 114.624 50.7385C114.843 50.6937 115.062 50.6489 115.281 50.604C116.283 53.0466 117.381 55.515 118.357 58.0542C118.73 58.9822 118.857 60.0517 119.23 60.9797C119.346 61.3212 120.022 61.5024 120.479 61.7284C121.032 61.9803 121.638 62.039 122.507 62.2719C121.264 56.866 119.234 52.0774 116.547 47.4234C116.696 47.2561 116.844 47.0888 116.992 46.9215C117.141 46.7542 117.263 46.6835 117.508 46.5421C120.15 50.977 122.206 55.669 123.359 60.6368C123.744 62.2927 124.484 63.0086 125.985 63.2037C126.59 63.2624 127.047 63.4884 127.916 63.7213C127.808 62.9675 127.744 62.4328 127.558 61.9688C125.661 53.5925 121.979 46.0836 116.757 39.3008C112.107 33.0856 106.296 28.1122 99.5951 24.1426C99.2346 23.9425 98.8034 23.6199 98.5395 23.4457C99.2743 23.0214 99.8867 22.6678 100.499 22.3143C101.105 22.373 101.472 22.1608 101.813 22.0453Z" fill="#DC8A81"/>
<path id="Vector_2" d="M52.1291 124.787C52.5224 124.478 52.9415 124.073 53.2383 123.738C52.9295 123.345 52.5949 123.048 52.2603 122.751C52.2603 122.751 52.2862 122.655 52.338 122.462C52.6277 122.539 52.9434 122.52 53.2332 122.598C57.6695 124.201 62.287 125.128 67.0339 125.571C69.8679 125.813 72.7916 126.493 75.6325 126.322C78.2544 126.197 80.9608 125.369 83.5896 124.831C89.4596 123.402 95.3555 121.875 101.2 120.543C102.295 120.318 103.461 120.217 104.53 120.089C104.601 120.212 104.575 120.308 104.646 120.431C102.493 121.51 100.411 122.712 98.1617 123.766C96.7438 124.422 95.3518 124.98 93.8631 125.513C92.9351 125.886 92.0071 126.258 91.0222 125.684C90.6617 125.484 90.0493 125.837 89.5146 125.901C89.7526 126.172 90.0165 126.346 90.4218 126.765C88.1087 127.284 85.918 127.732 83.798 128.303C82.3612 128.643 81.014 129.421 79.5322 129.541C77.1036 129.719 74.6818 129.484 72.2342 129.346C71.8219 129.339 71.3648 129.113 70.9785 129.009C71.0044 128.913 70.9595 128.694 70.9854 128.597C71.6426 128.463 72.2998 128.328 73.3951 128.104C69.7574 126.612 66.2695 129.197 62.9544 127.273C62.7542 127.634 62.5541 127.994 62.3281 128.451C62.2315 128.426 62.0125 128.47 61.8193 128.419C59.3079 127.746 56.7965 127.073 54.3816 126.426C54.1885 126.374 54.0212 126.226 53.8021 126.27C52.881 126.231 52.2825 125.76 52.1291 124.787Z" fill="#DC8A81"/>
<path id="Vector_3" d="M25.519 103.163C24.3858 102.756 23.3492 102.374 22.1901 102.064C22.7576 101.491 20.7292 100.948 22.411 100.467C21.4779 99.6989 20.738 98.983 19.9014 98.2412C19.8945 98.6535 19.9135 98.9691 20.0479 99.6263C18.9475 98.7103 18.3042 98.0203 18.4923 96.9319C17.9714 96.1712 17.3281 95.4812 16.9039 94.7463C16.0105 93.0576 14.924 91.317 14.2497 89.5834C13.5047 87.7274 12.8821 85.8006 12.6719 83.8808C12.4168 81.7419 11.5165 80.4653 9.26202 80.3789C9.04295 80.4237 8.77906 80.2495 8.61176 80.1011C8.54104 79.9787 8.59281 79.7855 8.5221 79.663C9.1793 79.5285 9.88826 79.2008 10.4678 79.3561C12.6187 79.8289 14.7438 80.3983 16.8688 80.9678C24.6928 83.0642 32.4202 85.1347 40.2183 87.3278C40.7979 87.4831 41.3446 88.1472 41.8724 88.4957C41.8465 88.5923 41.6982 88.7596 41.6723 88.8562C38.0984 87.8985 34.5244 86.9409 30.5642 85.8797C31.2472 85.6487 31.4922 85.5072 31.9303 85.4176C30.3918 84.5912 28.9101 84.7118 27.4663 85.4638C27.8836 86.6109 28.3268 87.6614 28.6475 88.7826C28.7182 88.9051 28.2542 89.0913 27.8609 89.4C27.3918 88.4461 26.8451 87.782 26.6658 86.9057C26.1657 84.9082 24.8462 84.037 22.5659 84.0472C23.9972 88.3648 25.7701 92.5668 28.7418 96.1583C28.3485 96.467 28.0069 96.5826 27.6136 96.8913C24.8161 93.0359 22.7984 88.9753 21.2446 84.7284C20.8721 83.8004 20.3961 83.2587 19.4301 82.9999C17.6656 82.6306 16.0494 82.094 14.3107 81.6282C14.1882 81.6989 14.1365 81.8921 14.014 81.9628C14.4193 82.382 14.8505 82.7046 15.2558 83.1237C15.5904 83.4205 16.0216 83.7431 16.2079 84.2071C18.21 90.6446 21.4109 96.4716 25.3208 101.971C25.3915 102.093 25.5329 102.338 25.6036 102.461C25.6933 102.899 25.5708 102.97 25.519 103.163Z" fill="#DC8A81"/>
<path id="Vector_4" d="M101.813 22.0453C101.472 22.1608 101.105 22.373 100.763 22.4885C100.106 22.623 99.5193 22.88 98.888 22.9179C98.4498 23.0075 97.9151 23.0713 97.5287 22.9678C97.239 22.8901 97.0527 22.4261 96.7181 22.1294C97.0596 22.0139 97.4012 21.8983 97.7427 21.7828C97.7686 21.6862 97.7945 21.5896 97.7238 21.4671C96.9252 21.3567 96.1972 21.3687 95.3986 21.2582C94.7932 21.1995 94.0394 21.3081 93.5823 21.0821C84.2854 17.1416 74.5346 15.6677 64.5232 16.7121C63.1381 16.8586 62.2687 16.6257 61.5616 15.401C61.2788 14.9111 60.7769 14.466 60.1077 13.8726C61.9896 13.031 63.6266 12.3308 65.3861 11.5599C65.4568 11.6824 65.5275 11.8049 65.5982 11.9273C65.4947 12.3137 65.3653 12.7967 65.2617 13.183C65.6412 13.6988 66.2914 13.9766 66.3811 14.4147C66.4897 15.1685 66.7725 15.6584 67.4556 15.4273C67.7972 15.3118 67.9783 14.6357 68.2302 14.082C68.2302 14.082 68.52 14.1596 68.9322 14.1666C68.9133 13.8509 68.7719 13.606 68.7081 13.0712C79.2663 12.6909 89.1964 15.0411 98.5053 19.7095C98.8658 19.9096 98.9555 20.3478 99.2901 20.6445C99.6247 20.9412 99.804 21.8174 100.616 21.1034C100.713 21.1293 101.382 21.7227 101.813 22.0453Z" fill="#DC8A81"/>
<path id="Vector_5" d="M31.5984 93.6109C34.5373 97.7112 37.7212 101.67 41.8917 104.651C43.8097 105.993 46.347 106.57 47.8717 108.22C50.1363 110.587 52.9116 111.434 55.6092 112.571C62.55 115.259 69.7894 116.06 77.0755 115.528C77.8034 115.516 78.6089 115.214 78.4398 116.618C76.3526 116.68 74.3103 116.961 72.1783 116.804C69.1253 116.607 66.0463 116.507 63.0261 115.801C60.1024 115.121 57.127 114.634 54.3586 113.375C51.6161 112.019 48.7253 110.83 46.157 109.21C43.4922 107.565 40.9757 105.752 38.6594 103.578C36.0084 101.108 33.7766 98.2321 31.3965 95.5238C31.1395 94.9373 30.5669 94.3697 31.5984 93.6109Z" fill="#DC8A81"/>
<path id="Vector_6" d="M122.346 110.783C120.607 110.317 118.772 109.826 117.323 109.437C116.749 110.422 116.445 111.169 115.852 111.838C114.839 112.913 113.782 113.768 112.55 114.888C112.036 113.715 111.47 112.735 110.789 111.414C111.439 111.691 111.8 111.891 111.993 111.943C111.319 110.21 113.554 109.98 113.968 108.435C105.565 106.183 97.1613 103.931 88.7577 101.68C88.687 101.557 88.7129 101.461 88.6681 101.242C89.4218 101.133 90.1308 100.805 90.807 100.986C100.659 103.626 110.512 106.266 120.268 108.88C120.751 109.01 121.234 109.139 121.62 109.243C122.831 109.36 122.798 109.869 122.346 110.783Z" fill="#DC8A81"/>
<path id="Vector_7" d="M22.8685 35.7809C22.2113 35.9154 21.8956 35.9343 21.5799 35.9533C21.5541 36.0498 21.5282 36.1464 21.5989 36.2689C23.5825 36.5934 25.6179 36.7246 27.4273 37.313C29.7455 37.9341 31.3118 37.1115 32.5573 35.1676C32.7246 35.316 32.8919 35.4643 33.0592 35.6127C32.7297 36.4562 32.4002 37.2996 32.0448 38.2397C32.3345 38.3173 32.7399 38.7365 33.178 38.6468C35.291 38.4883 37.0417 39.6821 38.9028 40.0773C41.0279 40.6467 43.0563 41.1902 45.1814 41.7596C46.0507 41.9925 46.8424 42.5152 47.7117 42.7482C48.1947 42.8776 48.7294 42.8138 49.3348 42.8725C49.4763 43.1175 49.5659 43.5556 49.8677 44.3612C47.3563 43.6882 45.2313 43.1188 43.1062 42.5494C36.6345 40.8153 30.1887 38.9847 23.717 37.2506C22.9443 37.0435 22.2163 37.0555 21.4695 36.7519C21.0831 36.6483 20.8969 36.1843 20.6589 35.9135C21.097 35.8238 21.4644 35.6117 21.9025 35.5221C21.9284 35.4255 22.1923 35.5997 22.8685 35.7809Z" fill="#DC8A81"/>
<path id="Vector_8" d="M87.9456 118.234C87.7713 118.497 87.6678 118.884 87.4487 118.929C85.1356 119.448 82.8225 119.967 80.5352 120.389C80.2195 120.408 79.8849 120.111 79.8142 119.989C79.0086 120.291 78.3704 120.741 77.6684 120.656C75.6778 120.744 73.8356 120.664 71.8968 120.559C68.9404 120.388 65.9321 120.41 62.9567 119.924C60.1745 119.489 57.425 118.545 54.6497 117.698C54.2634 117.594 53.9995 117.42 53.639 117.22C53.6649 117.123 53.7166 116.93 53.6459 116.808C54.4704 116.821 55.3915 116.861 56.1901 116.972C57.5683 117.237 59.0172 117.626 60.3436 118.085C61.2837 118.44 62.1978 118.892 63.1379 119.247C63.3311 119.299 63.6657 119.596 63.7881 119.525C65.8702 118.323 67.9107 119.595 70.0237 119.436C74.3722 119.048 78.669 118.854 83.0175 118.466C84.4026 118.32 85.7429 117.954 87.0573 117.685C87.3919 117.982 87.6817 118.059 87.9456 118.234Z" fill="#DC8A81"/>
<path id="Vector_9" d="M60.6741 46.532C63.8168 47.167 67.082 47.7314 70.2954 48.4889C71.0682 48.6959 71.589 49.4567 72.31 49.8569C72.9344 50.2313 73.6554 50.6315 74.3971 49.795C74.5196 49.7243 74.8353 49.7053 75.0285 49.7571C79.9547 51.0771 84.8809 52.397 89.8071 53.717C90.6764 53.95 91.4164 54.6659 92.3047 55.2145C92.2788 55.3111 92.1304 55.4784 92.1045 55.5749C86.7919 54.1514 81.4794 52.7279 76.1668 51.3044C70.9508 49.9068 65.7537 48.8248 60.5895 47.234C60.5705 46.9184 60.6223 46.7252 60.6741 46.532Z" fill="#DC8A81"/>
<path id="Vector_10" d="M39.4769 23.2526C38.8008 23.0714 38.3437 22.8454 37.7642 22.6901C40.0343 20.3996 42.3576 22.1609 44.5931 21.9317C44.6638 22.0542 44.7087 22.2733 44.6828 22.3699C43.8772 22.6716 43.0906 23.2891 42.3627 23.3011C41.5382 23.2872 40.7724 22.6679 40.0514 22.2677C39.9031 22.435 39.8772 22.5316 39.7288 22.6989C40.1341 23.1181 40.5136 23.6339 41.0862 24.2014C40.1064 24.7671 39.1525 25.2362 38.2434 25.9243C36.1285 27.6353 33.881 27.1366 31.4662 26.4895C32.22 26.3809 32.8513 26.343 33.4826 26.3051C33.148 26.0084 32.2856 25.3632 32.3633 25.0735C32.6669 24.3266 33.2603 23.6574 33.8727 23.3038C34.3367 23.1176 35.0577 23.5178 35.7339 23.699C36.6947 22.8176 38.1367 23.6181 39.4769 23.2526Z" fill="#DC8A81"/>
<path id="Vector_11" d="M104.493 38.7064C101.102 35.5202 97.2916 32.7393 93.0813 30.6794C91.1563 29.7495 89.0831 28.987 87.1581 28.0571C86.7011 27.8311 86.2957 27.4119 85.8645 27.0893C85.9163 26.8961 86.0647 26.7288 86.0905 26.6322C86.5735 26.7616 87.1531 26.9169 87.636 27.0463C93.592 29.1598 98.9475 32.3548 103.632 36.5088C104.134 36.9539 104.436 37.7594 104.789 38.3718C104.86 38.4943 104.641 38.5391 104.493 38.7064Z" fill="#DC8A81"/>
<path id="Vector_12" d="M63.4431 20.3568C70.2013 19.4759 76.8422 19.806 83.4364 21.4693C83.5071 21.5918 83.5519 21.8109 83.526 21.9075C82.9654 22.0678 82.4496 22.4473 81.9667 22.3179C76.3832 21.1324 70.6635 20.8421 64.9298 21.3763C64.3951 21.4401 63.7707 21.0657 63.2171 20.8139C63.3395 20.7432 63.3913 20.55 63.4431 20.3568Z" fill="#DC8A81"/>
<path id="Vector_13" d="M43.7172 118.702C43.524 118.651 43.2084 118.67 43.041 118.521C41.8182 117.676 40.9867 118.074 40.1932 119.104C40.0189 119.368 39.3617 119.502 39.072 119.425C38.1578 118.973 37.1729 118.398 36.4589 117.586C35.8156 116.896 35.4431 115.968 35.0964 114.943C35.5276 115.266 35.8622 115.562 36.3452 115.692C36.5384 115.744 36.8799 115.628 37.099 115.583C36.9317 115.435 36.7644 115.286 36.7196 115.067C36.3919 114.358 36.1608 113.675 35.8331 112.966C38.5687 114.735 41.2076 116.477 43.8466 118.219C43.8397 118.632 43.7431 118.606 43.7172 118.702Z" fill="#DC8A81"/>
<path id="Vector_14" d="M52.129 124.787C51.9479 125.463 51.5805 125.675 50.9302 125.397C49.5331 124.816 48.1359 124.235 46.5456 123.601C46.7716 123.144 46.9459 122.88 47.146 122.52C46.1163 121.726 44.4673 121.699 44.5985 119.663C46.6011 120.303 48.5071 120.918 50.3423 121.409C51.1151 121.616 51.3013 122.08 51.2875 122.905C51.1063 123.581 51.7755 124.175 52.129 124.787ZM50.7837 124.012C50.6233 123.452 50.6372 122.627 50.444 122.575C49.6713 122.368 48.9175 122.477 48.093 122.463C48.1826 122.901 48.1757 123.313 48.1688 123.726C48.9933 123.74 49.7919 123.85 50.7837 124.012Z" fill="#DC8A81"/>
<path id="Vector_15" d="M52.9126 19.0881C49.7611 20.4177 46.7718 20.7555 43.6878 19.5151C43.7395 19.3219 43.6947 19.1028 43.7465 18.9096C44.5192 19.1167 45.2212 19.2013 46.3804 19.5118C45.6853 19.015 45.4214 18.8408 45.0609 18.6406C47.5104 17.2264 49.8614 17.3388 52.9126 19.0881Z" fill="#DC8A81"/>
<path id="Vector_16" d="M75.7413 24.6874C75.2773 24.8736 74.8581 25.2789 74.3492 25.2461C72.6036 25.1925 71.0064 24.9716 69.2867 24.8213C68.7778 24.7885 68.3138 24.9748 67.7084 24.9161C65.7627 25.2229 63.6945 25.6005 61.214 25.9712C61.685 25.3727 61.8403 24.7931 62.1818 24.6776C66.5631 23.781 71.0272 23.7348 75.4584 24.1975C75.5033 24.4165 75.574 24.539 75.7413 24.6874Z" fill="#DC8A81"/>
<path id="Vector_17" d="M60.7327 45.9266C57.2397 47.3717 54.6594 45.0239 51.7737 44.9754C51.7099 44.4406 51.6202 44.0025 51.653 43.4937C54.5508 44.2701 57.4486 45.0466 60.7327 45.9266Z" fill="#DC8A81"/>
<path id="Vector_18" d="M106.972 114.842C108.003 114.083 108.912 113.395 109.725 112.681C110.29 113.661 110.785 114.518 111.422 115.621C110.758 116.167 109.997 116.688 109.21 117.306C108.496 116.493 107.782 115.681 106.972 114.842Z" fill="#DC8A81"/>
<path id="Vector_19" d="M46.1016 112.508C45.998 112.895 45.7979 113.255 45.6426 113.835C42.6949 111.699 39.7214 109.66 36.6064 107.376C38.1398 107.062 38.5244 108.718 39.8129 108.546C41.7567 109.791 43.8938 111.089 46.1016 112.508Z" fill="#DC8A81"/>
<path id="Vector_20" d="M110.483 44.5561C110.193 44.4784 109.807 44.3749 109.569 44.1041C108.282 42.7241 107.092 41.3699 105.831 39.8933C105.522 39.5 105.388 38.8428 105.227 38.2822C105.35 38.2114 105.595 38.07 105.717 37.9993C107.287 39.8692 108.882 41.6426 110.452 43.5125C110.619 43.6609 110.515 44.0472 110.56 44.2663C110.605 44.4854 110.509 44.4595 110.483 44.5561Z" fill="#DC8A81"/>
<path id="Vector_21" d="M41.5183 34.5664C41.1837 34.2697 41.0422 34.0247 40.4955 33.3606C43.5315 31.6894 46.3484 30.0631 49.2878 28.366C49.3585 28.4885 49.5258 28.6369 49.5706 28.8559C46.8951 30.7272 44.3162 32.6244 41.5183 34.5664Z" fill="#DC8A81"/>
<path id="Vector_22" d="M89.2818 24.3815C90.7256 23.6295 91.9106 23.8435 92.8627 24.9269C93.1007 25.1977 93.4353 25.4944 93.7251 25.572C94.7876 25.8567 95.7535 26.1156 96.816 26.4003C96.8867 26.5227 96.9316 26.7418 96.9057 26.8384C96.5383 27.0505 96.0225 27.43 95.7327 27.3523C93.5887 26.4673 91.3999 25.3631 89.2818 24.3815Z" fill="#DC8A81"/>
<path id="Vector_23" d="M87.9456 118.234C87.6817 118.059 87.3919 117.982 87.128 117.807C88.6874 117.397 90.2208 117.083 91.8061 116.576C92.0251 116.531 92.1804 115.952 92.522 115.836C93.2309 115.509 94.0365 115.207 94.7454 114.879C94.8162 115.002 94.9835 115.15 95.0542 115.273C94.7316 115.704 94.4538 116.354 94.0157 116.444C92.991 116.79 91.825 116.892 90.8004 117.239C90.1173 117.47 89.6015 117.849 88.9184 118.08C88.6476 118.318 88.2612 118.215 87.9456 118.234Z" fill="#DC8A81"/>
<path id="Vector_24" d="M97.4455 27.9148C99.8811 27.3251 100.961 29.4779 102.692 30.356C100.438 30.2696 99.0409 29.6881 97.4455 27.9148Z" fill="#DC8A81"/>
<path id="Vector_25" d="M97.7227 113.813C98.8509 113.08 99.6634 112.366 100.617 111.897C101.475 111.402 102.275 109.96 103.922 111.541C102.872 111.984 101.995 112.163 101.164 112.561C100.797 112.774 100.5 113.108 100.229 113.346C99.539 113.99 98.9197 114.755 97.7227 113.813Z" fill="#DC8A81"/>
<path id="Vector_26" d="M28.6174 97.7814C30.9426 97.9903 31.2425 100.348 32.6775 101.561C30.6232 101.114 29.3366 99.7341 28.6174 97.7814Z" fill="#DC8A81"/>
<path id="Vector_27" d="M51.2052 116.257C49.6667 115.431 47.4312 115.66 47.1313 113.302C48.5732 114.102 50.7569 114.066 51.2052 116.257Z" fill="#DC8A81"/>
<path id="Vector_28" d="M102.003 105.953C102.387 107.609 100.859 109.063 98.0301 109.962C97.9594 109.839 97.8887 109.717 97.7921 109.691C99.1462 108.501 100.5 107.311 102.003 105.953Z" fill="#DC8A81"/>
<path id="Vector_29" d="M55.7184 26.7762C57.2329 26.1468 58.7733 25.4207 60.5328 24.6498C60.5309 26.2022 58.3074 27.1594 55.8339 27.1178C55.8598 27.0212 55.7891 26.8987 55.7184 26.7762Z" fill="#DC8A81"/>
<path id="Vector_30" d="M36.3743 37.5363C37.5801 36.5135 38.291 34.6334 40.8541 35.1131C39.2361 36.129 38.4546 37.8866 36.3743 37.5363Z" fill="#DC8A81"/>
<path id="Vector_31" d="M50.2662 23.5554C51.6772 23.3123 53.0623 23.1658 54.4733 22.9227C54.544 23.0451 54.4923 23.2383 54.563 23.3608C53.2088 24.5509 51.5788 24.8388 50.33 24.0901C50.3818 23.8969 50.311 23.7744 50.2662 23.5554Z" fill="#DC8A81"/>
<path id="Vector_32" d="M56.5989 17.6947C54.6065 19.3349 53.7062 18.0584 52.535 17.0199C53.1922 16.8854 53.9701 18.2326 54.429 16.9062C55.0793 17.184 55.7554 17.3651 56.5989 17.6947Z" fill="#DC8A81"/>
<path id="Vector_33" d="M58.7511 22.4125C57.4108 22.778 56.1861 23.4851 54.8477 22.2983C56.2397 21.7395 57.4127 21.2256 58.7511 22.4125Z" fill="#DC8A81"/>
<path id="Vector_34" d="M78.7943 24.8843C78.194 25.9657 78.194 25.9657 75.8757 25.3446C76.502 24.1665 76.8176 24.1475 78.7943 24.8843Z" fill="#DC8A81"/>
<path id="Vector_35" d="M59.1241 17.5431C57.7011 17.0583 56.4006 16.5027 54.6878 15.9403C56.8854 15.0797 57.7788 16.7685 59.2277 17.1567C59.1759 17.3499 59.15 17.4465 59.1241 17.5431Z" fill="#DC8A81"/>
<path id="Vector_36" d="M38.5087 30.3436C39.4885 29.7779 40.1147 28.5998 41.3565 29.7608C40.6148 30.5973 39.8281 31.2148 38.5087 30.3436Z" fill="#DC8A81"/>
<path id="Vector_37" d="M111.949 46.8124C112.432 46.9418 112.94 46.9746 113.178 47.2455C113.654 47.7871 114.201 48.4513 113.092 49.4999C112.694 48.6685 112.392 47.8629 111.949 46.8124Z" fill="#DC8A81"/>
<path id="Vector_38" d="M30.4412 91.7479C30.1704 91.9859 29.9254 92.1273 29.4355 92.4101C29.0112 91.6753 28.6836 90.9663 28.33 90.354C29.503 89.84 29.503 89.84 30.4412 91.7479Z" fill="#DC8A81"/>
<path id="Vector_39" d="M110.483 44.5561C110.509 44.4595 110.605 44.4854 110.631 44.3888C111.326 44.8856 111.899 45.4532 112.594 45.95C112.542 46.1432 112.516 46.2398 112.464 46.433C112.149 46.4519 111.562 46.7089 111.492 46.5864C111.041 45.9481 110.81 45.2651 110.483 44.5561Z" fill="#DC8A81"/>
<path id="Vector_40" d="M81.4402 26.2144C82.4787 25.0433 83.6379 25.3538 84.2414 26.965C83.2755 26.7061 82.4062 26.4732 81.4402 26.2144Z" fill="#DC8A81"/>
<path id="Vector_41" d="M33.9544 35.749C33.7959 33.636 34.4601 33.0893 35.9279 33.7932C35.2379 34.4365 34.6703 35.0091 33.9544 35.749Z" fill="#DC8A81"/>
<path id="Vector_42" d="M106.289 34.3219C107.132 34.6514 108.001 34.8843 109.038 35.2656C107.342 36.5712 106.854 35.3017 106.185 34.7082C106.211 34.6116 106.263 34.4184 106.289 34.3219Z" fill="#DC8A81"/>
<path id="Vector_43" d="M65.1621 128.693C66.837 128.624 68.2928 128.6 69.9677 128.531C69.1293 129.342 68.2789 129.425 65.1621 128.693Z" fill="#DC8A81"/>
<path id="Vector_44" d="M114.952 45.6501C116.589 44.9499 116.589 44.9499 117.07 46.6317C116.516 46.3798 115.892 46.0055 114.952 45.6501Z" fill="#DC8A81"/>
<path id="Vector_45" d="M96.9241 113.703C97.1552 114.386 97.2707 114.728 97.3863 115.069C96.6773 115.397 95.9684 115.725 95.2594 116.052C95.1887 115.93 95.0921 115.904 95.118 115.807C95.6855 115.235 96.1823 114.54 96.9241 113.703Z" fill="#DC8A81"/>
<path id="Vector_46" d="M93.4158 111.728C92.8483 112.3 92.2807 112.873 91.5907 113.516C90.9682 111.589 92.3723 111.759 93.0812 111.431C93.1778 111.457 93.2485 111.579 93.4158 111.728Z" fill="#DC8A81"/>
<path id="Vector_47" d="M50.7837 124.012C49.7919 123.85 49.0898 123.765 48.1687 123.726C48.1757 123.313 48.0601 122.972 48.093 122.463C48.9175 122.477 49.7678 122.394 50.444 122.575C50.6372 122.627 50.6233 123.452 50.7837 124.012Z" fill="#DC8A81"/>
</g>
</g>
<g id="Group_3">
<path id="Vector_48" d="M35.8537 74.2526L25.2285 71.4056C23.3933 70.9138 22.0738 70.0426 21.3667 68.8179C20.6596 67.5931 20.539 66.1114 20.979 64.4693L23.4895 55.0999L27.3532 56.1351C27.3532 56.1351 27.3014 56.3283 27.2238 56.6181C27.1461 56.9079 26.9909 57.4874 26.7838 58.2602L33.9317 60.1754L35.1481 55.6356L24.1365 52.6851L25.0942 49.1111L39.9694 53.0969L36.8118 64.8812L25.7037 61.9048C25.4449 62.8707 25.3603 63.5728 25.3275 64.0816C25.2947 64.5905 25.4809 65.0545 25.8862 65.4737C26.195 65.867 26.8452 66.1447 27.7146 66.3777L37.2772 68.94L35.8537 74.2526Z" fill="#DC8A81"/>
<path id="Vector_49" d="M56.7086 65.9679L55.8027 69.3487L55.3197 69.2192L54.5692 72.0204C54.0515 73.9523 53.6633 75.4012 53.3338 76.2446C53.0042 77.0881 52.6299 77.7125 52.14 77.9953C51.6501 78.2781 50.9929 78.4126 50.1235 78.1797L49.4474 77.9985L50.8709 72.6859L51.1607 72.7636C51.3539 72.8153 51.4763 72.7446 51.6247 72.5773C51.773 72.41 51.9025 71.9271 52.1802 71.2768C52.458 70.6265 52.5684 69.8279 52.8273 68.862L52.879 68.6688L52.0097 68.4359C51.1815 71.5268 50.2446 73.864 49.4183 75.4025C48.5919 76.9411 47.6828 77.6292 46.6203 77.3445L48.0438 72.0319C48.237 72.0837 48.482 71.9423 48.5596 71.6525C48.7338 71.3886 48.8374 71.0022 48.9927 70.4227L49.5362 68.3942C49.5879 68.2011 49.6138 68.1045 49.6915 67.8147L49.1119 67.6594L48.3613 70.4606C47.8437 72.3924 47.4555 73.8413 47.1259 74.6848C46.7964 75.5282 46.4221 76.1526 45.9322 76.4354C45.4423 76.7183 44.7851 76.8528 43.9157 76.6198L43.4328 76.4904L44.8563 71.1778L45.0495 71.2296C45.2426 71.2814 45.3651 71.2107 45.5135 71.0434C45.6618 70.8761 45.7912 70.3931 45.9724 69.7169C46.1536 69.0408 46.3606 68.2681 46.6195 67.3021L46.6712 67.1089L45.8019 66.876C44.903 69.8445 43.992 72.0851 43.0432 73.6943C42.0943 75.3036 41.0887 75.9659 40.0261 75.6812L41.4496 70.3686C41.7394 70.4462 42.1327 70.1375 42.4105 69.4872C42.6883 68.837 43.0696 67.8003 43.4578 66.3514L42.8782 66.1961L43.7841 62.8154L44.3637 62.9707L46.4601 55.1467L51.9659 56.622L49.8694 64.446L50.449 64.6012L52.5454 56.7773L58.0512 58.2525L55.9548 66.0765L56.6309 66.2577L56.7086 65.9679ZM48.9608 59.3367L48.0915 59.1038L46.9527 63.3538L47.822 63.5868L48.9608 59.3367ZM55.0462 60.9673L54.1768 60.7343L53.038 64.9844L53.9074 65.2173L55.0462 60.9673ZM55.8198 71.2167L58.4597 61.3643L60.3916 61.8819L57.7516 71.7344L55.8198 71.2167ZM60.8028 73.4837C60.2852 75.4155 59.8004 76.8385 59.445 77.7786C59.0896 78.7186 58.6186 79.3171 58.0321 79.5741C57.4456 79.8311 56.6918 79.9397 55.6293 79.655L53.9872 79.215L55.4107 73.9024L56.2801 74.1353C56.763 74.2647 57.1563 73.956 57.5048 73.4282C57.8533 72.9004 58.2346 71.8638 58.6746 70.2217L61.7028 58.9204L64.5039 59.6709L60.8028 73.4837Z" fill="#DC8A81"/>
<path id="Vector_50" d="M70.9164 67.8079L72.8483 68.3255L71.7354 72.479C71.166 74.6041 70.6553 76.1237 70.274 77.1603C69.8927 78.1969 69.2993 78.8661 68.661 79.3163C67.9262 79.7405 67.0758 79.8233 65.9167 79.5127L65.2178 82.1207L62.1269 81.2925L67.6915 60.5251L74.5496 62.3627L73.8249 65.0673C73.6955 65.5502 73.347 66.078 72.8502 66.7731C72.4051 67.275 71.6702 67.6993 70.9164 67.8079ZM69.1778 67.342C69.6418 67.1558 70.0351 66.847 70.287 66.2934C70.6355 65.7656 70.8166 65.0894 71.0496 64.2201L69.9871 63.9354L69.0812 67.3161L69.1778 67.342ZM68.4272 70.1432L67.3143 74.2967C67.6041 74.3743 67.9456 74.2588 68.094 74.0915C68.3389 73.9501 68.539 73.5896 68.6684 73.1066C68.8944 72.6495 69.1274 71.7802 69.4638 70.5245L69.5156 70.3313L68.4531 70.0466L68.4272 70.1432ZM72.7355 76.474L74.281 76.8881C73.7633 78.8199 73.2785 80.243 72.8006 81.2537C72.3486 82.1679 71.8518 82.863 71.2653 83.1199C70.6788 83.3769 69.925 83.4855 69.0557 83.2526L70.4792 77.94C71.6642 78.154 72.4249 77.6331 72.7355 76.474ZM79.7784 74.5306L83.7387 75.5918L82.9364 78.5861L78.9761 77.525L78.7173 78.4909C78.1479 80.616 77.6631 82.039 77.3594 82.7858C77.0299 83.6293 76.5848 84.1312 75.9017 84.3623C75.3152 84.6192 74.2976 84.5536 73.0419 84.2171L72.5589 84.0877L73.9824 78.7751L74.079 78.801C74.3688 78.8786 74.6844 78.8597 74.8069 78.789C75.026 78.7442 75.2002 78.4803 75.2778 78.1905C75.478 77.83 75.6074 77.347 75.7885 76.6709L71.1521 75.4286L71.9544 72.4342L76.5909 73.6765L76.8238 72.8072L74.1192 72.0825L74.6886 69.9575C74.1798 69.9246 73.6002 69.7693 72.8275 69.5623L73.9404 65.4088C75.2927 65.7712 76.407 65.8627 77.116 65.535C77.8249 65.2073 78.3218 64.5122 78.6323 63.3531L80.5642 63.8708L82.496 64.3884C82.1855 65.5475 82.2423 66.4945 82.7183 67.0362C83.1685 67.6744 84.0826 68.1264 85.4349 68.4888L84.322 72.6422C83.6459 72.4611 83.0663 72.3058 82.7058 72.1057L82.1623 74.1341L79.8441 73.5129L79.5853 74.4789L79.7784 74.5306ZM79.3547 67.9984C78.9027 68.9125 78.2385 69.4593 77.5037 69.8835L80.7878 70.7635C80.2411 70.0994 80.0618 69.2231 80.0308 68.1795C80.0706 67.2584 80.2846 66.0734 80.5503 64.6953C80.0914 66.0217 79.6842 67.1549 79.3547 67.9984ZM82.1928 80.9751L80.7693 86.2877C79.8999 86.0547 79.1789 85.6545 78.922 85.068C78.665 84.4815 78.4598 83.7018 78.6221 82.71C78.6877 81.6923 79.0052 80.121 79.5228 78.1891L81.0683 78.6032C80.913 79.1828 80.8802 79.6916 81.0923 80.0591C81.3045 80.4265 81.6132 80.8198 82.1928 80.9751Z" fill="#DC8A81"/>
<path id="Vector_51" d="M90.6758 81.3846C90.9656 81.4623 91.1588 81.514 91.4744 81.4951C91.7901 81.4761 92.0092 81.4313 92.2023 81.4831C92.4214 81.4382 92.518 81.4641 92.6146 81.49L91.4758 85.7401C90.9152 85.9004 90.1355 86.1056 89.4076 86.1177C88.6538 86.2263 87.9518 86.1417 87.2756 85.9605C86.4063 85.7276 85.9044 85.2825 85.4542 84.6442C85.1266 83.9353 85.0697 82.9883 85.3803 81.8292C85.8979 79.8973 86.6725 78.552 87.7489 78.0122C88.8512 77.3758 89.85 77.1257 90.9642 77.2173L86.9073 76.1302L87.8909 72.4597L93.5898 73.9867L92.6063 77.6573C92.6063 77.6573 92.3872 77.7021 91.8973 77.9849C91.4074 78.2678 90.9175 78.5506 90.4277 78.8335C89.9378 79.1163 89.7118 79.5734 89.6082 79.9597C89.5047 80.3461 89.5944 80.7843 90.0255 81.1068C90.1929 81.2552 90.386 81.307 90.6758 81.3846ZM89.3864 71.5146L90.4735 67.4577L94.8201 68.6224L93.7331 72.6793L89.3864 71.5146ZM101.862 84.0713C101.318 86.0997 100.833 87.5227 100.504 88.3662C100.174 89.2096 99.5808 89.8788 98.7493 90.2772C98.0145 90.7015 96.8743 90.7065 95.4254 90.3183L92.6243 89.5677L94.0478 84.2552L96.0762 84.7987C96.5592 84.9281 96.9973 84.8384 97.1715 84.5745C97.3458 84.3106 97.5977 83.757 97.8306 82.8876L100.134 74.2909L95.6908 73.1003L96.7779 69.0434L108.079 72.0716L106.992 76.1285L104.094 75.352L101.765 84.0454L101.862 84.0713Z" fill="#DC8A81"/>
<path id="Vector_52" d="M117.652 92.7541L116.798 95.9416L113.031 94.9322L113.885 91.7447L107.22 89.9588L108.23 86.1917L114.895 87.9776L115.154 87.0116L109.358 85.4587L112.231 74.7369L115.032 75.4875L115.248 72.7501L118.822 73.7077L118.606 76.4452L121.6 77.2475L122.879 74.7948L126.356 75.7265L125.078 78.1792L127.879 78.9298L124.98 89.7482L118.991 88.1435L118.733 89.1094L125.494 90.9212L124.485 94.6883L117.627 92.8507L117.652 92.7541ZM114.692 79.8481L116.913 80.4433L117.198 79.3808L114.977 78.7855L114.692 79.8481ZM116.241 82.9547L114.019 82.3595L113.734 83.422L115.956 84.0173L116.241 82.9547ZM122.902 82.048L123.187 80.9855L120.965 80.3902L120.681 81.4527L122.902 82.048ZM122.229 84.5594L120.008 83.9641L119.723 85.0267L121.945 85.6219L122.229 84.5594Z" fill="#DC8A81"/>
</g>
</g>
<defs>
<clipPath id="clip0_386_380">
<rect width="118" height="115.8" fill="white" transform="translate(29.9713) rotate(15)"/>
</clipPath>
</defs>
</svg>
