<svg xmlns="http://www.w3.org/2000/svg" width="24" height="24" viewBox="0 0 24 24" fill="none">
  <path fill-rule="evenodd" clip-rule="evenodd" d="M10.2266 11.1783L11.0409 11.9879L10.2266 12.7974H4.49525V15.4948L1 11.9879L4.49525 8.54004V11.1783L10.2266 11.1783Z" fill="#932279"/>
  <path fill-rule="evenodd" clip-rule="evenodd" d="M12.8218 10.2267L12.0123 11.041L11.2027 10.2267V4.49527H8.50537L12.0123 1L15.4601 4.49527H12.8218V10.2267Z" fill="#EFA724"/>
  <path fill-rule="evenodd" clip-rule="evenodd" d="M13.7733 12.8214L12.959 12.0119L13.7733 11.2024H19.5047V8.50494L22.9999 12.0119L19.5047 15.4597V12.8214L13.7733 12.8214Z" fill="#262577"/>
  <path fill-rule="evenodd" clip-rule="evenodd" d="M11.1778 13.773L11.9874 12.9586L12.7969 13.773V19.5044H15.4943L11.9874 22.9996L8.53955 19.5044H11.1778V13.773Z" fill="#9CCD2A"/>
  <path d="M4.29028 4.29065H11.2543V11.2547H4.29028V4.29065Z" fill="#9CCD2A" stroke="white"/>
  <path d="M12.7463 4.29065H19.7103V11.2547H12.7463V4.29065Z" fill="#932279" stroke="white"/>
  <path d="M12.7463 12.7477H19.7103V19.7117H12.7463V12.7477Z" fill="#EFA724" stroke="white"/>
  <path d="M4.29028 12.7477H11.2543V19.7117H4.29028V12.7477Z" fill="#262577" stroke="white"/>
  <path d="M1.09619 12.0001L6.02049 7.07584L10.9448 12.0001L6.02049 16.9244L1.09619 12.0001Z" stroke="white"/>
  <path d="M7.07593 6.01955L12.0002 1.09525L16.9245 6.01955L12.0002 10.9438L7.07593 6.01955Z" stroke="white"/>
  <path d="M13.0547 11.9989L17.979 7.07455L22.9032 11.9989L17.979 16.9232L13.0547 11.9989Z" stroke="white"/>
  <path d="M7.07593 17.98L12.0002 13.0558L16.9245 17.98L12.0002 22.9043L7.07593 17.98Z" stroke="white"/>
</svg>
