<svg xmlns="http://www.w3.org/2000/svg" width="18" height="19" viewBox="0 0 18 19" fill="none">
  <path d="M10.7574 10.0091C10.3862 10.0135 10.8277 10.1709 11.3124 10.234C11.4462 10.1456 11.5677 10.0562 11.676 9.96915C11.3741 10.0317 11.0669 10.0331 10.7574 10.0091Z" fill="#A80030"/>
  <path d="M12.7499 9.58952C12.9709 9.33148 13.1321 9.04895 13.1889 8.75684C13.1393 8.9651 13.0057 9.14489 12.8798 9.33461C12.1858 9.70412 12.8145 9.11518 12.8794 8.89138C12.1332 9.68561 12.777 9.36765 12.7499 9.58952Z" fill="#A80030"/>
  <path d="M13.4861 7.97211C13.5309 7.40675 13.3545 7.58548 13.2952 7.80126C13.3644 7.83164 13.4191 8.19977 13.4861 7.97211Z" fill="#A80030"/>
  <path d="M9.3501 0.244995C9.54821 0.275043 9.77817 0.298107 9.74593 0.338114C9.96265 0.297933 10.0118 0.260893 9.3501 0.244995Z" fill="#A80030"/>
  <path d="M9.74554 0.338593L9.60547 0.363053L9.73582 0.35327L9.74554 0.338593Z" fill="#A80030"/>
  <path d="M15.9234 8.18636C15.9455 8.69407 15.7478 8.94041 15.5695 9.3765L15.2487 9.51208C14.9861 9.94325 15.2741 9.78586 15.0861 10.1288C14.6762 10.437 13.8421 11.0932 13.5752 11.1531C13.3804 11.1495 13.7072 10.9587 13.75 10.8839C13.2012 11.2026 13.3097 11.3623 12.4705 11.5558L12.4459 11.5097C10.3762 12.3332 7.50109 10.7013 7.5389 8.47482C7.51677 8.61615 7.4761 8.58087 7.43023 8.63799C7.3234 7.4924 8.05581 6.34175 9.29109 5.87198C10.4993 5.36618 11.9158 5.57373 12.7812 6.25581C12.3058 5.72924 11.3596 5.17103 10.2381 5.22326C9.13966 5.23794 8.112 5.8283 7.76904 6.46914C7.20626 6.76877 7.14098 7.62415 6.89575 7.78069C6.56579 9.83128 7.51639 10.7172 9.12436 11.7594C9.37746 11.9037 9.19563 11.9255 9.22993 12.0354C8.69566 11.8239 8.20642 11.5045 7.80417 11.1135C8.01758 11.3776 8.24796 11.6345 8.54568 11.8363C8.04198 11.692 7.36906 10.8041 7.17259 10.7679C8.04093 12.0826 10.6956 13.0736 12.0856 12.5819C11.4424 12.602 10.6253 12.5931 9.90263 12.3672C9.59913 12.2351 9.18633 11.9615 9.26011 11.9104C11.1571 12.5096 13.1167 12.3642 14.7582 11.2515C15.1757 10.9765 15.6319 10.5086 15.7637 10.5022C15.5652 10.7546 15.7976 10.6236 15.6451 10.8465C16.0612 10.2791 15.4644 10.6155 16.0753 9.86656L16.3009 10.1294C16.217 9.6583 16.9926 9.08631 16.9139 8.34133C17.0918 8.1135 17.1124 8.58647 16.9236 9.11059C17.1856 8.52914 16.9926 8.43568 17.06 7.95594C17.1327 8.11719 17.2281 8.28858 17.2771 8.45876C17.1064 7.89687 17.4523 7.51251 17.5378 7.18597C17.4535 7.15434 17.2744 7.4344 17.2335 6.77068C17.2395 6.4824 17.3283 6.61954 17.3626 6.54863C17.2957 6.51612 17.1201 6.29513 17.0132 5.87127C17.0907 5.77168 17.2203 6.12949 17.3256 6.14416C17.2579 5.80713 17.1412 5.55015 17.1364 5.29158C16.8286 4.74753 17.0275 5.36409 16.7777 5.05797C16.45 4.19369 17.0496 4.85741 17.0901 4.46467C17.5868 5.07318 17.8701 6.01628 18 6.40692C17.9008 5.93066 17.7405 5.46925 17.5449 5.02287C17.6957 5.07651 17.3019 4.0429 17.7409 4.72743C17.2719 3.26825 15.7338 1.90479 14.3188 1.26499C14.4919 1.399 14.7105 1.56724 14.6319 1.59362C13.9283 1.23931 14.052 1.21171 13.9512 1.06198C13.3779 0.864727 13.3403 1.07788 12.9605 1.06233C11.88 0.577678 11.6718 0.629219 10.6774 0.32557L10.7226 0.504298C10.0067 0.30268 9.88859 0.580823 9.11484 0.504996C9.06775 0.473899 9.36279 0.392484 9.60554 0.362606C8.91342 0.43983 8.94587 0.247297 8.2686 0.383922C8.43554 0.284861 8.61197 0.219344 8.79007 0.135132C8.22562 0.164134 7.4426 0.412924 7.68435 0.186672C6.76373 0.533998 5.12867 1.02162 4.21116 1.74912L4.18223 1.58611C3.76179 2.01293 2.34883 2.8608 2.23625 3.41358L2.12385 3.43578C1.90504 3.74905 1.76353 4.10406 1.58999 4.42641C1.30385 4.83872 1.17057 4.58504 1.21128 4.64968C0.648495 5.61461 0.36897 6.42546 0.127441 7.09041C0.299541 7.30793 0.131575 8.39987 0.196654 9.27376C-0.0859771 13.5898 3.77873 17.7805 8.00312 18.748C8.62233 18.9353 9.54316 18.9282 10.3264 18.9474C9.40224 18.7239 9.28283 18.8289 8.38267 18.5635C7.73331 18.305 7.59094 18.0097 7.13105 17.6721L7.31309 17.9442C6.41104 17.6743 6.78851 17.6101 6.05466 17.4136L6.24908 17.1989C5.95673 17.1802 5.47474 16.7822 5.34292 16.5619L5.0231 16.5725C4.63881 16.1716 4.43408 15.8826 4.44896 15.6588L4.34566 15.8145C4.22851 15.6445 2.93186 14.3107 3.60456 14.6212C3.47958 14.5245 3.31347 14.4639 3.13331 14.1872L3.27028 14.0548C2.94653 13.7025 2.67443 13.2511 2.6951 13.1006C2.86783 13.2979 2.98766 13.3348 3.10623 13.3685C2.2887 11.6532 2.24284 13.274 1.62366 11.6224L1.75464 11.6135C1.65423 11.4856 1.59327 11.3467 1.51251 11.2104L1.56954 10.73C0.980928 10.1545 1.40485 8.28298 1.48979 7.25656C1.54866 6.83918 1.98109 6.39487 2.31 5.69811L2.10959 5.66896C2.49263 5.10392 4.29669 3.39979 5.13219 3.4875C5.53691 3.05754 5.05182 3.48594 4.97267 3.37759C5.86168 2.59961 6.14124 2.82797 6.74121 2.68803C7.38827 2.36323 6.18585 2.81468 6.49267 2.56415C7.61119 2.32253 7.28538 2.01486 8.74463 1.89221C8.89854 1.96629 8.38741 2.00664 8.25912 2.10273C9.1911 1.71715 11.2084 1.80485 12.5186 2.31675C14.039 2.9176 15.7472 4.69371 15.8146 6.36483L15.8912 6.38228C15.8524 7.04656 16.0115 7.81476 15.7358 8.52041L15.9234 8.18636Z" fill="#A80030"/>
  <path d="M6.70487 10.441L6.65283 10.6612C6.89681 10.9414 7.09038 11.2451 7.40194 11.4642C7.1778 11.0941 7.01127 10.9412 6.70487 10.441Z" fill="#A80030"/>
  <path d="M7.28255 10.423C7.15342 10.3023 7.07699 10.1569 6.99146 10.0121C7.07326 10.2667 7.24083 10.4854 7.3968 10.7078L7.28255 10.423Z" fill="#A80030"/>
  <path d="M17.489 8.54779L17.4345 8.66345C17.3345 9.26409 17.1186 9.85845 16.7876 10.4095C17.1533 9.82807 17.3899 9.19211 17.489 8.54779Z" fill="#A80030"/>
  <path d="M9.42292 0.0938204C9.67394 0.0160749 10.04 0.0511898 10.3064 0C9.95925 0.024634 9.61382 0.0393089 9.27271 0.0765253L9.42292 0.0938204Z" fill="#A80030"/>
  <path d="M0.609993 4.05527C0.667815 4.5081 0.207103 4.68388 0.712044 4.38528C0.982682 3.86973 0.606264 4.2429 0.609993 4.05527Z" fill="#A80030"/>
  <path d="M0.0169627 6.15269C0.133279 5.85079 0.154355 5.66944 0.198773 5.49475C-0.122699 5.84224 0.0508473 5.91631 0.0169627 6.15269Z" fill="#A80030"/>
</svg>
