<svg xmlns="http://www.w3.org/2000/svg" width="22" height="22" viewBox="0 0 22 22" fill="none">
  <path d="M11.001 0C4.93448 0 0 4.9347 0 11C0 17.066 4.93441 22 11.001 22C17.0657 22 22 17.0656 22 11C22 4.9344 17.0652 0 11.001 0Z" fill="#3C6EB4"/>
  <path d="M11.0014 1.00925C9.23238 1.00925 7.73207 3.83882 7.1902 7.7717C7.17291 7.89819 7.15613 8.02626 7.14129 8.15511C7.06727 8.77404 7.01712 9.41764 6.99205 10.0802C6.98007 10.3834 6.97412 10.6898 6.97412 11.0001C6.97412 11.3102 6.98007 11.6172 6.99205 11.9198C7.01712 12.5822 7.06727 13.2262 7.14129 13.8452C7.97077 13.9526 8.85765 14.0254 9.78273 14.06C10.1826 14.075 10.5885 14.0839 11.0015 14.0839C11.4132 14.0839 11.8203 14.0749 12.219 14.06C13.1452 14.0254 14.0315 13.9526 14.8616 13.8452C14.953 13.8335 15.0428 13.8207 15.1338 13.8075C18.5887 13.3224 20.992 12.2485 20.992 11.0001C20.992 5.48203 16.5186 1.00925 11.0014 1.00925Z" fill="#DB3279"/>
  <path d="M15.1332 8.19199C15.0329 8.04583 14.9255 7.9058 14.811 7.77131C13.8942 6.69079 12.5287 6.00418 11.0009 6.00418C10.5056 6.00418 10.0645 6.76232 9.78218 7.93961C9.66999 8.40901 9.58287 8.9446 9.52678 9.52588C9.48258 9.99169 9.45874 10.4871 9.45874 10.9997C9.45874 11.5123 9.48258 12.0078 9.52678 12.4732C9.99291 12.5174 10.4876 12.5411 11.0009 12.5411C11.5136 12.5411 12.0083 12.5174 12.4744 12.4732C13.499 12.3759 14.3836 12.1789 15.0102 11.9193C15.629 11.6634 15.9953 11.3446 15.9953 10.9997C15.9952 9.95894 15.6774 8.99231 15.1332 8.19199Z" fill="white"/>
</svg>
