<svg xmlns="http://www.w3.org/2000/svg" width="16" height="16" viewBox="0 0 16 16" fill="none">
<path d="M15 14.1333V2.93333C15 2.42 14.58 2 14.0667 2H1.93333C1.42 2 1 2.42 1 2.93333V14.1333C1 14.6467 1.42 15.0667 1.93333 15.0667H14.0667C14.58 15.0667 15 14.6467 15 14.1333ZM5.66667 9.46667H6.6C7.11333 9.46667 7.53333 9.88667 7.53333 10.4C7.53333 10.9133 7.11333 11.3333 6.6 11.3333H5.66667V12.7333C5.66667 12.9947 5.46133 13.2 5.2 13.2C4.93867 13.2 4.73333 12.9947 4.73333 12.7333V11.3333H3.8C3.28667 11.3333 2.86667 10.9133 2.86667 10.4C2.86667 9.88667 3.28667 9.46667 3.8 9.46667H4.73333V4.33333C4.73333 4.072 4.93867 3.86667 5.2 3.86667C5.46133 3.86667 5.66667 4.072 5.66667 4.33333V9.46667ZM10.3333 7.6H9.4C8.88667 7.6 8.46667 7.18 8.46667 6.66667C8.46667 6.15333 8.88667 5.73333 9.4 5.73333H10.3333V4.33333C10.3333 4.072 10.5387 3.86667 10.8 3.86667C11.0613 3.86667 11.2667 4.072 11.2667 4.33333V5.73333H12.2C12.7133 5.73333 13.1333 6.15333 13.1333 6.66667C13.1333 7.18 12.7133 7.6 12.2 7.6H11.2667V12.7333C11.2667 12.9947 11.0613 13.2 10.8 13.2C10.5387 13.2 10.3333 12.9947 10.3333 12.7333V7.6Z" fill="#878A99"/>
</svg>
