<svg xmlns="http://www.w3.org/2000/svg" width="16" height="16" viewBox="0 0 16 16" fill="none">
  <path d="M11.7639 5.57409H12.6634V7.09065L14.96 4.42337L12.6641 1.81337V3.54488H11.7648C9.18956 3.54488 7.50981 5.52929 6.22684 7.28009C5.07532 8.85384 4.07852 10.3386 2.47227 10.3386H1.04004V12.3686H2.47155C5.04676 12.3686 6.49988 10.2591 7.78356 8.50818C8.93509 6.9336 10.1539 5.57409 11.7639 5.57409ZM4.78532 6.73488L5.11868 6.28321C5.39235 5.91129 5.6786 5.51688 5.9902 5.12552C5.06763 4.23073 3.95707 3.57032 2.47155 3.57032H1.04004V5.5996C1.04004 5.5996 1.42596 5.58024 2.47155 5.5996C3.4838 5.62201 4.11868 6.05201 4.78531 6.73488H4.78532ZM12.6641 10.4166H11.7647C10.784 10.4166 9.80506 9.84832 9.10362 9.09432C9.0342 9.19135 8.96358 9.28752 8.89179 9.38281C8.58395 9.80265 8.25379 10.2551 7.88954 10.7006C8.83618 11.6594 10.208 12.4459 11.7647 12.4459H12.6641V14.1866L14.96 11.5148L12.6641 8.9096L12.6641 10.4166Z" fill="#878A99"/>
</svg>
