<svg xmlns="http://www.w3.org/2000/svg" width="16" height="16" viewBox="0 0 16 16" fill="none">
  <path fill-rule="evenodd" clip-rule="evenodd" d="M13.25 2.875H10.4375C10.25 1.84375 9.21875 1 8.09375 1C6.96875 1 5.9375 1.84375 5.75 2.875H2.9375C2.46875 2.875 2 3.25 2 3.8125V4.75H14.1875V3.8125C14.1875 3.25 13.8125 2.875 13.25 2.875ZM8.09375 1.9375C8.65625 1.9375 9.3125 2.3125 9.5 2.875H6.6875C6.875 2.3125 7.53125 1.9375 8.09375 1.9375ZM12.4062 15.1562L13.25 5.6875H2.9375L3.78125 15.1562C3.875 15.625 4.25 16 4.71875 16H11.4688C11.9375 16 12.4062 15.625 12.4062 15.1562ZM5.28217 7.12498L5.75092 14.1562L6.68634 14.0939L6.21759 7.06262L5.28217 7.12498ZM10.4363 7.12498L9.96759 14.1562L9.03217 14.0939L9.50092 7.06262L10.4363 7.12498Z" fill="#F06548"/>
</svg>
