<svg xmlns="http://www.w3.org/2000/svg" width="16" height="16" viewBox="0 0 16 16" fill="none">
  <path fill-rule="evenodd" clip-rule="evenodd" d="M6.69738 1.27142C7.27322 0.263693 8.72626 0.263696 9.3021 1.27142L15.5789 12.2559C16.1503 13.2558 15.4283 14.5001 14.2766 14.5001H1.72292C0.571186 14.5001 -0.150865 13.2558 0.420555 12.2559L6.69738 1.27142ZM8.43386 1.76756C8.24191 1.43165 7.75757 1.43165 7.56562 1.76756L1.2888 12.752C1.09832 13.0853 1.33901 13.5001 1.72292 13.5001H14.2766C14.6605 13.5001 14.9012 13.0853 14.7107 12.752L8.43386 1.76756Z" fill="#CC563D"/>
  <path d="M7.13216 4.99123C7.06218 4.46637 7.4705 4 8 4C8.5295 4 8.93782 4.46637 8.86784 4.99123L8.37739 8.66959C8.35217 8.85874 8.19082 9 8 9C7.80918 9 7.64783 8.85874 7.62261 8.66959L7.13216 4.99123Z" fill="#CC563D"/>
  <circle cx="8" cy="11" r="1" fill="#CC563D"/>
</svg>
