<svg xmlns="http://www.w3.org/2000/svg" width="206.187" height="43.796" viewBox="0 0 206.187 43.796"><defs><style>.a{fill:#e50012;}.b{fill:#231815;}</style></defs><g transform="translate(-73.175 -190.839)"><path class="a" d="M110.935,233.761H102.5V226.07h6.249v-27H73.175v-2.189a5.5,5.5,0,0,1,5.5-5.5h32.258a5.5,5.5,0,0,1,5.5,5.5v31.376A5.5,5.5,0,0,1,110.935,233.761Z" transform="translate(0 -0.23)"/><path class="a" d="M80.866,246.326H73.175v5.238a5.5,5.5,0,0,0,5.5,5.5h26.656v-7.691H80.866Z" transform="translate(0 -23.535)"/><path class="a" d="M96.489,221.032h7.691V215.8a5.5,5.5,0,0,0-5.5-5.5h-25.5v7.691H96.489Z" transform="translate(0 -8.255)"/><path class="a" d="M90.185,228.935h-9.8l-7.21,10.014,4.407,7.691Z" transform="translate(0 -16.159)"/><path class="a" d="M114.625,225.926,107.9,221.84,97.8,235.94h9.614Z" transform="translate(-10.445 -13.149)"/><rect class="b" width="4.789" height="14.127" transform="translate(170.587 204.045)"/><path class="b" d="M257.6,226.718V213.6h16.649v13.121Zm4.789-2.485h7.071V221.38h-7.071Zm0-5.337h7.071v-2.814h-7.071Z" transform="translate(-78.226 -9.653)"/><path class="b" d="M241.889,208.241l-1.819-3.209h4.776l1.816,3.209Z" transform="translate(-70.789 -6.02)"/><path class="b" d="M281.648,197.636l-2.386-2.611h-2.336l-.738,2.611h-4.931l1.619-5.8h4.931l-.195.7h11.32v2.484h-4.868l2.987,2.611Z" transform="translate(-84.017 -0.424)"/><path class="b" d="M251.386,197.636,249,195.025h-2.407l-.74,2.611h-4.908l1.623-5.8h4.908l-.195.7h10.75v2.484h-4.189l2.387,2.611Z" transform="translate(-71.161 -0.424)"/><path class="b" d="M207.716,225.041v-3.927H184.891v2.368h16.834v2.908h-22.45v-7.545h28.441v-2.406h-33.23v12.319H204Z" transform="translate(-42.972 -10.858)"/><path class="b" d="M220.025,193.193h-10.4V204.7h14.358v-7.546Zm-.829,9.022h-5.262v-6.5H219.2Z" transform="translate(-57.877 -0.998)"/><g transform="translate(210.013 190.839)"><path class="b" d="M326.794,204.57H331v-4.052h4.535v-1.277H331v-.935h-4.205v.935h-4.519v1.277h4.519Z" transform="translate(-315.67 -194.006)"/><path class="b" d="M345.848,191.813H332.485l-1.2-.974h-5.952l1.2.974h-13.8l-.31,2.615-1.613,23.821h3.482l1.723-24.731h29.838Z" transform="translate(-310.806 -190.839)"/><path class="b" d="M351.88,206.911l1.643-3.085h-2.235l-1.643,3.085Z" transform="translate(-327.279 -196.347)"/><path class="b" d="M361.75,199.242h-4.925v-.935h-4.2v.935h-4.325v1.277h4.325v4.052h4.2v-4.052h4.925Z" transform="translate(-326.707 -194.006)"/><path class="b" d="M364.873,206.911h2.12l-2.216-3.085h-2.12Z" transform="translate(-332.798 -196.347)"/><path class="b" d="M326.131,206.911l1.643-3.085h-2.235l-1.643,3.085Z" transform="translate(-316.358 -196.347)"/><path class="b" d="M350.037,233.845v-2.7H346.4v4.2h14.9v-1.5Z" transform="translate(-325.903 -207.936)"/><path class="b" d="M360.639,232.754l1.248-3.258h-3.1l-1.277,3.258Z" transform="translate(-330.614 -207.236)"/><path class="b" d="M366.438,231.255l.75,2.244h2.136l-.758-2.244Z" transform="translate(-334.402 -207.982)"/><path class="b" d="M338.476,220.566h12.192V212.01H339.225l.468-1.012h-4.609l-.468,1.012H322.776v8.556h9.273L322.72,226.8h6.626m9.595-13.708h6.938v2.753h-6.938Zm0,4.216h6.938v2.254h-6.938Zm-4.439,2.254h-6.937v-2.254H334.5Zm0-3.718h-6.937v-2.753H334.5Z" transform="translate(-315.859 -199.39)"/><path class="b" d="M337.043,203.826l2.216,3.085h2.153l-2.244-3.085Z" transform="translate(-321.934 -196.347)"/></g><path class="b" d="M281.527,205.574H257.9v2.484h21.707V221.3l-2.489,3.126h3.818l2.333-3.057v-13.5Z" transform="translate(-78.352 -6.25)"/><path class="b" d="M406.778,201.307h-18.32l.577-3.958h20.116v-3.061h-9.687l-2.4-2.516h-4.79l2.4,2.516H379.169v3.061h5.663l-3,21.258h4.2l2.06-13.662h16.6V214.3l-3.112,4.3h3.863l2.886-3.473V204.008Z" transform="translate(-129.789 -0.396)"/><path class="b" d="M192.309,197.511h-6.837V195.1h6.057v-2.329H178.2l.756-.935h-4.642l-1.17,3.3,7.527-.039v2.408h-7.851v2.29H179l-6.177,4.324h5.659l4.084-3.062,4.084,3.062h5.659l-5.577-4.324h5.577Z" transform="translate(-42.266 -0.424)"/><path class="b" d="M175.676,258.3h-2.853l1.733-10.978h2.853Z" transform="translate(-42.266 -23.957)"/><path class="b" d="M190.307,247.321h4.046a4.6,4.6,0,0,1,4.72,5.487,6.729,6.729,0,0,1-6.453,5.492h-4.047Zm1.5,8.56h.641a3.493,3.493,0,0,0,3.654-3.073,2.432,2.432,0,0,0-2.652-3.068h-.667Z" transform="translate(-48.947 -23.957)"/><path class="b" d="M221.3,250.791a2.589,2.589,0,0,0-2.317-1.21,3.512,3.512,0,0,0-3.406,3.042,2.391,2.391,0,0,0,2.5,2.984,3.918,3.918,0,0,0,2.652-1.162l-.555,3.418a8.689,8.689,0,0,1-2.591.513,5.253,5.253,0,0,1-3.872-1.618,4.678,4.678,0,0,1-1.094-4.152,6.857,6.857,0,0,1,2.243-4.015,6.985,6.985,0,0,1,4.471-1.78,6.1,6.1,0,0,1,2.519.555Z" transform="translate(-59.108 -23.741)"/><path class="b" d="M242.27,249.932a2.578,2.578,0,0,0-1.777-.733c-.524,0-1.28.309-1.369.921-.1.639.628.885,1.094,1.047l.7.22c1.455.45,2.518,1.22,2.228,3a4.436,4.436,0,0,1-1.6,2.952,5.5,5.5,0,0,1-3.277,1.037c-1.382,0-1.512-.466-2.515-1.256l.434-2.3a3.315,3.315,0,0,0,2.359,1.136,1.459,1.459,0,0,0,1.558-1.1c.131-.8-.945-1.079-1.529-1.257-1.717-.508-2.825-.974-2.476-3.1a4.3,4.3,0,0,1,4.369-3.685,6.652,6.652,0,0,1,3.29.906Z" transform="translate(-68.957 -23.741)"/><path class="b" d="M261.061,254.163h.029a3.289,3.289,0,0,1,2.549-1.178,2.261,2.261,0,0,1,2.314,1.429,3.457,3.457,0,0,1,2.767-1.429c1.893,0,2.343,1.236,2.081,2.958l-.757,4.759H267.4l.568-3.565c.115-.775.348-2.042-.772-2.042-1.223,0-1.455,1.152-1.586,2.042l-.568,3.565h-2.652l.568-3.565c.131-.833.335-2.1-.842-2.1s-1.385,1.267-1.516,2.1l-.568,3.565h-2.649l1.178-7.471h2.652Z" transform="translate(-78.131 -26.36)"/><path class="b" d="M298.08,260.7h-2.649l.131-.832h-.029a3.107,3.107,0,0,1-2.432,1.079,3.194,3.194,0,0,1-3.131-3.989,4.615,4.615,0,0,1,4.369-3.974,2.579,2.579,0,0,1,2.155.974l.117-.728h2.649Zm-5.372-3.727a1.328,1.328,0,0,0,1.427,1.675,1.948,1.948,0,0,0,1.979-1.675,1.364,1.364,0,0,0-1.44-1.691A1.962,1.962,0,0,0,292.708,256.974Z" transform="translate(-91.93 -26.36)"/><path class="b" d="M318.335,254.564h.029a3.1,3.1,0,0,1,2.623-1.324h.508l-.393,2.544a2.026,2.026,0,0,0-1.091-.246c-1.471,0-1.979.979-2.184,2.256l-.481,3.016H314.7l1.178-7.471h2.652Z" transform="translate(-102.442 -26.468)"/><path class="b" d="M337.216,259.233h-2.652l.83-5.287h-.859l.351-2.184h.859l.364-2.241h2.649l-.364,2.241h1.5l-.348,2.184h-1.5Z" transform="translate(-110.857 -24.89)"/><path class="b" d="M354.462,262.679a2.069,2.069,0,0,1-1.966,1.706,1.43,1.43,0,0,1-1.442-1.706,2.079,2.079,0,0,1,1.981-1.7A1.4,1.4,0,0,1,354.462,262.679Z" transform="translate(-117.855 -29.749)"/><path class="b" d="M373.227,255.666a1.99,1.99,0,0,0-1.282-.523,2.177,2.177,0,0,0-2.11,1.817,1.483,1.483,0,0,0,1.573,1.838,2.337,2.337,0,0,0,1.4-.513l-.351,2.246a4.649,4.649,0,0,1-1.937.419,3.273,3.273,0,0,1-3.437-3.9,4.851,4.851,0,0,1,4.822-4.063,3.253,3.253,0,0,1,1.673.435Z" transform="translate(-124.64 -26.36)"/><path class="b" d="M393.842,256.974a4.968,4.968,0,0,1-5.138,3.974c-2.39,0-4.267-1.424-3.861-3.974a4.943,4.943,0,0,1,5.125-3.989C392.371,252.985,394.235,254.425,393.842,256.974Zm-6.2,0a1.33,1.33,0,0,0,1.43,1.675,1.949,1.949,0,0,0,1.979-1.675,1.364,1.364,0,0,0-1.443-1.691A1.967,1.967,0,0,0,387.638,256.974Z" transform="translate(-132.172 -26.36)"/><path class="b" d="M410.772,254.163h.029a3.291,3.291,0,0,1,2.55-1.178,2.261,2.261,0,0,1,2.314,1.429,3.457,3.457,0,0,1,2.767-1.429c1.893,0,2.343,1.236,2.081,2.958l-.757,4.759h-2.649l.568-3.565c.115-.775.348-2.042-.772-2.042-1.222,0-1.455,1.152-1.586,2.042l-.568,3.565H412.1l.568-3.565c.131-.833.335-2.1-.843-2.1s-1.385,1.267-1.516,2.1l-.568,3.565h-2.649l1.178-7.471h2.652Z" transform="translate(-141.631 -26.36)"/></g></svg>