
<svg style="position:absolute; width:0; height:0; visibility:hidden" xmlns="http://www.w3.org/2000/svg"
xmlns:xlink="http://www.w3.org/1999/xlink">
  <symbol id="cus-remittance" viewBox="0 0 18 18">
   <svg xmlns="http://www.w3.org/2000/svg" xmlns:xlink="http://www.w3.org/1999/xlink" width="18" height="18" viewBox="0 0 18 18">
   <defs><style>.a{fill:#de7575;opacity:0.27;}.b{clip-path:url(#a);}.c{fill:#0052d9;}</style>
   <clipPath id="a"><rect class="a" width="18" height="18" transform="translate(611 116)"/></clipPath>
   </defs><g class="b" transform="translate(-611 -116)">
   <path class="c"  fill="currentColor" d="M71.731,64A7.731,7.731,0,1,1,64,71.731,7.731,7.731,0,0,1,71.731,64Zm0,1.1a6.626,6.626,0,1,0,6.626,6.626A6.626,6.626,0,0,0,71.731,65.1Zm3.037,7.179a.548.548,0,0,1,.324.1l.006,0,.01.007a.552.552,0,0,1,.06.833L74,74.4a.552.552,0,1,1-.781-.781l.235-.235H68.694a.552.552,0,0,1,0-1.1Zm-4.512-3.427a.552.552,0,0,1,0,.781l-.235.235h4.756a.552.552,0,0,1,0,1.1H68.7a.557.557,0,0,1-.4-.949l1.171-1.171A.552.552,0,0,1,70.256,68.855Z" transform="translate(548.194 53.194)"/></g></svg>
  </symbol>
</svg>
