<?xml version="1.0" standalone="no"?><!DOCTYPE svg PUBLIC "-//W3C//DTD SVG 1.1//EN" "http://www.w3.org/Graphics/SVG/1.1/DTD/svg11.dtd"><svg t="1566267466194" class="icon" viewBox="0 0 1024 1024" version="1.1" xmlns="http://www.w3.org/2000/svg" p-id="3735" xmlns:xlink="http://www.w3.org/1999/xlink" width="200" height="200"><defs><style type="text/css"></style></defs><path d="M567.296 1018.88c-1.8432-0.256-3.6352-0.7168-5.4784-0.768-11.4176-0.4096-22.8864-0.6144-34.304-1.1264-16.9984-0.768-33.9456-2.2016-50.432-6.7584-21.76-6.0416-43.1616-13.1584-63.744-22.528-39.7312-18.0736-75.9296-41.6256-108.9536-69.9904-69.632-59.8016-121.344-132.5568-155.392-217.7536a488.23296 488.23296 0 0 1-29.1328-106.3936c-4.5568-29.0304-6.1952-58.2656-5.2224-87.6032 0.2048-5.5808-0.1024-11.1104-0.0512-16.6912 0.256-21.4528 0.5632-42.9056 0.768-64.3072 0.1024-8.448 0.1024-16.896-0.0512-25.2928-0.1024-5.4272-0.768-10.8032-2.56-16.0256-0.4608-1.3312-0.2048-3.072 0.256-4.4544 6.7072-20.7872 13.2608-41.6256 20.3776-62.3104 7.168-20.7872 15.9232-41.0112 25.5488-60.8256 0.6144-1.28 1.28-2.5088 2.048-3.9424 4.608 1.6384 8.0896-0.3072 10.6496-3.584 2.9696-3.7888 5.9392-7.7824 7.936-12.0832 5.4272-11.776 10.2912-23.8592 15.5648-35.7376 1.7408-3.8912 3.8912-7.6288 5.7856-11.4688 0.8704-1.7408 1.9968-3.072 4.1472-3.2768 1.536-0.1536 2.56-0.8704 3.0208-2.56 2.1504-8.192 6.8096-15.0528 11.9808-21.6064 8.7552-11.2128 18.8928-21.0432 29.3376-30.6688 11.8784-10.9568 23.8592-21.76 35.7888-32.7168 3.328-3.072 6.5024-6.4 10.1376-9.984 0.5632 2.4576 1.024 4.5568 1.6384 7.0656 0.8704-0.4608 1.536-0.6656 1.9968-1.0752 20.0704-18.0224 43.264-31.232 67.2256-43.2128 25.1904-12.5952 51.3024-23.0912 77.2096-34.0992 2.8672-1.2288 5.7344-2.4576 8.704-3.6864 0.4096 1.1264 0.512 2.3552 1.1776 3.0208 0.6144 0.5632 1.8944 0.768 2.816 0.6656 5.0688-0.6656 10.1888-1.3312 15.2576-2.2016 7.8848-1.3824 15.7184-2.9696 23.6032-4.4032 1.9456-0.3584 3.9424-0.4096 6.0416-0.3072-5.7344 4.3008-12.6976 6.6048-17.92 11.8272 0.9216-0.0512 1.8944-0.0512 2.816-0.256 8.6016-1.792 17.2544-2.048 26.0096-0.6656 5.888 0.9216 11.8784 1.3312 18.176 1.9968-3.4304 2.048-7.7312 1.9456-11.1104 5.632 2.304 0.4096 3.9936 0.9216 5.6832 1.024 10.1888 0.768 20.2752-0.3072 30.208-2.56 11.8272-2.7136 23.5008-2.5088 35.1232 1.1776 0.6656 0.2048 1.3312 0.256 2.6112 0.512-0.3584-2.9184-0.6656-5.4784-0.9728-8.3456 0.9216 0.0512 1.4848 0 1.9456 0.1536 15.7696 5.0176 31.5904 10.0352 47.36 15.0528 16.9472 5.376 33.0752 12.6976 48.6912 21.0944 4.1984 2.2528 8.3456 2.6624 12.7488 1.6896 2.7648-0.6144 5.5808-1.3312 8.2432-2.2528 9.2672-3.1744 18.0736-1.28 26.7264 2.2528 1.2288 0.512 2.4576 2.048 2.9184 3.3792 1.8432 5.5808 5.5296 9.6768 10.1888 12.9024 5.7856 3.9936 11.6736 7.7312 17.5104 11.5712 0.6656 0.4608 1.536 0.6144 2.3552 0.9728 1.3824-1.8944 0.2048-3.2256-0.7168-4.3008-1.8944-2.304-3.9936-4.5056-6.0928-6.6048-0.9728-0.9728-2.1504-1.7408-3.2768-2.6112l0.6656-0.8192c1.0752 0.5632 2.1504 1.0752 3.1744 1.7408 55.5008 33.6896 99.1232 78.7456 129.3824 136.3968 5.9392 11.264 10.752 23.04 14.592 35.1744 0.3072 0.9216 0.4608 1.8432 0.8192 3.2768-2.7648-2.1504-3.2768-5.6832-6.5024-6.656-1.9456 1.6384-1.3312 3.7376-1.0752 5.632 0.5632 4.6592 1.3824 9.3184 1.8944 14.0288 0.3584 2.9184 0.9728 5.8368-0.3072 8.8576-0.512 1.1776 0.2048 3.0208 0.7168 4.4544 5.4784 15.36 10.3424 30.8736 14.1824 46.7456 0.2048 0.8192 0.3072 1.6384 0.0512 2.6112-3.1232-9.472-5.9904-19.0464-9.4208-28.416a498.432 498.432 0 0 0-11.3152-28.2112c-4.0448-9.2672-8.8576-18.176-14.6944-26.4704-0.5632 0.3072-0.9216 0.4096-0.9728 0.5632-2.2016 5.7344-3.1744 6.3488-9.216 5.5808-1.1264-0.1536-2.2528-0.4608-3.3792-0.6144-3.84-0.4096-5.6832 1.024-5.9392 4.9152-0.1536 2.2528 0.0512 4.608 0.5632 6.8096 0.9216 4.1984 2.0992 8.2944 3.2768 12.4416 0.8704 3.0208 2.816 5.2224 5.9904 6.9632 1.0752-1.6384 1.9968-3.072 3.1744-4.864 0.7168 0.6656 1.5872 1.1264 2.048 1.8944 3.1232 4.9664 5.4784 9.984 6.144 16.128 1.024 9.0624 3.4816 17.92 5.3248 26.88l2.304 11.1104c-0.3072 0.1536-0.6144 0.3072-0.8704 0.4096-1.024-1.3312-2.0992-2.56-2.9696-3.9424-1.4848-2.2528-2.816-4.6592-4.2496-6.9632-0.6144-0.9728-1.28-1.9968-2.1504-2.6112-0.6656-0.4608-1.8432-0.5632-2.6624-0.4096-0.3072 0.0512-0.5632 1.4848-0.4096 2.2528 1.9456 9.1136 4.7104 17.9712 9.1136 26.2144 1.5872 3.0208 3.6352 5.7856 5.632 8.8576-4.4544 0.9216-4.864 4.4544-5.0176 8.0896-0.256 6.7584 0.4096 13.4144 1.792 20.0192 0.2048 0.9728 0.512 1.9456 0.8704 2.8672 1.7408 4.608 3.3792 5.376 8.1408 3.84 0.512-0.1536 1.0752-0.256 2.1504-0.512-0.1536 1.28-0.0512 2.4064-0.3584 3.328-1.4848 4.3008-3.0208 8.6528-4.7104 12.9024-5.2736 13.3632-9.4208 26.88-8.3456 41.6256-2.2016-5.2736-4.352-10.5472-6.5536-15.8208-0.3072 0.1024-0.6144 0.1536-0.9216 0.256-1.1776 5.2224-0.4096 10.6496-0.768 15.9232-4.5568 0.3584-5.9904 1.5872-5.7856 5.5808 0.6656 14.08-3.072 27.1872-8.8576 39.7824-4.1472 9.1136-8.704 18.0224-13.0048 27.0336-2.7648 5.8368-5.12 11.8272-6.0928 18.2272-0.3072 1.8944-0.4096 3.84-0.6656 6.656-3.328-4.4544-6.1952-8.2432-9.3184-12.3904-5.4272 7.7312-10.5472 14.9504-13.056 23.552-0.6656 2.2528-0.7168 4.9152-0.1536 7.168 1.4336 5.5808-0.1024 10.3936-2.9696 15.36-1.4848-1.9456-1.7408-3.7888-0.9216-5.6832 0.768-1.792 1.6896-3.5328 2.9696-6.1952-1.8432 0.768-2.9696 1.024-3.7376 1.6384-2.9696 2.4576-5.9904 4.864-8.7552 7.5264-5.888 5.632-11.6224 11.4176-17.5616 16.9984-32.5632 30.8224-70.3488 52.1216-114.176 62.1568-24.0128 5.5296-48.3328 6.8608-72.8576 4.9152-25.2416-1.9968-49.6128-7.68-73.472-16.0768-2.304-0.8192-4.1984-1.5872-5.2224-4.352-0.7168-1.8944-2.9696-3.3792-4.7616-4.7616-16.6912-12.8-33.0752-25.9584-48.0768-40.7552-14.2336-14.0288-26.88-29.2352-36.5056-46.848-10.9568-20.1216-17.1008-41.6768-19.1488-64.4608-1.7408-19.6096-1.024-39.1168 1.536-58.624 0.256-1.8944 1.0752-3.3792 2.0992-4.9664 2.2528-3.7888 4.4032-7.68 5.9904-11.776 3.328-8.4992 5.9904-17.3056 9.5744-25.7024 2.816-6.5536 6.144-12.9024 10.0864-18.8416 2.7136-4.096 6.8096-7.2192 10.2912-10.8032 0.9728-1.024 2.1504-1.9456 2.7648-3.1744 7.8848-15.7184 19.6096-28.0576 33.6384-38.2976 20.0704-14.6432 42.4448-23.5008 67.1232-26.0608 43.6224-4.4544 80.5888 10.1888 112.128 39.8848 2.816 2.6112 5.376 5.5296 7.8848 8.6016-27.2896-20.8896-58.1632-30.8736-92.3136-29.9008-34.0992 0.9728-64.6656 12.5952-91.0848 34.0992-45.6192 37.12-58.1632 94.464-53.6576 129.28 1.4848-1.0752 2.7648-2.048 4.2496-3.1744 0.3584 4.4544 0.6144 8.8064 1.024 13.1584 2.6624 27.904 12.1344 53.4528 27.8528 76.4928 25.3952 37.2736 59.5968 62.8736 103.3216 74.8032 30.6176 8.3456 60.8256 7.0656 90.4192-6.0416 1.3312 1.5872 2.9696 1.792 5.12 1.1776 14.4384-3.9936 27.5456-10.1376 38.0416-21.248 3.6864-3.8912 7.9872-7.2192 12.5952-10.24-1.792 1.9456-3.6864 3.7376-5.2736 5.8368-0.768 1.024-1.4848 2.8672-1.024 3.7376 0.8704 1.5872 2.816 1.1264 4.2496 0.512 1.8432-0.8192 3.6864-1.6384 5.2736-2.816 8.6528-6.5536 17.5104-12.9024 25.8048-19.8656 11.3664-9.5744 22.3744-19.6096 33.4848-29.4912 4.7616-4.2496 6.5536-9.8304 5.2224-15.9232-1.536-7.1168 1.4848-12.8512 4.5056-18.688 0.4608-0.8704 1.6896-1.4336 2.7136-1.9456 3.1744-1.6384 6.4512-3.1232 9.5744-4.8128 1.1776-0.6656 2.56-1.6384 2.9696-2.816 4.4544-12.032 9.0624-24.064 13.0048-36.3008 2.304-7.0656 2.7648-14.592 2.7648-22.0672 0-0.9728-0.1536-1.8944-0.3072-3.5328-2.7648 2.7648-3.2768 6.1952-5.632 8.5504 0.6144-2.9696 1.2288-5.9904 1.7408-8.96 2.8672-15.9744 3.328-32.1024 3.072-48.2816-0.2048-14.848-0.3584-29.7472-0.5632-44.5952v-4.0448c-4.4032-0.8704-3.4304-4.352-3.6352-7.168-2.3552-29.4912-11.264-57.088-24.7296-83.2512-21.9136-42.6496-51.968-78.4896-90.2656-107.4176-24.3712-18.432-51.9168-29.7472-81.5104-36.608-27.5968-6.4-55.5008-9.3184-83.8144-8.448-13.0048 0.4096-25.9072 1.792-38.7584 4.608-0.512-0.9728-0.8192-2.2016-1.5872-2.7136-0.7168-0.4608-1.9456-0.3584-2.9184-0.256-21.3504 2.2016-42.0864 6.3488-60.2624 18.8928-11.1616 7.7312-23.6032 12.7488-36.7104 16.128-2.4576 0.6656-4.608 1.536-5.12 4.5056 1.536 1.792 3.4304 1.1776 5.1712 0.8192 3.7888-0.768 7.4752-1.8432 11.264-2.7136 1.4336-0.3584 2.9184-0.5632 5.3248-1.024-5.5808 5.5296-11.6736 7.168-18.1248 7.936-6.5024 0.768-13.056 1.536-19.5584 2.4576-7.6288 1.024-14.592 3.84-21.1968 7.7824-10.6496 6.3488-19.712 14.6432-28.3136 23.4496-0.3072 0.3072-0.5632 0.6656-0.768 1.024-0.1024 0.2048 0 0.5632 0 1.1264 2.3552 1.4848 4.5056 0.0512 6.5536-0.9728 1.9968-0.9216 3.9424-2.0992 5.888-3.1744l0.6144 0.6144c-1.8432 2.4576-3.584 4.9152-5.5808 7.2704-0.512 0.6144-1.7408 0.9216-2.6624 0.9216-7.8848 0.1536-15.1552 2.7136-22.1184 6.144-9.5232 4.7104-18.2784 10.6496-26.5728 17.2544-30.464 24.32-56.9344 52.48-80.0256 83.8144-2.3552 3.1744-4.352 6.6048-6.8608 10.4448 3.2768 0.768 5.8368 1.3312 8.8064 1.9968-0.6144 1.6896-1.024 3.1744-1.6896 4.5568-6.3488 12.9536-12.8 25.856-19.2 38.8096-3.9936 8.0896-7.936 16.128-11.7248 24.32-2.8672 6.2976-4.0448 13.056-4.7104 19.9168-1.8944 19.2-3.9936 38.3488-5.888 57.5488-2.5088 25.344-4.7616 50.688-3.6352 76.1856 0.4608 9.8816 1.5872 19.6608 4.1984 29.2352 1.7408 6.2464 4.1472 12.1344 7.8848 17.5104 0.8192 1.1776 1.3312 2.8672 1.2288 4.3008-0.512 6.5536-1.28 13.056-2.048 19.6096-0.256 2.3552 0.1024 4.4544 1.1776 6.6048 2.9184 5.888 5.7344 11.776 8.704 17.9712-1.4336 0.3072-2.9184 0.6656-4.6592 1.024 0.2048 1.0752 0.2048 2.048 0.5632 2.9184 3.5328 9.1648 7.0144 18.3808 10.752 27.4944 1.0752 2.6112 2.7648 4.9664 4.352 7.3728 3.3792 5.12 8.1408 7.8848 14.2848 8.1408 6.2464 0.256 11.4176 2.816 15.2064 7.6288 3.2768 4.1472 6.4512 8.448 8.9088 13.056 4.1472 7.8336 7.68 15.9744 11.4176 23.9616 0.256 0.512 0.256 1.0752 0.512 2.1504-7.6288-1.9456-12.1856-7.3216-16.9984-12.9536-1.2288 2.1504-0.6144 3.9936-0.0512 5.5808 1.5872 4.4544 3.1744 8.8576 5.2224 13.1072 4.7104 9.984 10.5984 19.2512 17.1008 28.2112 0.8192 1.1264 1.6384 2.304 2.7136 3.7888-1.8944 2.304-3.7376 4.608-5.7856 7.1168 3.9424 8.3456 10.0352 14.7968 17.9712 20.8384-1.4848-0.1536-2.0992-0.256-2.7136-0.256-2.048 0-2.9184 1.2288-2.56 3.072 0.3584 1.792 0.8192 3.6864 1.7408 5.2224 3.2768 5.6832 6.4 11.52 10.1888 16.8448 9.5744 13.5168 19.456 26.8288 29.2352 40.2432 0.3072 0.4096 0.768 0.7168 1.4848 1.3824 1.28-1.9968 2.3552-3.7376 3.84-6.0416 0.512 2.4576 0.6656 4.4544 1.3824 6.144 2.2528 5.376 4.1984 11.008 7.2704 15.9232 4.9152 7.8336 10.7008 15.1552 16.0768 22.7328 1.2288 1.7408 2.6624 2.2528 4.7616 2.1504 3.6864-0.2048 7.424-0.0512 11.5712-0.0512 4.5568 7.3728 10.4448 14.1312 17.2032 20.1216 6.656 5.888 13.7216 11.264 23.1424 13.824-2.7136 3.7376-5.2224 7.2192-8.0384 11.1104 1.6896 0.6656 2.9696 1.28 4.2496 1.6896 8.2432 2.6624 15.7696 6.5536 22.528 12.0832 8.5504 6.9632 18.7392 10.8032 29.0304 14.3872 0.2048 0.0512 0.512-0.1024 1.28-0.3584l-5.4272-10.24a2.816 2.816 0 0 0 0.4608-0.3584c1.024 0.9216 2.0992 1.792 3.072 2.7648 5.0688 5.2736 10.1376 10.496 15.104 15.8208 6.7072 7.1168 13.9776 13.4656 22.1184 18.944 10.752 7.2192 22.8864 11.0592 35.2768 13.9264 12.0832 2.7648 24.4224 4.608 36.608 7.0144 7.2704 1.4336 14.4896 3.1744 21.76 4.864 1.4848 0.3584 2.816 1.2288 4.2496 1.8432-1.1776 0.1024-2.3552 0.1024-3.4816 0.1024z" fill="#DC004D" p-id="3736"></path><path d="M467.6608 608.1024c1.3312 0.9728 2.7648 1.8432 3.9424 3.0208 14.2336 13.824 30.1056 25.4464 47.7696 34.4576 1.4848 0.768 3.0208 1.4336 4.8128 2.304 0.3072-1.024 0.512-1.6896 0.768-2.304 0.2048-0.512 0.4096-0.9728 0.6144-1.3824 3.2768 2.9696 6.4 5.888 9.5744 8.704 13.4656 11.776 29.5936 17.3056 46.848 20.5312 20.6336 3.84 41.4208 4.7104 62.3104 4.352 1.9968-0.0512 3.9936 0 6.912 0-1.6896 0.7168-2.6112 1.1776-3.584 1.4848-11.4176 3.6864-23.1936 4.6592-35.1232 4.4032-23.7056-0.5632-46.336-6.2976-68.2496-14.8992-32.9728-12.9536-62.5664-31.1808-87.6544-56.4224a154.624 154.624 0 0 1-24.1664-31.232c1.4848 0.8704 2.4064 1.1264 2.9696 1.7408 3.584 3.6864 7.168 7.3728 10.6496 11.1616 8.192 8.96 16.128 18.176 24.576 26.88 4.5568 4.6592 9.9328 8.5504 15.104 12.5952 1.8432 1.4336 4.1472 2.3552 6.2464 3.4816 0.2048-0.2048 0.3584-0.4608 0.5632-0.6656-0.6656-0.768-1.3312-1.5872-2.0992-2.2528-7.9872-7.0144-14.8992-14.9504-21.248-23.4496-0.5632-0.768-0.9728-1.6896-1.4336-2.56 0-0.0512-0.1024 0.0512-0.1024 0.0512zM588.6464 540.2624c1.5872-0.256 3.1744-0.768 4.7616-0.7168 3.584 0.0512 7.1168 0.4608 10.6496 0.6144 9.728 0.4096 19.3536-0.3072 29.5936-2.304-0.9216 1.1264-1.3824 1.8944-1.9968 2.4576-3.328 2.9184-6.7072 5.7344-10.0864 8.6016-1.2288 1.0752-2.4576 1.792-4.2496 1.4848-8.9088-1.4336-17.6128-3.4816-25.856-7.2192-1.0752-0.512-1.9968-1.3824-2.9696-2.048 0.0512-0.256 0.1024-0.5632 0.1536-0.8704zM410.1632 563.968c10.24 17.2544 19.968 33.6384 29.7472 50.0736-0.256 0.2048-0.5632 0.4096-0.8192 0.6144-3.0208-3.328-6.3488-6.4-9.0112-9.984-7.0656-9.5232-13.824-19.2-20.6336-28.8768a4.97152 4.97152 0 0 1-0.9216-3.1232c0.3072-2.6112 0.9728-5.2224 1.6384-8.704zM130.048 242.6368c1.6896-6.5536 3.2768-12.8512 4.9664-19.456 1.2288-0.256 3.0208-0.6656 4.8128-0.9216 1.6384-0.256 2.7136 0.7168 2.304 2.2016-1.4848 5.5296-2.048 11.6224-7.68 15.104-1.5872 0.9216-2.9696 2.0992-4.4032 3.072zM715.3152 409.7024c3.4816 4.9664 3.6352 18.5856 0.2048 23.3984-0.7168-1.4336-1.4336-2.56-1.8944-3.7888-0.768-1.8432-1.3824-3.7376-2.048-5.5808-0.6144-1.792-2.304-3.2768-1.3312-5.5296 1.2288-3.0208 1.9456-6.2976 5.0688-8.4992zM107.5712 327.6288c-2.8672-10.5472-1.4336-19.3024 5.4784-26.8288-0.7168 8.8576-2.7648 17.408-5.4784 26.8288zM698.7264 488.8064c-2.9184 9.5232-7.5776 17.9712-13.0048 25.4464-2.816-1.5872-5.376-3.0208-7.9872-4.4544 0.8192-0.3072 1.6896-0.6144 2.56-0.9728 6.1952-2.5088 11.7248-5.7344 14.336-12.544 1.024-2.6624 2.7136-5.0176 4.096-7.4752zM674.8672 507.1872c0.8192-9.6768 7.6288-16.128 12.3904-23.6544 0.3072 0.1536 0.5632 0.3072 0.8704 0.4608-4.4544 7.7312-8.8576 15.4624-13.2608 23.1936zM428.032 550.5536c3.4304 6.1952 9.728 10.8544 10.3424 19.712-4.4032-6.7584-7.7824-13.0048-10.3424-19.712zM541.6448 15.7184c3.8912 0.3584 7.7824 0.768 11.6736 1.1264-1.6896 2.048-3.4304 2.816-5.7856 1.5872-1.8432-0.9728-3.9424-1.4336-5.9392-2.0992 0.0512-0.1536 0.0512-0.4096 0.0512-0.6144zM898.4064 466.8928c-0.6144 3.584-1.2288 7.2192-1.8944 10.8032-0.2048-0.0512-0.4096-0.0512-0.6144-0.1024l1.6896-10.8032c0.3072 0 0.5632 0.0512 0.8192 0.1024zM531.8144 5.888c1.3312-0.256 2.6624-0.512 4.0448-0.768 0.0512 0.1536 0.0512 0.3072 0.1024 0.4608-1.28 0.3072-2.56 0.6656-3.84 0.9728-0.1024-0.2048-0.2048-0.4608-0.3072-0.6656z" fill="#DC004D" p-id="3737"></path><path d="M467.7632 608l-1.792-1.9456 0.512-0.3584c0.4096 0.768 0.768 1.5872 1.1776 2.3552 0 0.0512 0.1024-0.0512 0.1024-0.0512z" fill="#DC004D" p-id="3738"></path></svg>