<svg xmlns="http://www.w3.org/2000/svg" xmlns:xlink="http://www.w3.org/1999/xlink" width="26" height="26" viewBox="0 0 26 26"><defs><style>.a{fill:#bc3333;opacity:0.34;}.b{clip-path:url(#a);}.c{fill:#182f56;}</style><clipPath id="a"><rect class="a" width="26" height="26" transform="translate(420 596)"/></clipPath></defs><g class="b" transform="translate(-420 -596)"><g transform="translate(421 534.488)"><path class="c" d="M494.171,414.838a2.382,2.382,0,1,1,2.14-2.675A2.428,2.428,0,0,1,494.171,414.838Zm.163,1.186a3.577,3.577,0,1,0-4.094-3.094A3.62,3.62,0,0,0,494.333,416.025Zm-6.63-1.931a.483.483,0,0,1-.14-.233l-.14-1.163a.426.426,0,0,1,.372-.419l.651-.093a.724.724,0,0,0,.582-.535l.233-.838a.689.689,0,0,0-.209-.744l-.512-.4a.409.409,0,0,1-.07-.582l.7-.861a.62.62,0,0,1,.326-.163.4.4,0,0,1,.326.07l.512.4a.747.747,0,0,0,.791.023l.768-.442a.693.693,0,0,0,.372-.675l-.07-.651a.366.366,0,0,1,.093-.3.432.432,0,0,1,.279-.163l1.14-.14a.388.388,0,0,1,.465.326l.093.675a.666.666,0,0,0,.558.558l.861.233a.726.726,0,0,0,.768-.209l.4-.512a.462.462,0,0,1,.3-.14.4.4,0,0,1,.326.07l.884.651a.409.409,0,0,1,.07.582l-.4.512a.629.629,0,0,0-.023.768l.442.744a.724.724,0,0,0,.7.4l.651-.093a.336.336,0,0,1,.3.07.432.432,0,0,1,.163.279l.07,1.093a.416.416,0,0,1-.349.465l-.721.14a.724.724,0,0,0-.582.535l-.233.838a.689.689,0,0,0,.209.744l.512.4a.41.41,0,0,1,.07.582l-.675.837a.437.437,0,0,1-.6.07l-.512-.4a.747.747,0,0,0-.791-.023l-.768.442a.691.691,0,0,0-.4.675l.07.651a.366.366,0,0,1-.093.3.432.432,0,0,1-.279.163l-1.14.139a.335.335,0,0,1-.3-.07.431.431,0,0,1-.163-.279l-.07-.651a.668.668,0,0,0-.535-.558l-.861-.233a.727.727,0,0,0-.768.209l-.4.512a.437.437,0,0,1-.6.07l-.884-.651a.409.409,0,0,1-.07-.582l.4-.512a.629.629,0,0,0,.023-.768l-.442-.744a.746.746,0,0,0-.7-.4l-.675.07A.37.37,0,0,1,487.7,414.094Z" transform="translate(-476.35 -333.902)"/><path class="c" d="M19.309,64.512H2.164A2.174,2.174,0,0,0,0,66.676V82.681a2.174,2.174,0,0,0,2.164,2.164h9.12V82.379H3.839a1.291,1.291,0,0,1-1.28-1.28V72.538a1.291,1.291,0,0,1,1.28-1.28h13.8a1.261,1.261,0,0,1,1.256,1.117h2.559V66.652a2.135,2.135,0,0,0-2.14-2.14ZM4.839,68.769A.526.526,0,0,1,4.3,69.3H3.048a.526.526,0,0,1-.535-.535v-1.14a.526.526,0,0,1,.535-.535H4.3a.526.526,0,0,1,.535.535Zm5.723,0a.526.526,0,0,1-.535.535H6.979a.526.526,0,0,1-.535-.535v-1.14a.526.526,0,0,1,.535-.535h3.048a.526.526,0,0,1,.535.535Z"/></g></g></svg>