<svg xmlns="http://www.w3.org/2000/svg" xmlns:xlink="http://www.w3.org/1999/xlink" width="26" height="26" viewBox="0 0 26 26"><defs><style>.a{fill:#bc3333;opacity:0.34;}.b{clip-path:url(#a);}.c{fill:#182f56;}</style><clipPath id="a"><rect class="a" width="26" height="26" transform="translate(420 538)"/></clipPath></defs><g class="b" transform="translate(-420 -538)"><g transform="translate(416.225 534.038)"><path class="c" d="M211.741,200.456a19.746,19.746,0,0,0-17.548,0c-1.374.857-2.19,1.923-2.193,3.078v11.66c0,2.838,4.911,5.141,10.967,5.141s10.967-2.3,10.967-5.141V203.541C213.935,202.386,213.119,201.317,211.741,200.456Zm0,14.737c0,.284-.531.984-1.95,1.648a13.1,13.1,0,0,1-2.982.936,20.5,20.5,0,0,1-7.684,0,13.274,13.274,0,0,1-2.982-.936c-1.419-.665-1.95-1.364-1.95-1.648v-.833a19.746,19.746,0,0,0,17.548,0Zm0-3.917c0,.284-.531.984-1.95,1.648a13.1,13.1,0,0,1-2.982.936,20.5,20.5,0,0,1-7.684,0,13.272,13.272,0,0,1-2.982-.936c-1.419-.665-1.95-1.364-1.95-1.648v-.833a19.746,19.746,0,0,0,17.548,0Zm0-3.914c0,.284-.531.984-1.95,1.649a13.1,13.1,0,0,1-2.982.936,20.5,20.5,0,0,1-7.684,0,13.275,13.275,0,0,1-2.982-.936c-1.419-.665-1.95-1.364-1.95-1.649v-.733a19.746,19.746,0,0,0,17.548,0Z" transform="translate(-186.38 -192.593)"/></g></g></svg>