<svg xmlns="http://www.w3.org/2000/svg" xmlns:xlink="http://www.w3.org/1999/xlink" width="26" height="26" viewBox="0 0 26 26"><defs><style>.a,.c{fill:#182f56;}.a{opacity:0.34;}.b{clip-path:url(#a);}</style><clipPath id="a"><rect class="a" width="26" height="26" transform="translate(420 346)"/></clipPath></defs><g class="b" transform="translate(-420 -346)"><g transform="translate(1.839 -42.339)"><path class="c" d="M2.365,6.653H0V2.371A2.371,2.371,0,0,1,2.365,0H7.893a2.365,2.365,0,0,1,2.365,2.365v4.2H7.893V2.371H2.365Zm5.528,7.93h2.365v7.258a2.365,2.365,0,0,1-2.365,2.353H2.365A2.371,2.371,0,0,1,0,21.836V14.517H2.365m5.528,9.678" transform="translate(423.397 389.242)"/><path class="c" d="M19.011,203.532H2.359A2.365,2.365,0,0,1,0,201.173v-5.534a2.365,2.365,0,0,1,2.359-2.359H19.011a1.21,1.21,0,0,1,.829.339l3.992,3.95a1.173,1.173,0,0,1,0,1.675l-3.992,3.95A1.21,1.21,0,0,1,19.011,203.532ZM2.359,201.173H18.521l2.8-2.782-2.8-2.77H2.359Zm0,0" transform="translate(419.03 200.529)"/><path class="c" d="M174.215,359.894H163.721a1.21,1.21,0,1,1,0-2.365h10.494a1.21,1.21,0,0,1,0,2.365Zm0,0" transform="translate(260.607 40.187)"/></g></g></svg>