<svg xmlns="http://www.w3.org/2000/svg" width="22" height="22" viewBox="0 0 22 22" fill="none">
  <path d="M20.2354 12.4422C21.1151 12.3298 21.8849 12.9666 21.9948 13.8656V13.978C22.0681 14.9145 21.4083 15.776 20.492 15.851H20.4553C19.5389 15.9633 18.7325 15.2891 18.6226 14.3526C18.5126 13.4161 19.1724 12.592 20.0888 12.4797C20.1254 12.4797 20.1621 12.4797 20.1987 12.4797L20.2354 12.4422Z" fill="#86DA2F"/>
  <path d="M8.83586 20.2712C8.7992 19.3721 9.49564 18.623 10.3754 18.5855H10.412C11.3284 18.623 12.0615 19.3721 12.0981 20.3086C12.0981 21.2076 11.4383 21.9193 10.5586 21.9943C9.67892 22.0692 8.90917 21.3949 8.83586 20.4959C8.83586 20.4584 8.83586 20.3461 8.83586 20.2712Z" fill="#24C2FF"/>
  <path d="M11.4016 9.52042C11.255 9.59534 11.1817 9.48296 11.145 9.37058C9.82544 6.82339 10.192 3.63939 12.5379 1.69154C13.161 1.16711 14.2973 1.05474 14.8105 1.57916C14.9938 1.76645 15.1037 1.99121 15.1037 2.25342C15.1404 2.8153 15.3237 3.33972 15.6536 3.78923C16.0201 4.23873 16.5699 4.46348 17.1198 4.38857C17.6329 4.38857 18.1461 4.31365 18.4393 4.91299C18.6226 5.25012 18.5493 6.56117 18.256 6.78593C18.1094 6.8983 17.9995 6.82339 17.8895 6.78593C17.0831 6.48626 16.1667 6.41134 15.3237 6.59863C15.0304 6.63609 14.8838 6.56117 14.8838 6.22405C14.8838 5.66216 14.7005 5.13774 14.4439 4.68824C13.8941 3.67685 12.9044 3.63939 12.2447 4.57586C11.6948 5.32504 11.5482 6.22405 11.4016 7.0856C11.3649 7.90969 11.3283 8.73378 11.4016 9.52042Z" fill="#FFCB12"/>
  <path d="M12.2809 10.0823C12.2076 10.0074 12.2443 9.85758 12.3176 9.82013H12.3542C14.4069 7.79735 17.5959 7.64752 19.8685 9.40808C20.4916 9.9325 20.8948 10.9813 20.5649 11.6181C20.455 11.8429 20.2717 11.9927 20.0151 12.0677C19.5019 12.2549 19.0621 12.5546 18.7322 13.0041C18.4023 13.4911 18.329 14.0904 18.4756 14.6523C18.5856 15.1393 18.7688 15.6637 18.2923 16.0757C18.0357 16.338 16.8261 16.5627 16.4962 16.338C16.3496 16.2256 16.3863 16.1132 16.4229 15.9634C16.4962 15.0644 16.3496 14.1653 15.9831 13.3412C15.8731 13.0416 15.9098 12.8917 16.203 12.8168C16.7162 12.667 17.156 12.4048 17.5226 12.0302C18.329 11.2436 18.1457 10.2696 17.0827 9.82013C16.2396 9.44554 15.3966 9.52046 14.5535 9.59537C13.8204 9.67029 13.0507 9.82013 12.2809 10.0823Z" fill="#86DA2F"/>
  <path d="M11.8411 11.0562C11.9511 10.9438 12.0244 10.9813 12.1343 11.0562C14.5169 12.5171 15.7265 15.4389 14.6635 18.2858C14.3703 19.0349 13.4539 19.7466 12.7575 19.5594C12.5375 19.4844 12.3176 19.3721 12.171 19.1473C11.8778 18.6978 11.4379 18.3232 10.9614 18.0985C10.4116 17.9112 9.82508 18.0235 9.34857 18.3232C8.90871 18.5854 8.46885 18.9226 7.95569 18.5854C7.62579 18.3981 7.07597 17.2744 7.18593 16.8998C7.25924 16.7499 7.40586 16.7499 7.55248 16.7499C8.4322 16.6001 9.20195 16.1881 9.86174 15.5887C10.0084 15.4389 10.2283 15.4389 10.3749 15.5887C10.4116 15.6262 10.4116 15.6636 10.4482 15.6636C10.7415 16.1131 11.108 16.4877 11.5845 16.7125C12.5375 17.2744 13.4173 16.7874 13.5272 15.6636C13.6372 14.7272 13.3073 13.9405 13.0141 13.1164C12.6475 12.4047 12.281 11.693 11.8411 11.0562Z" fill="#24C2FF"/>
  <path d="M10.668 11.2809C10.5213 12.0301 10.1915 12.7418 9.7516 13.3411C8.46868 15.3264 6.56263 16.1505 4.25337 15.9258C3.44697 15.8509 2.78718 15.2515 2.64056 14.4649C2.6039 14.2027 2.67721 13.9405 2.86049 13.7157C3.11707 13.416 3.337 13.0415 3.44697 12.6669C3.63024 11.9177 3.37366 11.1311 2.78718 10.6441C1.98077 9.82 2.09074 9.10828 3.04376 8.50894C3.19038 8.43403 3.30035 8.35911 3.44697 8.28419C3.6669 8.17182 3.85017 8.17181 3.92348 8.43403C4.29003 9.25812 4.8765 9.93238 5.6096 10.4193C5.86619 10.6441 5.86619 10.7939 5.64626 11.0561C5.2064 11.5431 4.94981 12.1424 4.91316 12.7792C4.8032 13.3786 5.2064 13.9779 5.79288 14.0903C5.90284 14.0903 6.01281 14.0903 6.08612 14.0903C6.56263 14.0528 7.0758 13.9405 7.479 13.6783C8.54199 13.0789 9.49501 12.2923 10.3014 11.3558C10.4847 11.3184 10.5213 11.2434 10.668 11.2809Z" fill="#0069DA"/>
  <path d="M4.76693 3.52706C4.91355 3.52706 5.06017 3.56452 5.20679 3.60198C6.52637 3.86419 7.36943 3.37723 7.80929 2.10363C8.10253 1.24208 8.72566 0.979865 9.49541 1.42937C9.53206 1.42937 9.53206 1.46683 9.56872 1.46683C10.4118 1.95379 10.4118 2.02871 9.89861 2.74043C9.49541 3.30231 9.23883 3.97657 9.12886 4.68828C9.05555 5.10033 8.90893 5.17525 8.54238 5.02541C7.95591 4.80066 7.33277 4.80066 6.7463 5.02541C6.15982 5.17525 5.79327 5.81205 5.93989 6.44884C5.93989 6.4863 5.97654 6.52376 5.97654 6.56122C6.26978 7.49769 7.07619 7.87228 7.73598 8.35924C8.43242 8.80875 9.20217 9.14588 9.97192 9.40809C10.0819 9.44555 10.2652 9.44555 10.2285 9.63284C10.1919 9.74522 10.0452 9.74522 9.89861 9.74522C8.2858 9.82013 6.70964 9.55792 5.46338 8.47162C4.25377 7.46023 3.41071 6.26155 3.55733 4.57591C3.70394 4.01402 4.18046 3.56452 4.76693 3.52706Z" fill="#FF4649"/>
  <path d="M1.79787 13.8657C0.881496 13.9406 0.0750899 13.2664 0.00178018 12.3299C-0.0348747 11.4309 0.588258 10.6068 1.46797 10.4944C2.38434 10.3446 3.19075 10.9814 3.33737 11.9179C3.41068 12.7794 2.86086 13.7908 1.79787 13.8657Z" fill="#0069DA"/>
  <path d="M16.9362 0.755088C17.8525 0.717629 18.6589 1.39189 18.7689 2.32836C18.8789 3.26482 18.2191 4.12638 17.3027 4.23875C16.3863 4.35113 15.5433 3.67687 15.4333 2.7404C15.4333 2.70294 15.4333 2.66548 15.4333 2.62803C15.3233 1.6541 16.0198 0.830006 16.9362 0.755088Z" fill="#FFCB12"/>
  <path d="M7.55262 1.46681C7.66258 2.40328 7.0028 3.26483 6.08642 3.37721C5.20671 3.48959 4.4003 2.89025 4.21703 1.99124C4.10706 0.904931 4.69354 0.155756 5.68322 0.00592073C6.56294 -0.0689968 7.36934 0.567802 7.55262 1.46681Z" fill="#FF4649"/>
</svg>
