<svg style="position:absolute; width:0; height:0; visibility:hidden" xmlns="http://www.w3.org/2000/svg"
xmlns:xlink="http://www.w3.org/1999/xlink">

  <symbol id="cus-install" viewBox="0 0 18 18">
   <svg xmlns="http://www.w3.org/2000/svg" xmlns:xlink="http://www.w3.org/1999/xlink" width="18" height="18" viewBox="0 0 18 18"><defs><style>.a{fill:#df3737;opacity:0.52;}.b{clip-path:url(#a);}.c{fill:#0052d9;}</style><clipPath id="a"><rect class="a" width="18" height="18" transform="translate(5969 -8509)"/></clipPath></defs><g class="b" transform="translate(-5969 8509)"><g transform="translate(5970.04 -8506.62)">
   <path class="c" fill="currentColor" d="M-.5-.5H16.123V8.768a1,1,0,0,1-1,1H.5a1,1,0,0,1-1-1ZM15.123.5H.5V8.768H15.123Z" transform="translate(0.153 3.972)"/>
   <path class="c" fill="currentColor" d="M.288,16.3l-.577-.817L3.224,13V2.926L-.291.406.291-.406,4.224,2.412V13.52Z" transform="translate(0 3.724) rotate(-90)"/></g>
   <path class="c" fill="currentColor" d="M.5,4.427h-1V0h1Z" transform="translate(5977.984 -8500.435)"/>
   <path class="c" fill="currentColor" d="M3.893,3.893H0v-1H2.893V0h1Z" transform="translate(5977.984 -8500.394) rotate(45)"/></g></svg>
  </symbol>

  <symbol id="cus-uninstall" viewBox="0 0 18 18">
    <svg xmlns="http://www.w3.org/2000/svg" width="18" height="18" viewBox="0 0 18 18"><defs><style>.a{fill:none;}.b,.c{fill:#0052d9;}.b{stroke:rgba(0,0,0,0);stroke-miterlimit:10;}</style></defs><g transform="translate(-1878 -299.5)">
    <rect class="a" fill="none" width="18" height="18" transform="translate(1878 299.5)"/>
    <path class="b" fill="currentColor" d="M-3947.75,8737.749h-9a1.126,1.126,0,0,1-1.125-1.125v-11.249H-3959v-1.125h3.938V8722.9a.9.9,0,0,1,.9-.9h3.826a.9.9,0,0,1,.9.9v1.352h3.936v1.125h-1.125v11.249A1.127,1.127,0,0,1-3947.75,8737.749Zm-9-12.374v11.249h9v-11.249Zm2.813-2.25v1.125h3.375v-1.125Z" transform="translate(5839.25 -8421.375)"/>
    <path class="c" fill="currentColor" d="M.5-2h-1V4.428h1Z" transform="translate(1887 309.619)"/>
    <path class="c" fill="currentColor" d="M3.893,0H0V1H2.893V3.893h1Z" transform="translate(1884.247 309.253) rotate(-45)"/></g>
    </svg>
  </symbol>

  <symbol id="cus-upgrade" viewBox="0 0 18 18">

  </symbol>

</svg>
