<?xml version="1.0" encoding="utf-8"?>
<!-- Generator: Adobe Illustrator 19.2.0, SVG Export Plug-In . SVG Version: 6.00 Build 0)  -->
<svg version="1.1" id="图层_1" xmlns="http://www.w3.org/2000/svg" xmlns:xlink="http://www.w3.org/1999/xlink" x="0px" y="0px"
	 viewBox="0 0 200 200" style="enable-background:new 0 0 200 200;" xml:space="preserve">
<style type="text/css">
	.st0{fill:#D14718;}
	.st1{fill:#FFFFFF;}
</style>
<g>
	<path class="st0" d="M100,0.7c55.3,0,99.8,44.5,99.6,99.9c-0.2,54.4-44.5,99.1-100.2,98.8C44.7,199.1,0,154.9,0.3,99.4
		C0.7,44.4,45.3,0.7,100,0.7z M157.9,96.5c-0.2-1.8-0.3-3.2-0.5-4.7c-1.9-12.4-7.2-23.1-15.8-32.1c-0.7-0.7-1.3-0.9-2.3-0.6
		c-10.4,3.2-21.1-3.2-23.5-13.8c-0.1-0.5-0.7-1.1-1.2-1.2c-2.6-0.6-5.2-1.2-7.8-1.5c-8.3-1-16.5-0.2-24.4,2.4c-2.7,0.9-5.3,2-8,3.1
		c0.2,0.5,0.2,0.7,0.3,0.8c2.8,5.1,5.7,10.2,8.5,15.3c0.5,0.9,1.1,0.5,1.7,0.3c7.7-3.3,15.6-4,23.7-2.2c16.2,3.6,28,16.7,30,33.2
		c0.1,1,0.5,1.3,1.4,1.2c4-0.1,8-0.1,12.1-0.2C153.9,96.5,155.8,96.5,157.9,96.5z M74.2,151.7c0.6,0.3,1,0.5,1.4,0.7
		c6.6,3.1,13.5,4.8,20.8,5.3c6.1,0.4,12.2-0.2,18.1-1.7c0.7-0.2,1.1-0.5,1.3-1.3c2.3-10.6,13.2-17,23.5-13.8c1,0.3,1.6,0.1,2.3-0.6
		c4.8-5,8.6-10.6,11.4-17c2.6-5.8,4.1-11.8,4.7-18.1c0.1-0.7,0.4-1.6-1-1.6c-5.7,0-11.3-0.1-17-0.3c-0.9,0-1.1,0.3-1.2,1.1
		c-1.2,9.6-5.2,17.9-12.6,24.2c-12.3,10.6-26.2,12.7-41.3,6.8c-0.8-0.3-1.2-0.3-1.6,0.5c-1,1.8-2,3.6-3,5.4
		C78.1,144.8,76.2,148.2,74.2,151.7z M67.9,148.1c0.3-0.3,0.5-0.6,0.7-1c2.8-4.7,5.6-9.4,8.4-14c0.7-1.1,0.5-1.6-0.5-2.3
		c-11.5-9.1-16.7-21.1-15-35.7c1.2-10.7,6.5-19.3,15.1-25.9c0.7-0.5,1.1-0.9,0.5-1.8c-2.9-4.8-5.8-9.6-8.7-14.5
		c-0.5-0.8-0.8-0.9-1.6-0.4c-11.4,8-19,18.7-22.9,32.1c-0.2,0.7-0.1,1.1,0.5,1.6c8.3,7.8,8.3,19.7,0,27.5c-0.5,0.5-0.7,0.9-0.5,1.6
		c3.9,13.4,11.5,24.1,22.9,32.1C67.2,147.7,67.5,147.8,67.9,148.1z M32.2,113.4c7.4,0,13.4-6,13.5-13.4c0-7.3-6.1-13.4-13.4-13.4
		c-7.4,0-13.5,6.1-13.5,13.5C18.7,107.4,24.8,113.4,32.2,113.4z M133.9,28.1c-7.4,0-13.5,6-13.5,13.3c0,7.3,6.1,13.4,13.4,13.4
		c7.5,0,13.5-6,13.5-13.5C147.3,34,141.4,28.1,133.9,28.1z M147.4,158.7c0.1-7.4-5.8-13.4-13.2-13.5c-7.4-0.1-13.5,5.8-13.6,13.2
		c-0.1,7.4,5.9,13.5,13.3,13.6C141.2,172,147.3,166.1,147.4,158.7z"/>
	<path class="st1" d="M157.9,96.5c-2.1,0-4,0-5.9,0c-4,0-8,0.1-12.1,0.2c-0.9,0-1.3-0.2-1.4-1.2c-2-16.4-13.8-29.5-30-33.2
		c-8.1-1.8-16.1-1.1-23.7,2.2c-0.6,0.3-1.1,0.7-1.7-0.3c-2.8-5.1-5.7-10.2-8.5-15.3c-0.1-0.2-0.1-0.4-0.3-0.8c2.7-1.1,5.3-2.2,8-3.1
		c8-2.6,16.1-3.4,24.4-2.4c2.6,0.3,5.2,0.9,7.8,1.5c0.5,0.1,1.1,0.7,1.2,1.2c2.4,10.7,13.1,17,23.5,13.8c1-0.3,1.6-0.1,2.3,0.6
		c8.7,9,14,19.7,15.8,32.1C157.7,93.3,157.7,94.7,157.9,96.5z"/>
	<path class="st1" d="M74.2,151.7c2-3.6,3.9-7,5.8-10.3c1-1.8,2.1-3.6,3-5.4c0.4-0.8,0.8-0.8,1.6-0.5c15.1,5.9,29,3.8,41.3-6.8
		c7.4-6.3,11.4-14.6,12.6-24.2c0.1-0.9,0.4-1.2,1.2-1.1c5.7,0.1,11.3,0.2,17,0.3c1.4,0,1.1,0.9,1,1.6c-0.6,6.3-2.1,12.3-4.7,18.1
		c-2.8,6.3-6.7,12-11.4,17c-0.7,0.7-1.3,0.9-2.3,0.6c-10.4-3.2-21.2,3.2-23.5,13.8c-0.2,0.8-0.6,1.1-1.3,1.3c-6,1.5-12,2.1-18.1,1.7
		c-7.2-0.5-14.2-2.2-20.8-5.3C75.2,152.2,74.8,152,74.2,151.7z"/>
	<path class="st1" d="M67.9,148.1c-0.4-0.2-0.7-0.4-0.9-0.5c-11.4-8-19-18.7-22.9-32.1c-0.2-0.7,0-1.2,0.5-1.6
		c8.3-7.9,8.3-19.7,0-27.5c-0.5-0.5-0.7-0.9-0.5-1.6C47.9,71.2,55.6,60.5,67,52.5c0.8-0.5,1.1-0.4,1.6,0.4c2.9,4.8,5.7,9.7,8.7,14.5
		c0.6,0.9,0.2,1.3-0.5,1.8C68.1,75.7,62.8,84.3,61.6,95c-1.7,14.6,3.4,26.6,15,35.7c1,0.8,1.1,1.3,0.5,2.3c-2.9,4.6-5.6,9.3-8.4,14
		C68.4,147.4,68.1,147.7,67.9,148.1z"/>
	<path class="st1" d="M32.2,113.4c-7.4,0-13.5-6-13.5-13.4c0-7.4,6.1-13.5,13.5-13.5c7.4,0,13.4,6.1,13.4,13.4
		C45.6,107.4,39.5,113.4,32.2,113.4z"/>
	<path class="st1" d="M133.9,28.1c7.5,0,13.4,5.9,13.4,13.3c0,7.4-6,13.5-13.5,13.5c-7.3,0-13.4-6.1-13.4-13.4
		C120.5,34.1,126.5,28.1,133.9,28.1z"/>
	<path class="st1" d="M147.4,158.7c-0.1,7.4-6.1,13.3-13.5,13.2c-7.5-0.1-13.5-6.2-13.3-13.6c0.1-7.3,6.3-13.3,13.6-13.2
		C141.6,145.3,147.4,151.3,147.4,158.7z"/>
</g>
</svg>
